*%FSLAX25Y25*%
*%MOIN*%
G01*
%ADD11C,0.00500*%
%ADD12C,0.00600*%
%ADD13C,0.00733*%
%ADD14C,0.00800*%
%ADD15C,0.00900*%
%ADD16C,0.01000*%
%ADD17C,0.01200*%
%ADD18C,0.01500*%
%ADD19C,0.01600*%
%ADD20C,0.01969*%
%ADD21C,0.02000*%
%ADD22C,0.02500*%
%ADD23C,0.03000*%
%ADD24C,0.03200*%
%ADD25C,0.03800*%
%ADD26C,0.04000*%
%ADD27C,0.04600*%
%ADD28C,0.05000*%
%ADD29C,0.05200*%
%ADD30C,0.06000*%
%ADD31C,0.06000*%
%ADD32C,0.06200*%
%ADD33C,0.06800*%
%ADD34C,0.07000*%
%ADD35C,0.07200*%
%ADD36C,0.07500*%
%ADD37C,0.07800*%
%ADD38C,0.08000*%
%ADD39C,0.08000*%
%ADD40C,0.08300*%
%ADD41C,0.08800*%
%ADD42C,0.09200*%
%ADD43C,0.10000*%
%ADD44C,0.10000*%
%ADD45C,0.10200*%
%ADD46C,0.10800*%
%ADD47C,0.11500*%
%ADD48C,0.12000*%
%ADD49C,0.12800*%
%ADD50C,0.13000*%
%ADD51C,0.13800*%
%ADD52C,0.14000*%
%ADD53C,0.15000*%
%ADD54C,0.15000*%
%ADD55C,0.15600*%
%ADD56C,0.15800*%
%ADD57C,0.16000*%
%ADD58C,0.18000*%
%ADD59C,0.18800*%
%ADD60C,0.19600*%
%ADD61C,0.25000*%
%ADD62C,0.25000*%
%ADD63R,0.06000X0.06000*%
%ADD64R,0.06800X0.06800*%
%ADD65R,0.07000X0.07000*%
%ADD66R,0.07500X0.07500*%
%ADD67R,0.07800X0.07800*%
%ADD68R,0.08000X0.08000*%
%ADD69R,0.08300X0.08300*%
%ADD70R,0.08800X0.08800*%
%ADD71O,0.07274X0.00975*%
%ADD72O,0.07274X0.00975*%
%ADD73O,0.07874X0.01575*%
%ADD74O,0.07874X0.01575*%
%ADD75O,0.08674X0.02375*%
%ADD76O,0.08674X0.02375*%
D12*
X87801Y322709D02*
Y326707D01*
Y322709D02*
X90800D01*
X89800Y324708D01*
Y325708D01*
X90800Y326707D01*
X92799D01*
X93799Y325708D01*
Y323708D01*
X92799Y322709D01*
X88801Y328707D02*
X87801Y329706D01*
Y331706D01*
X88801Y332705D01*
X92799D01*
X93799Y331706D01*
Y329706D01*
X92799Y328707D01*
X88801D01*
Y334705D02*
X87801Y335704D01*
Y337704D01*
X88801Y338703D01*
X92799D01*
X93799Y337704D01*
Y335704D01*
X92799Y334705D01*
X88801D01*
Y340703D02*
X87801Y341702D01*
Y343702D01*
X88801Y344702D01*
X92799D01*
X93799Y343702D01*
Y341702D01*
X92799Y340703D01*
X88801D01*
X91800Y352699D02*
X93799Y354698D01*
X91800Y352699D02*
X89800D01*
X87801Y354698D01*
X89800Y357697D02*
X93799D01*
X89800D02*
Y358697D01*
X90800Y359697D01*
X93799D01*
X90800D01*
X89800Y360696D01*
X90800Y361696D01*
X93799D01*
Y363695D02*
Y365695D01*
Y364695D01*
X89800D01*
Y363695D01*
X87801Y364695D02*
X87802D01*
X93799Y368694D02*
Y370693D01*
Y369693D01*
X87801D01*
Y368694D01*
X93799Y373692D02*
X91800Y375691D01*
X89800D01*
X87801Y373692D01*
X347909Y92199D02*
X351907D01*
X347909D02*
Y89200D01*
X349908Y90200D01*
X350908D01*
X351907Y89200D01*
Y87201D01*
X350908Y86201D01*
X348908D01*
X347909Y87201D01*
X353907Y92199D02*
X357905D01*
X353907D02*
Y89200D01*
X355906Y90200D01*
X356906D01*
X357905Y89200D01*
Y87201D01*
X356906Y86201D01*
X354906D01*
X353907Y87201D01*
X359905Y91199D02*
X360904Y92199D01*
X362904D01*
X363903Y91199D01*
Y87201D01*
X362904Y86201D01*
X360904D01*
X359905Y87201D01*
Y91199D01*
X365903D02*
X366902Y92199D01*
X368902D01*
X369902Y91199D01*
Y87201D01*
X368902Y86201D01*
X366902D01*
X365903Y87201D01*
Y91199D01*
X377899Y88200D02*
X379898Y86201D01*
X377899Y88200D02*
Y90200D01*
X379898Y92199D01*
X382897Y90200D02*
Y86201D01*
Y90200D02*
X383897D01*
X384897Y89200D01*
Y86201D01*
Y89200D01*
X385896Y90200D01*
X386896Y89200D01*
Y86201D01*
X388895D02*
X390895D01*
X389895D01*
Y90200D01*
X388895D01*
X389895Y92199D02*
X389896D01*
X393894Y86201D02*
X395893D01*
X394893D01*
Y92199D01*
X393894D01*
X398892Y86201D02*
X400891Y88200D01*
Y90200D01*
X398892Y92199D01*
D16*
X454600Y267600D02*
X464000D01*
X518800Y389000D02*
X526200D01*
X529200Y386000D01*
X528000Y419000D02*
X518400D01*
X389052Y162202D02*
X379352D01*
X517900Y408900D02*
X528800D01*
X527900Y399000D02*
X517800D01*
X330000Y212400D02*
X319600D01*
X378600Y242400D02*
X388800D01*
X331000Y302400D02*
X319400D01*
X650000Y98400D02*
Y92000D01*
Y599800D02*
X100200D01*
X100000D02*
Y99800D01*
Y100000D02*
X650000D01*
X98900Y99900D02*
X92500D01*
X100200Y98600D02*
Y91900D01*
X650000Y100000D02*
Y599800D01*
X90200Y321709D02*
Y99800D01*
Y377891D02*
Y599800D01*
X88200Y105800D02*
X90200Y99800D01*
X92200Y105800D01*
X88200Y593800D02*
X90200Y599800D01*
X92200Y593800D01*
X91200Y99800D02*
X89200D01*
Y599800D02*
X91200D01*
X100000Y89800D02*
X346909D01*
X403091D02*
X650000D01*
X106000Y91800D02*
X100000Y89800D01*
X106000Y87800D01*
X644000Y91800D02*
X650000Y89800D01*
X644000Y87800D01*
X100000Y88800D02*
Y90800D01*
X650000D02*
Y88800D01*
D18*
X269600Y125200D02*
X263000D01*
X240200Y121800D02*
X232800Y125600D01*
X228600Y131200D01*
X205800Y135600D02*
X203400D01*
X199400Y132400D01*
X224800Y139200D02*
X236200Y132200D01*
X196800Y139400D02*
X188600D01*
X186000Y137600D01*
X236200Y132200D02*
X241600Y127800D01*
X299800Y121800D02*
X301800Y120200D01*
X244800Y121800D02*
X240200D01*
X249000Y127800D02*
X255000D01*
X263000Y125200D01*
X310800D02*
X314200Y122800D01*
X314158Y115574D01*
X305000Y125200D02*
X269600D01*
X305000D02*
X310800D01*
X186000Y137600D02*
X183918Y132000D01*
X199400Y132400D02*
X199459Y125500D01*
X241600Y127800D02*
X249000D01*
X224800Y139400D02*
X196800D01*
X244800Y121800D02*
X297600D01*
X299800D01*
X301800Y120200D02*
Y112600D01*
X306800Y107600D01*
X183918Y125359D02*
X183859Y131900D01*
X221400Y135600D02*
X228600Y131200D01*
X221400Y135600D02*
X205800D01*
X245400Y163598D02*
X258200Y163600D01*
X268452Y154102D01*
X330902Y302302D02*
X335498Y304902D01*
X201936Y532632D02*
Y534936D01*
D21*
X319200Y302400D02*
X316800Y301200D01*
X174141Y114259D02*
X170941D01*
X168259Y116941D01*
Y125300D01*
X216800Y114200D02*
X222400Y117800D01*
X234600D02*
X238400Y115600D01*
X234600Y117800D02*
X222400D01*
X336600Y110600D02*
Y150000D01*
X333600Y107600D02*
X306800D01*
X333600D02*
X336600Y110600D01*
X249400Y135400D02*
X240600D01*
X257600D02*
X267532Y131654D01*
X274078Y115539D02*
X268320Y110777D01*
X273758Y115442D02*
X238400Y115600D01*
X216800Y114200D02*
X174141Y114259D01*
X424402Y214326D02*
X424600Y229600D01*
X424402Y214326D02*
X420400Y208800D01*
X336600Y150000D02*
X330095Y156505D01*
X324404D01*
X459409Y360835D02*
X459400Y367800D01*
X459409Y360835D02*
X455565Y354779D01*
X388863Y325677D02*
X380621Y321224D01*
X410402Y325549D02*
X426548Y325570D01*
X435000Y333493D02*
X434855Y350034D01*
X439324Y354888D01*
X374000Y326000D02*
X371009Y320541D01*
X380621Y321224D02*
X376200Y311600D01*
Y259600D01*
X379298Y256502D01*
X384452D01*
X382898Y246502D02*
X376600Y247000D01*
X374000Y326000D02*
X373800Y342800D01*
X459400Y367800D02*
Y426800D01*
X410402Y325549D02*
X388795Y325556D01*
X426548Y325570D02*
X435000Y333493D01*
X439324Y354888D02*
X446400Y354800D01*
X455565Y354779D01*
X459400Y426800D02*
X464000Y435600D01*
Y558800D01*
X468600Y566000D01*
X516000D01*
X524500Y574500D01*
X533600D01*
X506400Y252800D02*
Y246000D01*
X501800Y241600D01*
X329800Y504800D02*
X325000Y511800D01*
X325200Y498800D02*
Y343200D01*
X325000Y511800D02*
Y520800D01*
Y530000D02*
X327600Y533800D01*
X292600Y514600D02*
X288600D01*
X286200Y518600D01*
X578800Y409600D02*
X592600Y422200D01*
X245383Y146983D02*
X243000Y142600D01*
X245383Y146983D02*
Y153504D01*
X458800Y222800D02*
X473000D01*
X450600Y219000D02*
X447400Y214800D01*
X474000Y228200D02*
X499600Y247000D01*
X474400Y234000D02*
X470600Y232000D01*
X469200Y236400D02*
X471800Y238000D01*
X415400Y176600D02*
X409600Y172400D01*
X474400Y234000D02*
X493600Y249000D01*
X488000Y251800D02*
X471800Y238000D01*
X413600Y182000D02*
X406600Y179400D01*
X413600Y182000D02*
X421000Y186400D01*
X420200Y201000D02*
X407400D01*
X399502Y208802D02*
X393600Y204400D01*
X424600Y229600D02*
X428222Y242496D01*
X455000Y227000D02*
X467000D01*
X464600Y232000D02*
X450400D01*
X446000Y229200D02*
X436600Y216400D01*
X431400Y216800D02*
X442400Y233000D01*
X376600Y247000D02*
X371200Y250000D01*
X299152Y147502D02*
X294600Y147400D01*
X414324Y262524D02*
X436324D01*
X450294Y276494D01*
X371200Y254800D02*
Y250000D01*
X382898Y246502D02*
X384452D01*
X467000Y267600D02*
X471600D01*
X467000D02*
X464000D01*
X454600D02*
X451400D01*
X448800Y265000D01*
Y255600D01*
X451876Y252524D01*
X458378D01*
X420400Y208800D02*
X399502Y208802D01*
X393600Y204400D02*
Y196400D01*
X428378Y241978D02*
Y252524D01*
X447000Y236400D02*
X462000D01*
X488200Y251600D02*
Y377176D01*
X407400Y201000D02*
X401748Y198898D01*
X420200Y201000D02*
X431400Y216800D01*
X462000Y236400D02*
X469200D01*
X488800Y377153D02*
X488788Y391788D01*
X492600Y399400D01*
X467524Y242524D02*
X458378D01*
X467524D02*
X482943Y254343D01*
X482986Y254386D02*
Y385890D01*
X406600Y179400D02*
X398400Y176600D01*
X422200Y180400D02*
X447400Y214800D01*
X441200Y215400D02*
X421000Y186400D01*
X441200Y215400D02*
X446200Y222600D01*
X418400Y191000D02*
X409200Y187200D01*
X499600Y335400D02*
Y349000D01*
Y304200D02*
Y247000D01*
Y349000D02*
Y360600D01*
X512200Y365600D01*
X517200Y387400D02*
X518800Y389000D01*
X529200Y386000D02*
Y382600D01*
X535800Y376000D01*
X554600D01*
X559000Y380400D01*
Y393400D01*
X558400Y394000D01*
X553000D01*
X409200Y187200D02*
X402600Y186600D01*
X393604Y172505D02*
X393600Y165800D01*
X418400Y191000D02*
X436600Y216200D01*
X464600Y232000D02*
X470600D01*
X493800Y308200D02*
Y337400D01*
Y308200D02*
X493700Y249100D01*
X409600Y172400D02*
X399600Y158000D01*
X473000Y222800D02*
X482600Y226800D01*
X494400Y560000D02*
X501709Y559956D01*
X489600Y441200D02*
X476000Y421800D01*
X542600Y414000D02*
X553000D01*
X542600D02*
X537800Y418800D01*
X528200D01*
X518600D02*
X514400D01*
X511400Y421800D01*
X483000Y408200D02*
X482943Y385959D01*
X496748Y421764D02*
X511400Y421800D01*
X393600Y196400D02*
X393652Y172502D01*
X393600Y165800D02*
X389200Y162400D01*
X371600Y156600D02*
X324404Y156505D01*
X584734Y289353D02*
X584816Y366529D01*
X317852Y136502D02*
X310204Y142505D01*
X317852Y136502D02*
X324504Y136405D01*
X541900Y404000D02*
X552900D01*
X517900Y408900D02*
X507521Y399376D01*
X528700Y408800D02*
X541900Y404000D01*
X551400Y493200D02*
X513000Y493300D01*
X564100Y477900D02*
X564000Y444600D01*
X561000Y404000D02*
X552900D01*
X493800Y384600D02*
Y337400D01*
X498400Y394200D02*
X510000D01*
X527800Y399200D02*
X532200D01*
X541300Y384000D02*
X553000D01*
X544700Y337600D02*
X548700Y333600D01*
X544700Y337600D02*
X541000D01*
X527000Y351600D01*
X523000Y355800D02*
Y373800D01*
X578753Y393143D02*
X578800Y409600D01*
X578753Y393143D02*
X578800Y322603D01*
X389800Y136400D02*
X384452Y136502D01*
X482600Y226700D02*
X501800Y241600D01*
X543000Y260000D02*
Y268800D01*
X543100D02*
Y328200D01*
X534200Y337100D01*
X527400D01*
X287152Y201702D02*
Y187702D01*
X288352Y186502D01*
X324452D01*
Y176502D02*
X315752D01*
X305752Y166502D01*
Y166302D01*
X294600Y147400D02*
X286952Y147502D01*
X275052D01*
X268452Y154102D01*
X305852Y154402D02*
X305752Y166302D01*
X507200Y499600D02*
X507300Y532700D01*
X324452Y126502D02*
X318502D01*
X307398Y131720D01*
X235000Y138800D02*
X226200Y144200D01*
X207400D01*
X200400Y234600D02*
X205800Y238800D01*
X299152Y147502D02*
X305852Y154402D01*
X499600Y304200D02*
Y335400D01*
X476000Y359800D02*
Y294000D01*
X207400Y144200D02*
X200200Y155600D01*
X205800Y238800D02*
X217500Y238674D01*
Y238674D02*
X217300Y233043D01*
X219045Y228098D01*
X415400Y176600D02*
X422200Y180400D01*
X395800Y143400D02*
X389800Y136400D01*
X395800Y143400D02*
X399600Y158000D01*
X407239Y141961D02*
Y129521D01*
X446200Y222600D02*
X455000Y227000D01*
X450400Y232000D02*
X446000Y229200D01*
X450600Y219000D02*
X458800Y222800D01*
X447000Y236400D02*
X442400Y233000D01*
X592600Y422200D02*
X606400D01*
X523000Y384000D02*
Y373800D01*
X512000Y378600D02*
X512200Y365600D01*
X512000Y378600D02*
X517200Y387400D01*
X510000Y394200D02*
X517800Y399000D01*
X493800Y388200D02*
Y384600D01*
Y388200D02*
X498400Y394200D01*
X483000Y408200D02*
X496748Y421764D01*
X476000Y276600D02*
X471600Y267600D01*
X489600Y441200D02*
Y554400D01*
X494400Y560000D01*
X548700Y333600D02*
X548600Y286000D01*
Y268400D01*
Y263800D01*
X527000Y351600D02*
X523000Y355800D01*
X506200Y267200D02*
X506400Y252800D01*
X506200Y267200D02*
Y288800D01*
Y311000D01*
X512600Y317000D02*
X527400Y317100D01*
X507461Y399388D02*
X492600Y399400D01*
X474000Y228200D02*
X467000Y227000D01*
X476000Y359800D02*
Y421800D01*
X310600Y514600D02*
X292600D01*
X286200Y518600D02*
Y530200D01*
X281800Y461600D02*
X324800D01*
X325200Y343200D02*
X320400Y338200D01*
X334200Y455400D02*
X345800D01*
X335400Y465200D02*
X360200D01*
X450186Y307352D02*
X450294Y276494D01*
X450186Y307352D02*
X450189Y310468D01*
X325400Y398000D02*
X286000D01*
X324800Y461600D02*
X325400Y462200D01*
X325200Y498800D02*
X310600Y514600D01*
X343400Y404800D02*
X381000Y405000D01*
X367200Y398200D02*
X335400D01*
X320400Y338200D02*
X286800Y338000D01*
X506200Y311000D02*
X512600Y317000D01*
X476000Y294000D02*
Y276600D01*
X468800Y429000D02*
X476600Y440400D01*
X379200Y162200D02*
X371600Y156600D01*
X469000Y290400D02*
X468800Y429000D01*
X324452Y306502D02*
X317102D01*
X312600Y303000D01*
Y228400D01*
X316400Y221800D01*
Y215600D02*
X319600Y212600D01*
X330000Y212400D02*
X356000D01*
X364400Y224400D01*
X369400Y233600D01*
X374200Y241600D01*
X378400Y242400D01*
X388800D02*
X399400D01*
X411400Y252000D01*
Y259600D01*
X414324Y262524D01*
X381000Y348800D02*
X335200Y348600D01*
X333400Y339600D02*
X331400Y337200D01*
X373800Y342800D02*
X381000Y348800D01*
X371000Y309200D02*
Y296600D01*
X371200Y254800D01*
X316400Y221800D02*
Y215600D01*
X335498Y304902D02*
X335600Y315000D01*
X328800Y319200D01*
X371009Y320541D02*
X371000Y309200D01*
X337000Y341600D02*
X333400Y339600D01*
X355400Y341600D02*
X361800Y343600D01*
X355400Y341600D02*
X337000D01*
X351000Y287000D02*
X324452Y286502D01*
X200000Y165400D02*
X184800D01*
X200200Y155600D02*
Y234400D01*
X327600Y533800D02*
X327800Y555600D01*
X325000Y530000D02*
Y520800D01*
X349200Y457800D02*
X345800Y455400D01*
X329400Y424200D02*
X329600Y418800D01*
X361800Y343600D02*
X367400D01*
X329400Y342200D02*
X318000Y331400D01*
X329400Y342200D02*
Y424200D01*
X329600Y418800D02*
X329800Y504800D01*
X551400Y493200D02*
X564000Y477900D01*
X257600Y135400D02*
X249400D01*
X240600D02*
X235000Y138800D01*
X469000Y285600D02*
Y290400D01*
X543000Y260000D02*
X544564Y251099D01*
X595200Y267600D02*
X607500Y267558D01*
X584600Y282600D02*
X584800Y289400D01*
X584600Y282600D02*
X595200Y267600D01*
X552020Y258734D02*
X548600Y263800D01*
X541300Y384000D02*
X532200Y399200D01*
X513000Y493200D02*
X507200Y499600D01*
X564000Y444500D02*
Y409600D01*
X561000Y404000D01*
X328800Y330600D02*
Y319200D01*
X324354Y296405D02*
X364000Y296800D01*
X364600Y256600D02*
X324350D01*
X324452Y266502D02*
X319298D01*
X316800Y269000D01*
Y289400D01*
Y298000D01*
Y301200D01*
X171976Y448400D02*
Y448824D01*
D22*
X476600Y440400D02*
Y512400D01*
X233200Y159800D02*
X237800Y153600D01*
X233200Y159800D02*
Y169200D01*
X417924Y272524D02*
X439124D01*
X417924D02*
X411902Y266502D01*
X384452D01*
X439124Y272524D02*
X443400Y276800D01*
Y299600D01*
X442200Y300800D01*
X436600Y304200D01*
X430589Y311639D01*
X435724Y282524D02*
X417524D01*
X435724D02*
X436876Y285476D01*
X437000Y296800D01*
X433400Y299800D01*
X423600D01*
X420494Y303506D01*
X420484Y311802D01*
X417524Y282524D02*
X411502Y276502D01*
X384452D01*
X415724Y292524D02*
X410589Y301109D01*
X410494Y301154D02*
X410589Y311468D01*
X415724Y292524D02*
X428378D01*
X415724D02*
X409702Y286502D01*
X384452D01*
X465476Y260324D02*
X474175Y260342D01*
X390702Y126502D02*
X384452D01*
X390702D02*
X393721Y129521D01*
X407277Y129443D01*
X458378Y262524D02*
X465476Y260324D01*
X233000Y217000D02*
X233200Y169200D01*
X514008Y261428D02*
X514000Y280800D01*
X245383Y153504D02*
X237800Y153600D01*
X227600Y235400D02*
X227400Y239600D01*
X227600Y235400D02*
Y222000D01*
X233000Y217000D01*
X520400Y287200D02*
X527400Y287100D01*
X227400Y245400D02*
Y239600D01*
Y245400D02*
X232400Y250400D01*
X255800D01*
X267800Y263800D01*
X268000Y321800D01*
X281000Y336000D02*
X286800Y338000D01*
X281000Y336000D02*
Y342600D01*
Y336000D02*
X268000Y321800D01*
X514000Y280800D02*
X520400Y287200D01*
X469000Y285600D02*
X467200Y281000D01*
D23*
X172376Y369000D02*
X159000Y380800D01*
X166800Y400000D02*
X183528Y385248D01*
X148600Y326400D02*
X158400Y317200D01*
X148600Y326400D02*
X135376Y326424D01*
X207000Y329600D02*
X206893Y319037D01*
X205590Y335098D02*
X214793Y341255D01*
X207000Y300524D02*
X207000Y300447D01*
X206919Y279206D01*
X207000Y300447D02*
X207000Y300447D01*
X184800Y316000D01*
X198200Y279200D02*
X206862D01*
X247200Y304200D02*
X257061Y310491D01*
X247600Y335268D02*
X254668Y341591D01*
X247600Y335268D02*
X247740Y327837D01*
X205104Y366800D02*
X197000D01*
X197200Y443800D02*
X204734D01*
X206200Y520700D02*
X198200D01*
X201936Y532632D02*
X202068Y545732D01*
X201936Y532632D02*
Y532632D01*
X201936Y532632D02*
X201936Y532632D01*
X201868Y532700D01*
X206400Y529700D02*
Y520900D01*
X214800Y416496D02*
X212400Y410200D01*
X205400Y407096D01*
X214800Y416496D02*
Y423825D01*
X205749Y335202D02*
X207000Y329600D01*
X205339Y367157D02*
Y377490D01*
X214800Y384304D01*
X214800Y423825D02*
X195800Y423800D01*
X205200Y484266D02*
X212866D01*
X215803Y487803D01*
Y495543D01*
X200246Y500666D02*
X193000Y500600D01*
X212200Y530000D02*
X215800Y533200D01*
Y537864D01*
X205068Y530032D02*
X201936Y532632D01*
X206300Y560900D02*
X215700Y566100D01*
Y574332D01*
X215600Y574400D02*
Y581200D01*
X209000Y579400D02*
X200054Y579346D01*
X200078Y579354D02*
X189000Y579400D01*
X577000Y184400D02*
X586158Y184397D01*
X560000Y113000D02*
X556800Y108200D01*
X545800Y108000D01*
X560400Y122200D02*
Y133800D01*
X569600Y145200D02*
X569551Y178649D01*
X545800Y108000D02*
X537497Y108023D01*
X448039Y115981D02*
X447439Y130521D01*
X586158Y184397D02*
X620020Y184500D01*
X537297Y108023D02*
X456397Y108223D01*
X560400Y133800D02*
X569600Y145200D01*
X569454Y178746D02*
X577000Y184400D01*
X504300Y405000D02*
X504000Y405300D01*
X517900Y434000D02*
X523000D01*
X517900D02*
X514400Y430500D01*
X503800D01*
Y440500D02*
X509400D01*
X513800Y444900D01*
Y452400D01*
X515400Y454000D01*
X523000D01*
X448077Y115962D02*
X456390Y108268D01*
X560000Y113000D02*
X560400Y122200D01*
X180586Y325614D02*
X171994D01*
X180586D02*
X184800Y316000D01*
X183552Y335200D02*
X205656Y335103D01*
X214793Y341255D02*
X214693Y351430D01*
X183552Y415600D02*
X190504Y422104D01*
X190437Y422200D02*
X195800Y423800D01*
X182400Y408800D02*
X172152Y409000D01*
X182400Y408800D02*
X193600Y397600D01*
Y386428D01*
X205271Y377586D01*
X214974Y423996D02*
X214804Y432956D01*
X245000Y379000D02*
X244896Y371499D01*
X251961Y382784D02*
X255057Y390589D01*
X244939Y407313D02*
Y418339D01*
X247710Y421110D01*
X254970Y423820D01*
X171976Y476024D02*
Y488400D01*
Y476024D02*
X189200Y458800D01*
X195312D01*
X205000Y453200D01*
X215206Y495287D02*
X207923Y500743D01*
X200246Y500666D01*
X193000Y500600D02*
X188391Y498666D01*
X183833Y488308D01*
X202068Y545732D02*
X187300Y560500D01*
X171628Y566100D01*
X182837Y573046D02*
X189000Y579400D01*
X215600Y581200D02*
X215300Y587068D01*
X248800Y530400D02*
X248600Y520800D01*
X255700Y562300D02*
X255600Y574264D01*
X205000Y453200D02*
X205046Y444266D01*
X276400Y513200D02*
X276600Y355600D01*
X276800Y513000D02*
Y536600D01*
Y537200D02*
Y559400D01*
X289600Y573600D01*
X348816D01*
X357576Y564840D01*
Y553752D01*
X374048D01*
X383932Y543868D01*
Y538654D01*
X383921Y538642D01*
Y513509D01*
X317600Y331000D02*
X309800D01*
X248900Y556868D02*
X255700Y562300D01*
X255800Y537864D02*
X248800Y530400D01*
X215568Y574432D02*
X209000Y579400D01*
X212200Y530000D02*
X205068Y530032D01*
X214789Y461304D02*
X205000Y453200D01*
X215738Y495608D02*
Y506270D01*
X254885Y461296D02*
Y449063D01*
X248657Y442835D01*
X214921Y390580D02*
X214800Y384304D01*
X245000Y379000D02*
X251961Y382784D01*
X216938Y310429D02*
X207020Y300510D01*
X247200Y304200D02*
X247220Y294502D01*
X450461Y311734D02*
X450152Y336378D01*
X135300Y326700D02*
X123000Y322600D01*
X158400Y317200D02*
X170600Y314600D01*
X184000Y302600D01*
X183800D02*
X183776Y295200D01*
X146800Y306400D02*
X123200D01*
X146800D02*
X158000Y304600D01*
X171200Y296400D01*
X171394Y296406D02*
Y285414D01*
X135300Y400300D02*
X122800Y396200D01*
X135300Y400500D02*
X166200Y400400D01*
X183552Y385224D02*
Y375200D01*
X159000Y380800D02*
X122200Y380600D01*
X123300Y470400D02*
X135700Y474400D01*
X135300Y474500D02*
X161800Y474400D01*
X183633Y448708D01*
X157276Y454700D02*
X134500D01*
X156876Y454900D02*
X171976Y448400D01*
X135800Y454800D02*
X123600D01*
X123000Y544000D02*
X135200Y548400D01*
X135000Y548200D02*
X161100Y548100D01*
X161000Y548000D02*
X182837Y539563D01*
Y533046D01*
X164528Y528800D02*
X122200D01*
X164456D02*
X171628Y526100D01*
D25*
X518300Y534800D02*
D03*
X578800Y322603D02*
D03*
X552020Y258734D02*
D03*
X584816Y366429D02*
D03*
X398400Y176600D02*
D03*
X402600Y186600D02*
D03*
X512876Y527800D02*
D03*
X501709Y559956D02*
D03*
X507300Y532700D02*
D03*
X568200Y530600D02*
D03*
X281600Y542000D02*
D03*
X286400Y530200D02*
D03*
X281800Y473800D02*
D03*
Y461600D02*
D03*
X276800Y474400D02*
D03*
X281400Y409200D02*
D03*
X276800Y405800D02*
D03*
X281200Y353400D02*
D03*
X327800Y555600D02*
D03*
X329600Y485200D02*
D03*
X281000Y342600D02*
D03*
X335400Y465200D02*
D03*
X360200D02*
D03*
X334200Y455400D02*
D03*
X349200Y457800D02*
D03*
X329400Y424200D02*
D03*
X286000Y398000D02*
D03*
X343400Y404800D02*
D03*
X381000Y405000D02*
D03*
X335400Y398200D02*
D03*
X367200D02*
D03*
X329400Y368200D02*
D03*
X401252Y198702D02*
D03*
X467200Y281000D02*
D03*
X335200Y348600D02*
D03*
X381000Y348800D02*
D03*
X331400Y337200D02*
D03*
X367400Y343600D02*
D03*
X364000Y296800D02*
D03*
X276600Y355800D02*
D03*
X276800Y539200D02*
D03*
X328800Y330600D02*
D03*
X351000Y287000D02*
D03*
X364600Y256600D02*
D03*
D26*
X606000Y117400D02*
X626000Y117500D01*
X629200Y416800D02*
X618500D01*
X629200D02*
X633600Y421200D01*
Y454000D01*
X623000Y464600D01*
X600200D01*
X590000D02*
X581600Y479200D01*
X167469Y251331D02*
Y243082D01*
Y251331D02*
X162931Y255869D01*
X147718D01*
X187918D02*
X195293D01*
X211600Y255800D01*
X227000Y260162D01*
X590000Y464600D02*
X600200D01*
D28*
X157538Y213564D02*
X157469Y201469D01*
X132300Y188832D02*
Y169132D01*
X132023Y189232D02*
X144264Y189264D01*
X151400Y189600D02*
X132023Y189232D01*
X151400Y189600D02*
X157600Y195600D01*
X157538Y201538D01*
X132082Y200482D02*
X132100Y189300D01*
X519900Y215800D02*
Y230276D01*
D30*
X489900Y185800D02*
X489823Y176903D01*
X489600Y171800D02*
X473000D01*
X519900Y215800D02*
X533200D01*
X597500Y545900D02*
D03*
X589000Y536500D02*
D03*
X597500D02*
D03*
D32*
X274158Y115574D02*
D03*
X268260Y110689D02*
D03*
X314158Y115574D02*
D03*
X228260Y110689D02*
D03*
D34*
X274574Y213443D02*
D03*
Y253443D02*
D03*
X198200Y279200D02*
D03*
X198000Y319000D02*
D03*
X183576Y335200D02*
D03*
X197000Y366800D02*
D03*
X197200Y443800D02*
D03*
X198200Y520700D02*
D03*
X197000Y407000D02*
D03*
X197200Y484000D02*
D03*
X198200Y561000D02*
D03*
X384252Y257302D02*
D03*
X566500Y543800D02*
D03*
X512300Y544700D02*
D03*
X581600Y489200D02*
D03*
X557400Y337100D02*
D03*
X607500Y278400D02*
D03*
X553000Y454000D02*
D03*
X543000Y467600D02*
D03*
X547900Y350400D02*
D03*
X519900Y215800D02*
D03*
X336200Y548800D02*
D03*
X337869Y477082D02*
D03*
X503800Y467800D02*
D03*
X338145Y416929D02*
D03*
X337800Y360000D02*
D03*
X384252Y307302D02*
D03*
Y227302D02*
D03*
X397652Y116502D02*
D03*
X384252Y117302D02*
D03*
X324252Y207302D02*
D03*
X245498Y226690D02*
D03*
X245383Y213504D02*
D03*
Y203504D02*
D03*
X215383Y193504D02*
D03*
X245383Y183504D02*
D03*
X215383Y173504D02*
D03*
X573600Y574500D02*
D03*
X578600Y561300D02*
D03*
X566500Y553800D02*
D03*
X533000Y467600D02*
D03*
X451572Y556079D02*
D03*
X336200Y558800D02*
D03*
X502300Y544700D02*
D03*
X337869Y487082D02*
D03*
X607500Y411400D02*
D03*
X557400Y327100D02*
D03*
X607500Y289300D02*
D03*
X557400Y297100D02*
D03*
X553000Y444000D02*
D03*
X537900Y350400D02*
D03*
X460152Y336378D02*
D03*
X527400Y277100D02*
D03*
X458378Y292524D02*
D03*
X618500Y262100D02*
D03*
X489900Y215800D02*
D03*
Y205800D02*
D03*
X338145Y426929D02*
D03*
X337800Y370000D02*
D03*
X458378Y282524D02*
D03*
Y272524D02*
D03*
X416852Y216502D02*
D03*
X407652Y116502D02*
D03*
X397952Y216502D02*
D03*
X384252Y297302D02*
D03*
Y217302D02*
D03*
X342496Y516324D02*
D03*
X324252Y197302D02*
D03*
Y117302D02*
D03*
X310062Y320700D02*
D03*
X235498Y226690D02*
D03*
X209045Y228098D02*
D03*
X215383Y153504D02*
D03*
X177469Y213082D02*
D03*
X142082Y201531D02*
D03*
X184800Y155400D02*
D03*
X142300Y169132D02*
D03*
X171628Y566100D02*
D03*
X182837Y573046D02*
D03*
X618500Y251200D02*
D03*
Y273000D02*
D03*
Y283900D02*
D03*
X607500Y267500D02*
D03*
Y256600D02*
D03*
X243000Y142600D02*
D03*
X519900Y205800D02*
D03*
Y195800D02*
D03*
X310062Y330700D02*
D03*
X607500Y433200D02*
D03*
Y422300D02*
D03*
X618500Y449500D02*
D03*
Y438600D02*
D03*
Y427700D02*
D03*
X607500Y444100D02*
D03*
X440494Y311734D02*
D03*
X450494D02*
D03*
X410494D02*
D03*
X420494D02*
D03*
X430494D02*
D03*
X244936Y371409D02*
D03*
X267487Y398332D02*
D03*
Y418332D02*
D03*
X215383Y183504D02*
D03*
Y163504D02*
D03*
X245383Y153504D02*
D03*
Y173504D02*
D03*
Y193504D02*
D03*
Y163504D02*
D03*
X215383Y203504D02*
D03*
X254885Y423910D02*
D03*
X257020Y310463D02*
D03*
X254934Y342395D02*
D03*
X244939Y407313D02*
D03*
X247220Y294502D02*
D03*
X247740Y327768D02*
D03*
X504000Y405300D02*
D03*
X503800Y430500D02*
D03*
X578600Y551300D02*
D03*
X447239Y129521D02*
D03*
X407239D02*
D03*
X286952Y187502D02*
D03*
Y147502D02*
D03*
X573384Y585158D02*
D03*
X533384D02*
D03*
X533600Y574500D02*
D03*
X458378Y262524D02*
D03*
X428378D02*
D03*
X458378Y252524D02*
D03*
Y242524D02*
D03*
X428378Y252524D02*
D03*
Y242524D02*
D03*
Y282524D02*
D03*
Y272524D02*
D03*
X310200Y142600D02*
D03*
X523000Y384000D02*
D03*
X553000Y424000D02*
D03*
X523000Y394000D02*
D03*
X553000Y434000D02*
D03*
X523000Y404000D02*
D03*
Y444000D02*
D03*
Y434000D02*
D03*
Y414000D02*
D03*
Y424000D02*
D03*
X553000Y414000D02*
D03*
Y404000D02*
D03*
Y384000D02*
D03*
Y394000D02*
D03*
X527400Y327100D02*
D03*
Y297100D02*
D03*
X557400Y277100D02*
D03*
Y287100D02*
D03*
Y307100D02*
D03*
Y317100D02*
D03*
X527400Y287100D02*
D03*
Y317100D02*
D03*
Y307100D02*
D03*
X305752Y166502D02*
D03*
Y186502D02*
D03*
X489900Y195800D02*
D03*
Y185800D02*
D03*
X257500Y238674D02*
D03*
X267466Y131727D02*
D03*
X217500Y238674D02*
D03*
X307466Y131727D02*
D03*
X175300Y587068D02*
D03*
X215300D02*
D03*
X215700Y574332D02*
D03*
X248600Y520800D02*
D03*
X248700Y556868D02*
D03*
X255700Y574332D02*
D03*
X269932Y549700D02*
D03*
Y529700D02*
D03*
X219045Y228098D02*
D03*
X206400Y520900D02*
D03*
Y560900D02*
D03*
X167469Y213082D02*
D03*
X177469Y243082D02*
D03*
X157469D02*
D03*
X147469D02*
D03*
X132082Y201531D02*
D03*
X157469Y213082D02*
D03*
X167469Y243082D02*
D03*
X140100Y189132D02*
D03*
X618500Y416800D02*
D03*
X174700Y351415D02*
D03*
X174902Y432878D02*
D03*
X206959Y319103D02*
D03*
X214700Y351415D02*
D03*
X214934Y342395D02*
D03*
X206959Y279103D02*
D03*
X171394Y325614D02*
D03*
X217020Y310463D02*
D03*
X205400Y407096D02*
D03*
X214902Y432878D02*
D03*
X214885Y423910D02*
D03*
X172176Y409000D02*
D03*
X205400Y367096D02*
D03*
X184033Y488508D02*
D03*
X205200Y444266D02*
D03*
Y484266D02*
D03*
X187918Y255869D02*
D03*
X147918D02*
D03*
X504000Y384600D02*
D03*
X183576Y415600D02*
D03*
X214961Y390490D02*
D03*
X254961D02*
D03*
X215738Y506270D02*
D03*
X175738D02*
D03*
X171976Y488400D02*
D03*
X248657Y442835D02*
D03*
X248592Y478765D02*
D03*
X269370Y462838D02*
D03*
Y482838D02*
D03*
X214885Y461296D02*
D03*
X254885D02*
D03*
X215803Y495543D02*
D03*
X255803Y495543D02*
D03*
X357524Y553700D02*
D03*
X267430Y361090D02*
D03*
Y341090D02*
D03*
X324252Y127302D02*
D03*
Y137302D02*
D03*
Y177302D02*
D03*
Y187302D02*
D03*
X384252Y137302D02*
D03*
X324252Y167302D02*
D03*
X384252Y187302D02*
D03*
Y177302D02*
D03*
Y157302D02*
D03*
X324252Y297302D02*
D03*
Y287302D02*
D03*
Y277302D02*
D03*
Y267302D02*
D03*
Y257302D02*
D03*
Y247302D02*
D03*
Y147302D02*
D03*
X384252Y197302D02*
D03*
Y207302D02*
D03*
Y237302D02*
D03*
X324252Y157302D02*
D03*
X384252Y287302D02*
D03*
Y277302D02*
D03*
Y267302D02*
D03*
Y167302D02*
D03*
Y147302D02*
D03*
Y127302D02*
D03*
Y247302D02*
D03*
X324252Y217302D02*
D03*
Y237302D02*
D03*
Y227302D02*
D03*
X357576Y564840D02*
D03*
X510100Y230676D02*
D03*
X520100D02*
D03*
X561400Y217500D02*
D03*
X255900Y537932D02*
D03*
X215900D02*
D03*
X302055Y266446D02*
D03*
Y276446D02*
D03*
Y286446D02*
D03*
Y296446D02*
D03*
X183576Y295200D02*
D03*
X171394Y285614D02*
D03*
X183576Y375600D02*
D03*
X172176Y369000D02*
D03*
X184033Y448508D02*
D03*
X171976Y448400D02*
D03*
X182837Y533046D02*
D03*
X171628Y526100D02*
D03*
D35*
X302055Y256446D02*
D03*
D36*
X526636Y167982D02*
D03*
X620000Y194500D02*
D03*
X489136Y130482D02*
D03*
D38*
X598400Y133800D02*
X598300Y153200D01*
X490000Y195800D02*
X471800Y195600D01*
X585700Y124100D02*
X598400Y133800D01*
X168259Y125300D02*
D03*
X183859D02*
D03*
X199459D02*
D03*
X215059D02*
D03*
X473958Y260574D02*
D03*
X476626Y512558D02*
D03*
Y552558D02*
D03*
X513958Y260574D02*
D03*
X585842Y124026D02*
D03*
X473174Y171642D02*
D03*
X545842Y124026D02*
D03*
X473174Y211643D02*
D03*
X407576Y564840D02*
D03*
X397952Y226502D02*
D03*
X447000Y170800D02*
D03*
X309152Y214902D02*
D03*
X190100Y189132D02*
D03*
X393932Y538654D02*
D03*
X357524Y543700D02*
D03*
X393921Y513509D02*
D03*
X597800Y110400D02*
D03*
X581200D02*
D03*
X447400Y153800D02*
D03*
X228700Y556868D02*
D03*
X228600Y520800D02*
D03*
X228592Y478765D02*
D03*
X228657Y442835D02*
D03*
X309152Y204902D02*
D03*
X224936Y371409D02*
D03*
X224939Y407313D02*
D03*
X227740Y327768D02*
D03*
X227220Y294502D02*
D03*
X268452Y176102D02*
D03*
X202731Y245718D02*
D03*
X606400Y117400D02*
D03*
X287152Y201702D02*
D03*
X268452Y154102D02*
D03*
X265152Y201702D02*
D03*
X544600Y251000D02*
D03*
X407200Y142000D02*
D03*
D43*
X489136Y131082D02*
X489336Y178664D01*
X549600Y145000D02*
X549900Y136400D01*
X549600Y145000D02*
X558800Y161700D01*
X550836Y216988D02*
X534762Y217190D01*
X531761Y217228D01*
X549900Y136400D02*
X545800Y124200D01*
X545500Y123200D02*
X529600Y117184D01*
X460400Y172100D02*
Y185400D01*
Y172100D02*
Y141400D01*
Y141384D02*
X467400Y127200D01*
X460400Y185400D02*
X471600Y194800D01*
X482800Y117800D02*
X529800Y117792D01*
X482800Y117800D02*
X467400Y127200D01*
X558900Y179800D02*
D03*
X147000Y137000D02*
D03*
X227000Y260200D02*
D03*
X146200Y116800D02*
D03*
D48*
X123000Y380600D02*
D03*
X135300Y306800D02*
D03*
Y326500D02*
D03*
Y287100D02*
D03*
X123000Y513100D02*
D03*
Y439200D02*
D03*
Y365000D02*
D03*
Y291200D02*
D03*
X135300Y509100D02*
D03*
Y435100D02*
D03*
Y361100D02*
D03*
X123000Y454800D02*
D03*
Y470400D02*
D03*
Y396200D02*
D03*
Y306800D02*
D03*
Y322400D02*
D03*
Y544300D02*
D03*
Y528800D02*
D03*
X135300Y400500D02*
D03*
Y380800D02*
D03*
Y474500D02*
D03*
Y454800D02*
D03*
Y548500D02*
D03*
Y528800D02*
D03*
D50*
X609600Y517300D02*
D03*
Y565100D02*
D03*
D53*
X534762Y217190D02*
X534756Y215793D01*
X534800Y181800D02*
X526872Y168364D01*
X534800Y181800D02*
X534756Y215793D01*
X620800Y153600D02*
D03*
D58*
X598800Y152600D02*
D03*
D61*
X626000Y117500D02*
D03*
X613000Y482500D02*
D03*
X612500Y383900D02*
D03*
Y316800D02*
D03*
X613000Y218200D02*
D03*
X117500Y117500D02*
D03*
X626000Y582500D02*
D03*
X117500D02*
D03*
X410000Y350000D02*
D03*
D63*
X589000Y545900D02*
D03*
D65*
X441572Y556079D02*
D03*
X332496Y516324D02*
D03*
X460494Y311734D02*
D03*
X215383Y213504D02*
D03*
X504000Y374600D02*
D03*
X607500Y245700D02*
D03*
X519900Y185800D02*
D03*
X607500Y455000D02*
D03*
X504000Y415300D02*
D03*
X503800Y440500D02*
D03*
Y457800D02*
D03*
X428378Y292524D02*
D03*
X523000Y454000D02*
D03*
X527400Y337100D02*
D03*
X184800Y165400D02*
D03*
X132300Y169132D02*
D03*
X147469Y213082D02*
D03*
X202731Y255718D02*
D03*
X581600Y479200D02*
D03*
X450152Y336378D02*
D03*
X324252Y307302D02*
D03*
X551400Y217500D02*
D03*
X302055Y306446D02*
D03*
D66*
X620000Y184500D02*
D03*
D68*
X416852Y226502D02*
D03*
X383932Y538654D02*
D03*
X383921Y513509D02*
D03*
X558900Y161800D02*
D03*
M02*
