M72
M48
T1F00S00C0.020
T2F00S00C0.032
T3F00S00C0.052
T4F00S00C0.062
T5F00S00C0.075
T6F00S00C0.100
T7F00S00C0.120
T8F00S00C0.156
%
T01
X0552Y02587
X04672Y0281
X0364Y02968
X0351Y0287
X03646Y02566
X04013Y01987
X04026Y01866
X03984Y01766
X0281Y03426
X02812Y03534
X02766Y03558
X02768Y04058
X02814Y04092
X0286Y0398
X02818Y04616
X03354Y04652
X03342Y04554
X03492Y04578
X03602Y04652
X03294Y04242
X03354Y03982
X03434Y04048
X03672Y03982
X0381Y0405
Y03488
X03674Y03436
X03352Y03486
X03314Y03372
X03288Y03306
X03294Y03682
X05848Y03664
X05788Y03226
X05682Y05306
X05183Y05348
X05129Y05278
X05073Y05327
X05017Y056
X03278Y05556
X03296Y04852
X02818Y04738
X02768Y04744
Y05392
X02816Y0542
X02864Y05302
T02
X02283Y01107
X02683
X02742Y01156
X02675Y01317
X0287Y01475
X03102Y01426
X03075Y01317
X0243Y01426
X02454Y01535
X02154Y01535
X01848Y01554
X03243Y01473
Y01373
Y01273
Y01173
X03142Y01156
X03843Y01173
Y01273
Y01373
Y01473
X04072Y01295
X04077Y01165
X03977
X04472Y01295
X04891Y01305
X04899Y01858
Y01958
Y02058
Y02158
X05199
Y02058
Y01958
Y01858
X05266Y0168
X05201Y02307
X05101
X05514Y02175
X05614
X05574Y02771
Y02871
Y02971
Y03071
X05274
Y02971
Y02871
Y02771
X06075Y02784
Y02893
X06185Y02839
Y0273
Y02621
Y02512
X06075Y02566
Y02457
Y02675
X062Y01945
Y01845
X04584Y02425
Y02525
Y02625
X04584Y02725
Y02825
Y02925
X04605Y03117
X04505
X04405
X04305
X04205
X04105
X03843Y03073
Y02973
Y02873
Y02773
Y02673
Y02573
Y02473
Y02373
Y02273
Y02173
Y02073
Y01973
Y01873
Y01773
Y01673
Y01573
X03243
Y01673
Y01773
Y01873
Y01973
X03243Y02073
X03243Y02173
Y02273
Y02373
Y02473
Y02573
Y02673
Y02773
Y02873
Y02973
Y03073
X04284Y02925
Y02825
Y02725
Y02625
Y02525
Y02425
X04169Y02265
X04169Y02165
X0398
X0398Y02265
X03092Y02149
Y02049
X03058Y01865
X0287Y01875
X02746Y02134
X02454Y02135
Y02035
X02454Y01935
Y01835
Y01735
Y01635
X02154Y01635
Y01735
Y01835
Y01935
Y02035
Y02135
X0219Y02281
X0209Y02281
X02175Y02387
X02027Y02457
X02027Y02557
X01879Y02559
X01775Y02431
X01675
X01575
Y02131
X01675
X01775
X01901Y01891
X01848Y01654
X02355Y02267
X02455
X02575Y02387
X02746Y02534
X03021Y02564
Y02664
Y02764
Y02864
Y02964
Y03064
X0257Y03105
X02472Y02945
X02272
X0217Y03105
X0207Y02791
X01982Y02792
X01836Y02952
X01714Y02856
X03058Y01665
X01423Y01691
X01323
X01401Y01891
X01421Y02015
X01321
X01475Y02131
Y02431
X01479Y02559
X01714Y03256
X01836Y03352
X01747Y03514
X01722Y0369
X01836Y03756
X0197Y03668
X02054Y03671
X02249Y03714
X02449
X0255Y03905
X02675Y03983
Y04183
X02549Y04239
X02487Y04428
X02287
X02149Y04329
X02149Y04239
X02054Y04071
X0197Y0407
X01836Y04156
X01722Y0409
X01749Y04329
X0172Y04484
X0184Y04485
X01972Y04438
X02052Y04443
X02149Y04613
X02549
X02694Y04628
X02449Y04073
X02249
X0215Y03905
X02147Y03514
X02149Y03424
X02277Y03278
X02477
X02549Y03424
X02674Y03411
Y03611
X03101Y03307
Y03207
X0207Y03191
X0198Y0319
X03378Y036
Y037
X03381Y04169
Y04269
X04502Y03364
X04602
X05274Y03371
Y03271
Y03171
X05574
Y03271
Y03371
X05479Y03504
X05379
X0523Y0384
Y0394
Y0404
Y0414
Y0424
Y0434
Y0444
Y0454
X05038Y04578
Y04678
Y04405
Y04305
X0504Y04153
Y04053
Y03846
Y03746
X0553Y0384
Y0394
Y0404
Y0414
Y0424
Y0434
Y0444
Y0454
X0543Y04676
X0533
X06075Y0455
Y04441
Y04332
Y04223
Y04114
X06185Y04168
Y04277
Y04386
Y04495
X05816Y04792
Y04892
X0589Y05365
X05975
Y05459
X0589
X05786Y05513
Y05613
X05736Y05745
X05734Y05852
X05665Y05538
Y05438
X05123Y05447
X05023
X05336Y05745
X05334Y05852
X04516Y05561
X04416
X04076Y05648
X03939Y05387
X03839
X03839Y05135
X03939
X03425Y05163
X03325
X03379Y04871
Y04771
X03362Y05488
Y05588
X03575Y05537
Y05437
X03576Y05648
X02699Y05497
Y05297
X02559Y05379
X02486Y05208
X02286
X02064Y05209
X01982Y05207
X01828Y0533
X01716Y05261
X01757Y05063
X0172Y04884
X0184Y04885
X01972Y0484
X02052Y04843
X02158Y04955
X02157Y05063
X02159Y05379
X02287Y05569
X02487Y05569
X02557Y05743
X02157
X02153Y05871
X02064Y05609
X01982Y0561
X01828Y0573
X01716Y05661
X01753Y05871
X02286Y04788
X02486
X02558Y04955
X02694Y04828
T03
X01462Y01168
X0147Y0137
X01683Y01253
X01839
X01995
X02151
X02685Y01541
X04072Y0142
X04474Y01538
X05458Y0124
X05858
X05812Y01104
X05978
X06064Y01174
X05589Y01618
Y01798
X05446Y0251
X0514Y02606
X0474
X04732Y02116
Y01716
X0447Y01708
X02685Y01761
X02652Y02017
X02872
X0227Y02602
X04766Y05126
Y05526
T04
X01353Y02871
Y03068
Y03265
Y03611
Y03808
Y04005
Y04351
Y04548
Y04745
Y05091
Y05288
Y05485
T05
X0123Y02912
Y03068
Y03224
Y0365
Y03806
Y03962
Y04392
Y04548
Y04704
Y05131
Y05288
Y05443
T06
X06208Y01536
X06096Y05173
Y05651
T07
X01175Y01175
X05988Y01526
X0626Y01175
X041Y035
X0626Y05825
X01175
T08
X0613Y02182
X06125Y03168
Y03839
X0613Y04825
M30
