*%FSLAX25Y25*%
*%MOIN*%
G01*
%ADD11C,0.00500*%
%ADD12C,0.00600*%
%ADD13C,0.00733*%
%ADD14C,0.00800*%
%ADD15C,0.00900*%
%ADD16C,0.01000*%
%ADD17C,0.01200*%
%ADD18C,0.01500*%
%ADD19C,0.01600*%
%ADD20C,0.01969*%
%ADD21C,0.02000*%
%ADD22C,0.02500*%
%ADD23C,0.03000*%
%ADD24C,0.03200*%
%ADD25C,0.03800*%
%ADD26C,0.04000*%
%ADD27C,0.04600*%
%ADD28C,0.05000*%
%ADD29C,0.05200*%
%ADD30C,0.06000*%
%ADD31C,0.06000*%
%ADD32C,0.06200*%
%ADD33C,0.06800*%
%ADD34C,0.07000*%
%ADD35C,0.07200*%
%ADD36C,0.07500*%
%ADD37C,0.07800*%
%ADD38C,0.08000*%
%ADD39C,0.08000*%
%ADD40C,0.08300*%
%ADD41C,0.08800*%
%ADD42C,0.09200*%
%ADD43C,0.10000*%
%ADD44C,0.10000*%
%ADD45C,0.10200*%
%ADD46C,0.10800*%
%ADD47C,0.11500*%
%ADD48C,0.12000*%
%ADD49C,0.12800*%
%ADD50C,0.13000*%
%ADD51C,0.13800*%
%ADD52C,0.14000*%
%ADD53C,0.15000*%
%ADD54C,0.15000*%
%ADD55C,0.15600*%
%ADD56C,0.15800*%
%ADD57C,0.16000*%
%ADD58C,0.18000*%
%ADD59C,0.18800*%
%ADD60C,0.19600*%
%ADD61C,0.25000*%
%ADD62C,0.25000*%
%ADD63R,0.06000X0.06000*%
%ADD64R,0.06800X0.06800*%
%ADD65R,0.07000X0.07000*%
%ADD66R,0.07500X0.07500*%
%ADD67R,0.07800X0.07800*%
%ADD68R,0.08000X0.08000*%
%ADD69R,0.08300X0.08300*%
%ADD70R,0.08800X0.08800*%
%ADD71O,0.07274X0.00975*%
%ADD72O,0.07274X0.00975*%
%ADD73O,0.07874X0.01575*%
%ADD74O,0.07874X0.01575*%
%ADD75O,0.08674X0.02375*%
%ADD76O,0.08674X0.02375*%
D11*
X618500Y115000D02*
X620166D01*
X619333D01*
Y119998D01*
X619334D01*
X619333D02*
X618500Y119165D01*
X622665Y115000D02*
X625998D01*
X622665D02*
X625998Y118332D01*
Y119165D01*
X625164Y119998D01*
X623498D01*
X622665Y119165D01*
X627664D02*
X628497Y119998D01*
X630163D01*
X630996Y119165D01*
Y115833D01*
X630163Y115000D01*
X628497D01*
X627664Y115833D01*
Y119165D01*
X121332Y383098D02*
X118000D01*
X121332D02*
Y382265D01*
X118000Y378933D01*
Y378100D01*
X122998Y383098D02*
X126331D01*
X122998D02*
Y380599D01*
X124664Y381432D01*
X125498D01*
X126331Y380599D01*
Y378933D01*
X125498Y378100D01*
X123831D01*
X122998Y378933D01*
X133632Y309298D02*
X131966Y308465D01*
X130300Y306799D01*
Y305133D01*
X131133Y304300D01*
X132799D01*
X133632Y305133D01*
Y305966D01*
X132799Y306799D01*
X130300D01*
X135298Y304300D02*
X138631D01*
X135298D02*
X138631Y307632D01*
Y308465D01*
X137798Y309298D01*
X136131D01*
X135298Y308465D01*
X131966Y328165D02*
X133632Y328998D01*
X131966Y328165D02*
X130300Y326499D01*
Y324833D01*
X131133Y324000D01*
X132799D01*
X133632Y324833D01*
Y325666D01*
X132799Y326499D01*
X130300D01*
X135298Y324000D02*
X138631D01*
X135298D02*
X138631Y327332D01*
Y328165D01*
X137798Y328998D01*
X136131D01*
X135298Y328165D01*
X133632Y289598D02*
X131966Y288765D01*
X130300Y287099D01*
Y285433D01*
X131133Y284600D01*
X132799D01*
X133632Y285433D01*
Y286266D01*
X132799Y287099D01*
X130300D01*
X135298Y284600D02*
X138631D01*
X135298D02*
X138631Y287932D01*
Y288765D01*
X137798Y289598D01*
X136131D01*
X135298Y288765D01*
X269991Y118072D02*
X269158Y117239D01*
X269991Y118072D02*
X271657D01*
X272490Y117239D01*
Y116406D01*
X272491D01*
X272490D02*
X272491D01*
X272490D02*
X272491D01*
X272490D02*
X271657Y115573D01*
X270824D01*
X271657D01*
X272490Y114740D01*
Y113907D01*
X271657Y113074D01*
X269991D01*
X269158Y113907D01*
X274156Y113074D02*
X277488D01*
X274156D02*
X277488Y116406D01*
Y117239D01*
X276655Y118072D01*
X274989D01*
X274156Y117239D01*
X264093Y113187D02*
X263260Y112354D01*
X264093Y113187D02*
X265759D01*
X266592Y112354D01*
Y111521D01*
X266593D01*
X266592D02*
X266593D01*
X266592D02*
X266593D01*
X266592D02*
X265759Y110688D01*
X264926D01*
X265759D01*
X266592Y109855D01*
Y109022D01*
X265759Y108189D01*
X264093D01*
X263260Y109022D01*
X268258Y108189D02*
X271591D01*
X268258D02*
X271591Y111521D01*
Y112354D01*
X270758Y113187D01*
X269092D01*
X268258Y112354D01*
X166591Y127798D02*
X163259D01*
Y125299D01*
X164925Y126132D01*
X165758D01*
X166591Y125299D01*
Y123633D01*
X165758Y122800D01*
X164092D01*
X163259Y123633D01*
X168257Y122800D02*
X171589D01*
X168257D02*
X171589Y126132D01*
Y126965D01*
X170756Y127798D01*
X169090D01*
X168257Y126965D01*
X309158Y117239D02*
X309991Y118072D01*
X311657D01*
X312490Y117239D01*
Y116406D01*
X312491D01*
X312490D02*
X312491D01*
X312490D02*
X312491D01*
X312490D02*
X311657Y115573D01*
X310824D01*
X311657D01*
X312490Y114740D01*
Y113907D01*
X311657Y113074D01*
X309991D01*
X309158Y113907D01*
X314156Y113074D02*
X317488D01*
X314156D02*
X317488Y116406D01*
Y117239D01*
X316655Y118072D01*
X314989D01*
X314156Y117239D01*
X182191Y127798D02*
X178859D01*
Y125299D01*
X180525Y126132D01*
X181358D01*
X182191Y125299D01*
Y123633D01*
X181358Y122800D01*
X179692D01*
X178859Y123633D01*
X183857Y122800D02*
X187189D01*
X183857D02*
X187189Y126132D01*
Y126965D01*
X186356Y127798D01*
X184690D01*
X183857Y126965D01*
X194459Y127798D02*
X197791D01*
X194459D02*
Y125299D01*
X196125Y126132D01*
X196958D01*
X197791Y125299D01*
Y123633D01*
X196958Y122800D01*
X195292D01*
X194459Y123633D01*
X199457Y122800D02*
X202789D01*
X199457D02*
X202789Y126132D01*
Y126965D01*
X201956Y127798D01*
X200290D01*
X199457Y126965D01*
X223260Y112354D02*
X224093Y113187D01*
X225759D01*
X226592Y112354D01*
Y111521D01*
X226593D01*
X226592D02*
X226593D01*
X226592D02*
X226593D01*
X226592D02*
X225759Y110688D01*
X224926D01*
X225759D01*
X226592Y109855D01*
Y109022D01*
X225759Y108189D01*
X224093D01*
X223260Y109022D01*
X228258Y108189D02*
X231591D01*
X228258D02*
X231591Y111521D01*
Y112354D01*
X230758Y113187D01*
X229092D01*
X228258Y112354D01*
X213391Y127798D02*
X210059D01*
Y125299D01*
X211725Y126132D01*
X212558D01*
X213391Y125299D01*
Y123633D01*
X212558Y122800D01*
X210892D01*
X210059Y123633D01*
X215057Y122800D02*
X218389D01*
X215057D02*
X218389Y126132D01*
Y126965D01*
X217556Y127798D01*
X215890D01*
X215057Y126965D01*
X468958Y263072D02*
X472290D01*
X468958D02*
Y260573D01*
X470624Y261406D01*
X471457D01*
X472290Y260573D01*
Y258907D01*
X471457Y258074D01*
X469791D01*
X468958Y258907D01*
X473956Y258074D02*
X477288D01*
X473956D02*
X477288Y261406D01*
Y262239D01*
X476455Y263072D01*
X474789D01*
X473956Y262239D01*
X474958Y515056D02*
X471626D01*
Y512557D01*
X473292Y513390D01*
X474125D01*
X474958Y512557D01*
Y510891D01*
X474125Y510058D01*
X472459D01*
X471626Y510891D01*
X476624Y510058D02*
X479957D01*
X476624D02*
X479957Y513390D01*
Y514223D01*
X479124Y515056D01*
X477457D01*
X476624Y514223D01*
X474958Y555056D02*
X471626D01*
Y552557D01*
X473292Y553390D01*
X474125D01*
X474958Y552557D01*
Y550891D01*
X474125Y550058D01*
X472459D01*
X471626Y550891D01*
X476624Y550058D02*
X479957D01*
X476624D02*
X479957Y553390D01*
Y554223D01*
X479124Y555056D01*
X477457D01*
X476624Y554223D01*
X508958Y263072D02*
X512290D01*
X508958D02*
Y260573D01*
X510624Y261406D01*
X511457D01*
X512290Y260573D01*
Y258907D01*
X511457Y258074D01*
X509791D01*
X508958Y258907D01*
X513956Y258074D02*
X517288D01*
X513956D02*
X517288Y261406D01*
Y262239D01*
X516455Y263072D01*
X514789D01*
X513956Y262239D01*
X580842Y126524D02*
X584175D01*
X580842D02*
Y124025D01*
X582509Y124858D01*
X583342D01*
X584175Y124025D01*
Y122359D01*
X583342Y121526D01*
X581676D01*
X580842Y122359D01*
X585841Y121526D02*
X589173D01*
X585841D02*
X589173Y124858D01*
Y125691D01*
X588340Y126524D01*
X586674D01*
X585841Y125691D01*
X270407Y215941D02*
X269574Y215108D01*
X270407Y215941D02*
X272073D01*
X272906Y215108D01*
Y214275D01*
X272907D01*
X272906D02*
X272907D01*
X272906D02*
X272907D01*
X272906D02*
X272073Y213442D01*
X271240D01*
X272073D01*
X272906Y212609D01*
Y211776D01*
X272073Y210943D01*
X270407D01*
X269574Y211776D01*
X274572Y210943D02*
X277905D01*
X274572D02*
X277905Y214275D01*
Y215108D01*
X277072Y215941D01*
X275405D01*
X274572Y215108D01*
X468174Y174141D02*
X471506D01*
X468174D02*
Y171642D01*
X469840Y172475D01*
X470673D01*
X471506Y171642D01*
Y169976D01*
X470673Y169142D01*
X469007D01*
X468174Y169976D01*
X473172Y169142D02*
X476505D01*
X473172D02*
X476505Y172475D01*
Y173308D01*
X475672Y174141D01*
X474005D01*
X473172Y173308D01*
X540842Y126524D02*
X544175D01*
X540842D02*
Y124025D01*
X542509Y124858D01*
X543342D01*
X544175Y124025D01*
Y122359D01*
X543342Y121526D01*
X541676D01*
X540842Y122359D01*
X545841Y121526D02*
X549173D01*
X545841D02*
X549173Y124858D01*
Y125691D01*
X548340Y126524D01*
X546674D01*
X545841Y125691D01*
X471506Y214141D02*
X468174D01*
Y211642D01*
X469840Y212475D01*
X470673D01*
X471506Y211642D01*
Y209976D01*
X470673Y209143D01*
X469007D01*
X468174Y209976D01*
X473172Y209143D02*
X476505D01*
X473172D02*
X476505Y212475D01*
Y213308D01*
X475672Y214141D01*
X474005D01*
X473172Y213308D01*
X270407Y255941D02*
X269574Y255108D01*
X270407Y255941D02*
X272073D01*
X272906Y255108D01*
Y254275D01*
X272907D01*
X272906D02*
X272907D01*
X272906D02*
X272907D01*
X272906D02*
X272073Y253442D01*
X271240D01*
X272073D01*
X272906Y252609D01*
Y251776D01*
X272073Y250943D01*
X270407D01*
X269574Y251776D01*
X274572Y250943D02*
X277905D01*
X274572D02*
X277905Y254275D01*
Y255108D01*
X277072Y255941D01*
X275405D01*
X274572Y255108D01*
X194033Y281698D02*
X193200Y280865D01*
X194033Y281698D02*
X195699D01*
X196532Y280865D01*
Y280032D01*
X196533D01*
X196532D02*
X196533D01*
X196532D02*
X196533D01*
X196532D02*
X195699Y279199D01*
X194866D01*
X195699D01*
X196532Y278366D01*
Y277533D01*
X195699Y276700D01*
X194033D01*
X193200Y277533D01*
X198198Y276700D02*
X201531D01*
X198198D02*
X201531Y280032D01*
Y280865D01*
X200698Y281698D01*
X199031D01*
X198198Y280865D01*
X193000Y320665D02*
X193833Y321498D01*
X195499D01*
X196332Y320665D01*
Y319832D01*
X196333D01*
X196332D02*
X196333D01*
X196332D02*
X196333D01*
X196332D02*
X195499Y318999D01*
X194666D01*
X195499D01*
X196332Y318166D01*
Y317333D01*
X195499Y316500D01*
X193833D01*
X193000Y317333D01*
X197998Y316500D02*
X201331D01*
X197998D02*
X201331Y319832D01*
Y320665D01*
X200498Y321498D01*
X198831D01*
X197998Y320665D01*
X179409Y337698D02*
X178576Y336865D01*
X179409Y337698D02*
X181075D01*
X181908Y336865D01*
Y336032D01*
X181909D01*
X181908D02*
X181909D01*
X181908D02*
X181909D01*
X181908D02*
X181075Y335199D01*
X180242D01*
X181075D01*
X181908Y334366D01*
Y333533D01*
X181075Y332700D01*
X179409D01*
X178576Y333533D01*
X183574Y332700D02*
X186907D01*
X183574D02*
X186907Y336032D01*
Y336865D01*
X186074Y337698D01*
X184407D01*
X183574Y336865D01*
X192000Y368465D02*
X192833Y369298D01*
X194499D01*
X195332Y368465D01*
Y367632D01*
X195333D01*
X195332D02*
X195333D01*
X195332D02*
X195333D01*
X195332D02*
X194499Y366799D01*
X193666D01*
X194499D01*
X195332Y365966D01*
Y365133D01*
X194499Y364300D01*
X192833D01*
X192000Y365133D01*
X196998Y364300D02*
X200331D01*
X196998D02*
X200331Y367632D01*
Y368465D01*
X199498Y369298D01*
X197831D01*
X196998Y368465D01*
X192200Y445465D02*
X193033Y446298D01*
X194699D01*
X195532Y445465D01*
Y444632D01*
X195533D01*
X195532D02*
X195533D01*
X195532D02*
X195533D01*
X195532D02*
X194699Y443799D01*
X193866D01*
X194699D01*
X195532Y442966D01*
Y442133D01*
X194699Y441300D01*
X193033D01*
X192200Y442133D01*
X197198Y441300D02*
X200531D01*
X197198D02*
X200531Y444632D01*
Y445465D01*
X199698Y446298D01*
X198031D01*
X197198Y445465D01*
X193200Y522365D02*
X194033Y523198D01*
X195699D01*
X196532Y522365D01*
Y521532D01*
X196533D01*
X196532D02*
X196533D01*
X196532D02*
X196533D01*
X196532D02*
X195699Y520699D01*
X194866D01*
X195699D01*
X196532Y519866D01*
Y519033D01*
X195699Y518200D01*
X194033D01*
X193200Y519033D01*
X198198Y518200D02*
X201531D01*
X198198D02*
X201531Y521532D01*
Y522365D01*
X200698Y523198D01*
X199031D01*
X198198Y522365D01*
X192833Y409498D02*
X192000Y408665D01*
X192833Y409498D02*
X194499D01*
X195332Y408665D01*
Y407832D01*
X195333D01*
X195332D02*
X195333D01*
X195332D02*
X195333D01*
X195332D02*
X194499Y406999D01*
X193666D01*
X194499D01*
X195332Y406166D01*
Y405333D01*
X194499Y404500D01*
X192833D01*
X192000Y405333D01*
X196998Y404500D02*
X200331D01*
X196998D02*
X200331Y407832D01*
Y408665D01*
X199498Y409498D01*
X197831D01*
X196998Y408665D01*
X192200Y485665D02*
X193033Y486498D01*
X194699D01*
X195532Y485665D01*
Y484832D01*
X195533D01*
X195532D02*
X195533D01*
X195532D02*
X195533D01*
X195532D02*
X194699Y483999D01*
X193866D01*
X194699D01*
X195532Y483166D01*
Y482333D01*
X194699Y481500D01*
X193033D01*
X192200Y482333D01*
X197198Y481500D02*
X200531D01*
X197198D02*
X200531Y484832D01*
Y485665D01*
X199698Y486498D01*
X198031D01*
X197198Y485665D01*
X193200Y562665D02*
X194033Y563498D01*
X195699D01*
X196532Y562665D01*
Y561832D01*
X196533D01*
X196532D02*
X196533D01*
X196532D02*
X196533D01*
X196532D02*
X195699Y560999D01*
X194866D01*
X195699D01*
X196532Y560166D01*
Y559333D01*
X195699Y558500D01*
X194033D01*
X193200Y559333D01*
X198198Y558500D02*
X201531D01*
X198198D02*
X201531Y561832D01*
Y562665D01*
X200698Y563498D01*
X199031D01*
X198198Y562665D01*
X380085Y259801D02*
X379252Y258968D01*
X380085Y259801D02*
X381751D01*
X382584Y258968D01*
Y258135D01*
X382585D01*
X382584D02*
X382585D01*
X382584D02*
X382585D01*
X382584D02*
X381751Y257302D01*
X380918D01*
X381751D01*
X382584Y256468D01*
Y255636D01*
X381751Y254802D01*
X380085D01*
X379252Y255636D01*
X384250Y254802D02*
X387583D01*
X384250D02*
X387583Y258135D01*
Y258968D01*
X386750Y259801D01*
X385083D01*
X384250Y258968D01*
X121332Y515598D02*
X118000D01*
X121332D02*
Y514765D01*
X118000Y511433D01*
Y510600D01*
X122998Y515598D02*
X126331D01*
X122998D02*
Y513099D01*
X124664Y513932D01*
X125498D01*
X126331Y513099D01*
Y511433D01*
X125498Y510600D01*
X123831D01*
X122998Y511433D01*
X121332Y441698D02*
X118000D01*
X121332D02*
Y440865D01*
X118000Y437533D01*
Y436700D01*
X122998Y441698D02*
X126331D01*
X122998D02*
Y439199D01*
X124664Y440032D01*
X125498D01*
X126331Y439199D01*
Y437533D01*
X125498Y436700D01*
X123831D01*
X122998Y437533D01*
X121332Y367498D02*
X118000D01*
X121332D02*
Y366665D01*
X118000Y363333D01*
Y362500D01*
X122998Y367498D02*
X126331D01*
X122998D02*
Y364999D01*
X124664Y365832D01*
X125498D01*
X126331Y364999D01*
Y363333D01*
X125498Y362500D01*
X123831D01*
X122998Y363333D01*
X121332Y293698D02*
X118000D01*
X121332D02*
Y292865D01*
X118000Y289533D01*
Y288700D01*
X122998Y293698D02*
X126331D01*
X122998D02*
Y291199D01*
X124664Y292032D01*
X125498D01*
X126331Y291199D01*
Y289533D01*
X125498Y288700D01*
X123831D01*
X122998Y289533D01*
X561500Y545465D02*
X562333Y546298D01*
X563999D01*
X564832Y545465D01*
Y544632D01*
X564833D01*
X564832D02*
X564833D01*
X564832D02*
X564833D01*
X564832D02*
X563999Y543799D01*
X563166D01*
X563999D01*
X564832Y542966D01*
Y542133D01*
X563999Y541300D01*
X562333D01*
X561500Y542133D01*
X566498Y541300D02*
X569831D01*
X566498D02*
X569831Y544632D01*
Y545465D01*
X568998Y546298D01*
X567331D01*
X566498Y545465D01*
X437405Y558577D02*
X436572Y557744D01*
X437405Y558577D02*
X439071D01*
X439904Y557744D01*
Y556911D01*
X439905D01*
X439904D02*
X439905D01*
X439904D02*
X439905D01*
X439904D02*
X439071Y556078D01*
X438238D01*
X439071D01*
X439904Y555245D01*
Y554412D01*
X439071Y553579D01*
X437405D01*
X436572Y554412D01*
X441570Y553579D02*
X444902D01*
X441570D02*
X444902Y556911D01*
Y557744D01*
X444069Y558577D01*
X442403D01*
X441570Y557744D01*
X507300Y546365D02*
X508133Y547198D01*
X509799D01*
X510632Y546365D01*
Y545532D01*
X510633D01*
X510632D02*
X510633D01*
X510632D02*
X510633D01*
X510632D02*
X509799Y544699D01*
X508966D01*
X509799D01*
X510632Y543866D01*
Y543033D01*
X509799Y542200D01*
X508133D01*
X507300Y543033D01*
X512298Y542200D02*
X515631D01*
X512298D02*
X515631Y545532D01*
Y546365D01*
X514798Y547198D01*
X513131D01*
X512298Y546365D01*
X576600Y490865D02*
X577433Y491698D01*
X579099D01*
X579932Y490865D01*
Y490032D01*
X579933D01*
X579932D02*
X579933D01*
X579932D02*
X579933D01*
X579932D02*
X579099Y489199D01*
X578266D01*
X579099D01*
X579932Y488366D01*
Y487533D01*
X579099Y486700D01*
X577433D01*
X576600Y487533D01*
X581598Y486700D02*
X584931D01*
X581598D02*
X584931Y490032D01*
Y490865D01*
X584098Y491698D01*
X582431D01*
X581598Y490865D01*
X553233Y339598D02*
X552400Y338765D01*
X553233Y339598D02*
X554899D01*
X555732Y338765D01*
Y337932D01*
X555733D01*
X555732D02*
X555733D01*
X555732D02*
X555733D01*
X555732D02*
X554899Y337099D01*
X554066D01*
X554899D01*
X555732Y336266D01*
Y335433D01*
X554899Y334600D01*
X553233D01*
X552400Y335433D01*
X557398Y334600D02*
X560731D01*
X557398D02*
X560731Y337932D01*
Y338765D01*
X559898Y339598D01*
X558231D01*
X557398Y338765D01*
X603333Y280898D02*
X602500Y280065D01*
X603333Y280898D02*
X604999D01*
X605832Y280065D01*
Y279232D01*
X605833D01*
X605832D02*
X605833D01*
X605832D02*
X605833D01*
X605832D02*
X604999Y278399D01*
X604166D01*
X604999D01*
X605832Y277566D01*
Y276733D01*
X604999Y275900D01*
X603333D01*
X602500Y276733D01*
X607498Y275900D02*
X610831D01*
X607498D02*
X610831Y279232D01*
Y280065D01*
X609998Y280898D01*
X608331D01*
X607498Y280065D01*
X548000Y455665D02*
X548833Y456498D01*
X550499D01*
X551332Y455665D01*
Y454832D01*
X551333D01*
X551332D02*
X551333D01*
X551332D02*
X551333D01*
X551332D02*
X550499Y453999D01*
X549666D01*
X550499D01*
X551332Y453166D01*
Y452333D01*
X550499Y451500D01*
X548833D01*
X548000Y452333D01*
X552998Y451500D02*
X556331D01*
X552998D02*
X556331Y454832D01*
Y455665D01*
X555498Y456498D01*
X553831D01*
X552998Y455665D01*
X538833Y470098D02*
X538000Y469265D01*
X538833Y470098D02*
X540499D01*
X541332Y469265D01*
Y468432D01*
X541333D01*
X541332D02*
X541333D01*
X541332D02*
X541333D01*
X541332D02*
X540499Y467599D01*
X539666D01*
X540499D01*
X541332Y466766D01*
Y465933D01*
X540499Y465100D01*
X538833D01*
X538000Y465933D01*
X542998Y465100D02*
X546331D01*
X542998D02*
X546331Y468432D01*
Y469265D01*
X545498Y470098D01*
X543831D01*
X542998Y469265D01*
X543733Y352898D02*
X542900Y352065D01*
X543733Y352898D02*
X545399D01*
X546232Y352065D01*
Y351232D01*
X546233D01*
X546232D02*
X546233D01*
X546232D02*
X546233D01*
X546232D02*
X545399Y350399D01*
X544566D01*
X545399D01*
X546232Y349566D01*
Y348733D01*
X545399Y347900D01*
X543733D01*
X542900Y348733D01*
X547898Y347900D02*
X551231D01*
X547898D02*
X551231Y351232D01*
Y352065D01*
X550398Y352898D01*
X548731D01*
X547898Y352065D01*
X522469Y170480D02*
X521636Y169647D01*
X522469Y170480D02*
X524135D01*
X524968Y169647D01*
Y168814D01*
X524970D01*
X524968D02*
X524970D01*
X524968D02*
X524970D01*
X524968D02*
X524135Y167981D01*
X523302D01*
X524135D01*
X524968Y167148D01*
Y166315D01*
X524135Y165482D01*
X522469D01*
X521636Y166315D01*
X526635Y165482D02*
X529967D01*
X526635D02*
X529967Y168814D01*
Y169647D01*
X529134Y170480D01*
X527468D01*
X526635Y169647D01*
X514900Y217465D02*
X515733Y218298D01*
X517399D01*
X518232Y217465D01*
Y216632D01*
X518233D01*
X518232D02*
X518233D01*
X518232D02*
X518233D01*
X518232D02*
X517399Y215799D01*
X516566D01*
X517399D01*
X518232Y214966D01*
Y214133D01*
X517399Y213300D01*
X515733D01*
X514900Y214133D01*
X519898Y213300D02*
X523231D01*
X519898D02*
X523231Y216632D01*
Y217465D01*
X522398Y218298D01*
X520731D01*
X519898Y217465D01*
X402576Y566506D02*
X403409Y567339D01*
X405075D01*
X405908Y566506D01*
Y565672D01*
X405909D01*
X405908D02*
X405909D01*
X405908D02*
X405909D01*
X405908D02*
X405075Y564839D01*
X404242D01*
X405075D01*
X405908Y564006D01*
Y563173D01*
X405075Y562340D01*
X403409D01*
X402576Y563173D01*
X407574Y562340D02*
X410906D01*
X407574D02*
X410906Y565672D01*
Y566506D01*
X410073Y567339D01*
X408407D01*
X407574Y566506D01*
X332033Y551298D02*
X331200Y550465D01*
X332033Y551298D02*
X333699D01*
X334532Y550465D01*
Y549632D01*
X334533D01*
X334532D02*
X334533D01*
X334532D02*
X334533D01*
X334532D02*
X333699Y548799D01*
X332866D01*
X333699D01*
X334532Y547966D01*
Y547133D01*
X333699Y546300D01*
X332033D01*
X331200Y547133D01*
X336198Y546300D02*
X339531D01*
X336198D02*
X339531Y549632D01*
Y550465D01*
X338698Y551298D01*
X337031D01*
X336198Y550465D01*
X333702Y479580D02*
X332869Y478747D01*
X333702Y479580D02*
X335368D01*
X336201Y478747D01*
Y477914D01*
X336202D01*
X336201D02*
X336202D01*
X336201D02*
X336202D01*
X336201D02*
X335368Y477081D01*
X334535D01*
X335368D01*
X336201Y476248D01*
Y475415D01*
X335368Y474582D01*
X333702D01*
X332869Y475415D01*
X337867Y474582D02*
X341199D01*
X337867D02*
X341199Y477914D01*
Y478747D01*
X340366Y479580D01*
X338700D01*
X337867Y478747D01*
X498800Y469465D02*
X499633Y470298D01*
X501299D01*
X502132Y469465D01*
Y468632D01*
X502133D01*
X502132D02*
X502133D01*
X502132D02*
X502133D01*
X502132D02*
X501299Y467799D01*
X500466D01*
X501299D01*
X502132Y466966D01*
Y466133D01*
X501299Y465300D01*
X499633D01*
X498800Y466133D01*
X503798Y465300D02*
X507131D01*
X503798D02*
X507131Y468632D01*
Y469465D01*
X506298Y470298D01*
X504631D01*
X503798Y469465D01*
X333978Y419428D02*
X333145Y418594D01*
X333978Y419428D02*
X335644D01*
X336477Y418594D01*
Y417762D01*
X336478D01*
X336477D02*
X336478D01*
X336477D02*
X336478D01*
X336477D02*
X335644Y416928D01*
X334811D01*
X335644D01*
X336477Y416095D01*
Y415262D01*
X335644Y414429D01*
X333978D01*
X333145Y415262D01*
X338143Y414429D02*
X341476D01*
X338143D02*
X341476Y417762D01*
Y418594D01*
X340642Y419428D01*
X338976D01*
X338143Y418594D01*
X333633Y362498D02*
X332800Y361665D01*
X333633Y362498D02*
X335299D01*
X336132Y361665D01*
Y360832D01*
X336133D01*
X336132D02*
X336133D01*
X336132D02*
X336133D01*
X336132D02*
X335299Y359999D01*
X334466D01*
X335299D01*
X336132Y359166D01*
Y358333D01*
X335299Y357500D01*
X333633D01*
X332800Y358333D01*
X337798Y357500D02*
X341131D01*
X337798D02*
X341131Y360832D01*
Y361665D01*
X340298Y362498D01*
X338631D01*
X337798Y361665D01*
X327496Y517990D02*
X328329Y518823D01*
X329995D01*
X330828Y517990D01*
Y517157D01*
X330829D01*
X330828D02*
X330829D01*
X330828D02*
X330829D01*
X330828D02*
X329995Y516324D01*
X329162D01*
X329995D01*
X330828Y515490D01*
Y514658D01*
X329995Y513824D01*
X328329D01*
X327496Y514658D01*
X332494Y513824D02*
X335827D01*
X332494D02*
X335827Y517157D01*
Y517990D01*
X334994Y518823D01*
X333328D01*
X332494Y517990D01*
X456327Y314232D02*
X455494Y313399D01*
X456327Y314232D02*
X457994D01*
X458827Y313399D01*
Y312566D01*
X458828D01*
X458827D02*
X458828D01*
X458827D02*
X458828D01*
X458827D02*
X457994Y311733D01*
X457161D01*
X457994D01*
X458827Y310900D01*
Y310067D01*
X457994Y309234D01*
X456327D01*
X455494Y310067D01*
X460493Y309234D02*
X463825D01*
X460493D02*
X463825Y312566D01*
Y313399D01*
X462992Y314232D01*
X461326D01*
X460493Y313399D01*
X412685Y229001D02*
X411852Y228168D01*
X412685Y229001D02*
X414351D01*
X415184Y228168D01*
Y227335D01*
X415185D01*
X415184D02*
X415185D01*
X415184D02*
X415185D01*
X415184D02*
X414351Y226502D01*
X413518D01*
X414351D01*
X415184Y225668D01*
Y224836D01*
X414351Y224002D01*
X412685D01*
X411852Y224836D01*
X416850Y224002D02*
X420183D01*
X416850D02*
X420183Y227335D01*
Y228168D01*
X419350Y229001D01*
X417683D01*
X416850Y228168D01*
X393785Y229001D02*
X392952Y228168D01*
X393785Y229001D02*
X395451D01*
X396284Y228168D01*
Y227335D01*
X396285D01*
X396284D02*
X396285D01*
X396284D02*
X396285D01*
X396284D02*
X395451Y226502D01*
X394618D01*
X395451D01*
X396284Y225668D01*
Y224836D01*
X395451Y224002D01*
X393785D01*
X392952Y224836D01*
X397950Y224002D02*
X401283D01*
X397950D02*
X401283Y227335D01*
Y228168D01*
X400450Y229001D01*
X398783D01*
X397950Y228168D01*
X379252Y308968D02*
X380085Y309801D01*
X381751D01*
X382584Y308968D01*
Y308135D01*
X382585D01*
X382584D02*
X382585D01*
X382584D02*
X382585D01*
X382584D02*
X381751Y307302D01*
X380918D01*
X381751D01*
X382584Y306468D01*
Y305636D01*
X381751Y304802D01*
X380085D01*
X379252Y305636D01*
X384250Y304802D02*
X387583D01*
X384250D02*
X387583Y308135D01*
Y308968D01*
X386750Y309801D01*
X385083D01*
X384250Y308968D01*
X380085Y229801D02*
X379252Y228968D01*
X380085Y229801D02*
X381751D01*
X382584Y228968D01*
Y228135D01*
X382585D01*
X382584D02*
X382585D01*
X382584D02*
X382585D01*
X382584D02*
X381751Y227302D01*
X380918D01*
X381751D01*
X382584Y226468D01*
Y225636D01*
X381751Y224802D01*
X380085D01*
X379252Y225636D01*
X384250Y224802D02*
X387583D01*
X384250D02*
X387583Y228135D01*
Y228968D01*
X386750Y229801D01*
X385083D01*
X384250Y228968D01*
X442000Y173298D02*
X445332D01*
X442000D02*
Y170799D01*
X443666Y171632D01*
X444499D01*
X445332Y170799D01*
Y169133D01*
X444499Y168300D01*
X442833D01*
X442000Y169133D01*
X446998Y168300D02*
X450331D01*
X446998D02*
X450331Y171632D01*
Y172465D01*
X449498Y173298D01*
X447831D01*
X446998Y172465D01*
X393485Y119001D02*
X392652Y118168D01*
X393485Y119001D02*
X395151D01*
X395984Y118168D01*
Y117335D01*
X395985D01*
X395984D02*
X395985D01*
X395984D02*
X395985D01*
X395984D02*
X395151Y116502D01*
X394318D01*
X395151D01*
X395984Y115668D01*
Y114835D01*
X395151Y114002D01*
X393485D01*
X392652Y114835D01*
X397650Y114002D02*
X400983D01*
X397650D02*
X400983Y117335D01*
Y118168D01*
X400150Y119001D01*
X398483D01*
X397650Y118168D01*
X380085Y119801D02*
X379252Y118968D01*
X380085Y119801D02*
X381751D01*
X382584Y118968D01*
Y118135D01*
X382585D01*
X382584D02*
X382585D01*
X382584D02*
X382585D01*
X382584D02*
X381751Y117302D01*
X380918D01*
X381751D01*
X382584Y116468D01*
Y115636D01*
X381751Y114802D01*
X380085D01*
X379252Y115636D01*
X384250Y114802D02*
X387583D01*
X384250D02*
X387583Y118135D01*
Y118968D01*
X386750Y119801D01*
X385083D01*
X384250Y118968D01*
X304152Y216568D02*
X304985Y217401D01*
X306651D01*
X307484Y216568D01*
Y215735D01*
X307485D01*
X307484D02*
X307485D01*
X307484D02*
X307485D01*
X307484D02*
X306651Y214902D01*
X305818D01*
X306651D01*
X307484Y214068D01*
Y213236D01*
X306651Y212402D01*
X304985D01*
X304152Y213236D01*
X309150Y212402D02*
X312483D01*
X309150D02*
X312483Y215735D01*
Y216568D01*
X311650Y217401D01*
X309983D01*
X309150Y216568D01*
X319252Y208968D02*
X320085Y209801D01*
X321751D01*
X322584Y208968D01*
Y208135D01*
X322585D01*
X322584D02*
X322585D01*
X322584D02*
X322585D01*
X322584D02*
X321751Y207302D01*
X320918D01*
X321751D01*
X322584Y206469D01*
Y205636D01*
X321751Y204802D01*
X320085D01*
X319252Y205636D01*
X324250Y204802D02*
X327583D01*
X324250D02*
X327583Y208135D01*
Y208968D01*
X326750Y209801D01*
X325084D01*
X324250Y208968D01*
X241331Y229188D02*
X240498Y228355D01*
X241331Y229188D02*
X242997D01*
X243830Y228355D01*
Y227522D01*
X243831D01*
X243830D02*
X243831D01*
X243830D02*
X243831D01*
X243830D02*
X242997Y226689D01*
X242164D01*
X242997D01*
X243830Y225856D01*
Y225023D01*
X242997Y224190D01*
X241331D01*
X240498Y225023D01*
X245496Y224190D02*
X248828D01*
X245496D02*
X248828Y227522D01*
Y228355D01*
X247995Y229188D01*
X246329D01*
X245496Y228355D01*
X241216Y216002D02*
X240383Y215169D01*
X241216Y216002D02*
X242882D01*
X243715Y215169D01*
Y214336D01*
X243716D01*
X243715D02*
X243716D01*
X243715D02*
X243716D01*
X243715D02*
X242882Y213503D01*
X242049D01*
X242882D01*
X243715Y212670D01*
Y211837D01*
X242882Y211004D01*
X241216D01*
X240383Y211837D01*
X245381Y211004D02*
X248713D01*
X245381D02*
X248713Y214336D01*
Y215169D01*
X247880Y216002D01*
X246214D01*
X245381Y215169D01*
X211216Y216002D02*
X210383Y215169D01*
X211216Y216002D02*
X212882D01*
X213715Y215169D01*
Y214336D01*
X213716D01*
X213715D02*
X213716D01*
X213715D02*
X213716D01*
X213715D02*
X212882Y213503D01*
X212049D01*
X212882D01*
X213715Y212670D01*
Y211837D01*
X212882Y211004D01*
X211216D01*
X210383Y211837D01*
X215381Y211004D02*
X218713D01*
X215381D02*
X218713Y214336D01*
Y215169D01*
X217880Y216002D01*
X216214D01*
X215381Y215169D01*
X240383Y205169D02*
X241216Y206002D01*
X242882D01*
X243715Y205169D01*
Y204336D01*
X243716D01*
X243715D02*
X243716D01*
X243715D02*
X243716D01*
X243715D02*
X242882Y203503D01*
X242049D01*
X242882D01*
X243715Y202670D01*
Y201837D01*
X242882Y201004D01*
X241216D01*
X240383Y201837D01*
X245381Y201004D02*
X248713D01*
X245381D02*
X248713Y204336D01*
Y205169D01*
X247880Y206002D01*
X246214D01*
X245381Y205169D01*
X211216Y196002D02*
X210383Y195169D01*
X211216Y196002D02*
X212882D01*
X213715Y195169D01*
Y194336D01*
X213716D01*
X213715D02*
X213716D01*
X213715D02*
X213716D01*
X213715D02*
X212882Y193503D01*
X212049D01*
X212882D01*
X213715Y192670D01*
Y191837D01*
X212882Y191004D01*
X211216D01*
X210383Y191837D01*
X215381Y191004D02*
X218713D01*
X215381D02*
X218713Y194336D01*
Y195169D01*
X217880Y196002D01*
X216214D01*
X215381Y195169D01*
X240383Y185169D02*
X241216Y186002D01*
X242882D01*
X243715Y185169D01*
Y184336D01*
X243716D01*
X243715D02*
X243716D01*
X243715D02*
X243716D01*
X243715D02*
X242882Y183503D01*
X242049D01*
X242882D01*
X243715Y182670D01*
Y181837D01*
X242882Y181004D01*
X241216D01*
X240383Y181837D01*
X245381Y181004D02*
X248713D01*
X245381D02*
X248713Y184336D01*
Y185169D01*
X247880Y186002D01*
X246214D01*
X245381Y185169D01*
X185933Y191630D02*
X185100Y190797D01*
X185933Y191630D02*
X187599D01*
X188432Y190797D01*
Y189964D01*
X188433D01*
X188432D02*
X188433D01*
X188432D02*
X188433D01*
X188432D02*
X187599Y189131D01*
X186766D01*
X187599D01*
X188432Y188298D01*
Y187465D01*
X187599Y186632D01*
X185933D01*
X185100Y187465D01*
X190098Y186632D02*
X193431D01*
X190098D02*
X193431Y189964D01*
Y190797D01*
X192598Y191630D01*
X190931D01*
X190098Y190797D01*
X210383Y175169D02*
X211216Y176002D01*
X212882D01*
X213715Y175169D01*
Y174336D01*
X213716D01*
X213715D02*
X213716D01*
X213715D02*
X213716D01*
X213715D02*
X212882Y173503D01*
X212049D01*
X212882D01*
X213715Y172670D01*
Y171837D01*
X212882Y171004D01*
X211216D01*
X210383Y171837D01*
X215381Y171004D02*
X218713D01*
X215381D02*
X218713Y174336D01*
Y175169D01*
X217880Y176002D01*
X216214D01*
X215381Y175169D01*
X568600Y576165D02*
X569433Y576998D01*
X571099D01*
X571932Y576165D01*
Y575332D01*
X571933D01*
X571932D02*
X571933D01*
X571932D02*
X571933D01*
X571932D02*
X571099Y574499D01*
X570266D01*
X571099D01*
X571932Y573666D01*
Y572833D01*
X571099Y572000D01*
X569433D01*
X568600Y572833D01*
X573598Y572000D02*
X576931D01*
X573598D02*
X576931Y575332D01*
Y576165D01*
X576098Y576998D01*
X574431D01*
X573598Y576165D01*
X574433Y563798D02*
X573600Y562965D01*
X574433Y563798D02*
X576099D01*
X576932Y562965D01*
Y562132D01*
X576933D01*
X576932D02*
X576933D01*
X576932D02*
X576933D01*
X576932D02*
X576099Y561299D01*
X575266D01*
X576099D01*
X576932Y560466D01*
Y559633D01*
X576099Y558800D01*
X574433D01*
X573600Y559633D01*
X578598Y558800D02*
X581931D01*
X578598D02*
X581931Y562132D01*
Y562965D01*
X581098Y563798D01*
X579431D01*
X578598Y562965D01*
X562333Y556298D02*
X561500Y555465D01*
X562333Y556298D02*
X563999D01*
X564832Y555465D01*
Y554632D01*
X564833D01*
X564832D02*
X564833D01*
X564832D02*
X564833D01*
X564832D02*
X563999Y553799D01*
X563166D01*
X563999D01*
X564832Y552966D01*
Y552133D01*
X563999Y551300D01*
X562333D01*
X561500Y552133D01*
X566498Y551300D02*
X569831D01*
X566498D02*
X569831Y554632D01*
Y555465D01*
X568998Y556298D01*
X567331D01*
X566498Y555465D01*
X605500Y480000D02*
X607166D01*
X606333D01*
Y484998D01*
X606334D01*
X606333D02*
X605500Y484165D01*
X609665Y484998D02*
X612998D01*
X609665D02*
Y482499D01*
X611332Y483332D01*
X612164D01*
X612998Y482499D01*
Y480833D01*
X612164Y480000D01*
X610498D01*
X609665Y480833D01*
X616330Y484165D02*
X617996Y484998D01*
X616330Y484165D02*
X614664Y482499D01*
Y480833D01*
X615497Y480000D01*
X617163D01*
X617996Y480833D01*
Y481666D01*
X617163Y482499D01*
X614664D01*
X528833Y470098D02*
X528000Y469265D01*
X528833Y470098D02*
X530499D01*
X531332Y469265D01*
Y468432D01*
X531333D01*
X531332D02*
X531333D01*
X531332D02*
X531333D01*
X531332D02*
X530499Y467599D01*
X529666D01*
X530499D01*
X531332Y466766D01*
Y465933D01*
X530499Y465100D01*
X528833D01*
X528000Y465933D01*
X532998Y465100D02*
X536331D01*
X532998D02*
X536331Y468432D01*
Y469265D01*
X535498Y470098D01*
X533831D01*
X532998Y469265D01*
X446572Y557744D02*
X447405Y558577D01*
X449071D01*
X449904Y557744D01*
Y556911D01*
X449905D01*
X449904D02*
X449905D01*
X449904D02*
X449905D01*
X449904D02*
X449071Y556078D01*
X448238D01*
X449071D01*
X449904Y555245D01*
Y554412D01*
X449071Y553579D01*
X447405D01*
X446572Y554412D01*
X451570Y553579D02*
X454902D01*
X451570D02*
X454902Y556911D01*
Y557744D01*
X454069Y558577D01*
X452403D01*
X451570Y557744D01*
X332033Y561298D02*
X331200Y560465D01*
X332033Y561298D02*
X333699D01*
X334532Y560465D01*
Y559632D01*
X334533D01*
X334532D02*
X334533D01*
X334532D02*
X334533D01*
X334532D02*
X333699Y558799D01*
X332866D01*
X333699D01*
X334532Y557966D01*
Y557133D01*
X333699Y556300D01*
X332033D01*
X331200Y557133D01*
X336198Y556300D02*
X339531D01*
X336198D02*
X339531Y559632D01*
Y560465D01*
X338698Y561298D01*
X337031D01*
X336198Y560465D01*
X497300Y546365D02*
X498133Y547198D01*
X499799D01*
X500632Y546365D01*
Y545532D01*
X500633D01*
X500632D02*
X500633D01*
X500632D02*
X500633D01*
X500632D02*
X499799Y544699D01*
X498966D01*
X499799D01*
X500632Y543866D01*
Y543033D01*
X499799Y542200D01*
X498133D01*
X497300Y543033D01*
X502298Y542200D02*
X505631D01*
X502298D02*
X505631Y545532D01*
Y546365D01*
X504798Y547198D01*
X503131D01*
X502298Y546365D01*
X389765Y541152D02*
X388932Y540319D01*
X389765Y541152D02*
X391432D01*
X392265Y540319D01*
Y539486D01*
X392266D01*
X392265D02*
X392266D01*
X392265D02*
X392266D01*
X392265D02*
X391432Y538653D01*
X390598D01*
X391432D01*
X392265Y537820D01*
Y536987D01*
X391432Y536154D01*
X389765D01*
X388932Y536987D01*
X393931Y536154D02*
X397263D01*
X393931D02*
X397263Y539486D01*
Y540319D01*
X396430Y541152D01*
X394764D01*
X393931Y540319D01*
X353357Y546198D02*
X352524Y545365D01*
X353357Y546198D02*
X355023D01*
X355856Y545365D01*
Y544532D01*
X355857D01*
X355856D02*
X355857D01*
X355856D02*
X355857D01*
X355856D02*
X355023Y543699D01*
X354190D01*
X355023D01*
X355856Y542866D01*
Y542033D01*
X355023Y541200D01*
X353357D01*
X352524Y542033D01*
X357522Y541200D02*
X360855D01*
X357522D02*
X360855Y544532D01*
Y545365D01*
X360022Y546198D01*
X358355D01*
X357522Y545365D01*
X388921Y515174D02*
X389754Y516007D01*
X391420D01*
X392254Y515174D01*
Y514341D01*
X392255D01*
X392254D02*
X392255D01*
X392254D02*
X392255D01*
X392254D02*
X391420Y513508D01*
X390587D01*
X391420D01*
X392254Y512675D01*
Y511842D01*
X391420Y511009D01*
X389754D01*
X388921Y511842D01*
X393920Y511009D02*
X397252D01*
X393920D02*
X397252Y514341D01*
Y515174D01*
X396419Y516007D01*
X394753D01*
X393920Y515174D01*
X333702Y489580D02*
X332869Y488747D01*
X333702Y489580D02*
X335368D01*
X336201Y488747D01*
Y487914D01*
X336202D01*
X336201D02*
X336202D01*
X336201D02*
X336202D01*
X336201D02*
X335368Y487081D01*
X334535D01*
X335368D01*
X336201Y486248D01*
Y485415D01*
X335368Y484582D01*
X333702D01*
X332869Y485415D01*
X337867Y484582D02*
X341199D01*
X337867D02*
X341199Y487914D01*
Y488747D01*
X340366Y489580D01*
X338700D01*
X337867Y488747D01*
X602500Y413065D02*
X603333Y413898D01*
X604999D01*
X605832Y413065D01*
Y412232D01*
X605833D01*
X605832D02*
X605833D01*
X605832D02*
X605833D01*
X605832D02*
X604999Y411399D01*
X604166D01*
X604999D01*
X605832Y410566D01*
Y409733D01*
X604999Y408900D01*
X603333D01*
X602500Y409733D01*
X607498Y408900D02*
X610831D01*
X607498D02*
X610831Y412232D01*
Y413065D01*
X609998Y413898D01*
X608331D01*
X607498Y413065D01*
X606666Y381400D02*
X605000D01*
X605833D02*
X606666D01*
X605833D02*
Y386398D01*
X605834D01*
X605833D02*
X605000Y385565D01*
X609165Y386398D02*
X612498D01*
X609165D02*
Y383899D01*
X610832Y384732D01*
X611664D01*
X612498Y383899D01*
Y382233D01*
X611664Y381400D01*
X609998D01*
X609165Y382233D01*
X615830Y385565D02*
X617496Y386398D01*
X615830Y385565D02*
X614164Y383899D01*
Y382233D01*
X614997Y381400D01*
X616663D01*
X617496Y382233D01*
Y383066D01*
X616663Y383899D01*
X614164D01*
X553233Y329598D02*
X552400Y328765D01*
X553233Y329598D02*
X554899D01*
X555732Y328765D01*
Y327932D01*
X555733D01*
X555732D02*
X555733D01*
X555732D02*
X555733D01*
X555732D02*
X554899Y327099D01*
X554066D01*
X554899D01*
X555732Y326266D01*
Y325433D01*
X554899Y324600D01*
X553233D01*
X552400Y325433D01*
X557398Y324600D02*
X560731D01*
X557398D02*
X560731Y327932D01*
Y328765D01*
X559898Y329598D01*
X558231D01*
X557398Y328765D01*
X605000Y314300D02*
X606666D01*
X605833D01*
Y319298D01*
X605834D01*
X605833D02*
X605000Y318465D01*
X609165Y319298D02*
X612498D01*
X609165D02*
Y316799D01*
X610832Y317632D01*
X611664D01*
X612498Y316799D01*
Y315133D01*
X611664Y314300D01*
X609998D01*
X609165Y315133D01*
X615830Y318465D02*
X617496Y319298D01*
X615830Y318465D02*
X614164Y316799D01*
Y315133D01*
X614997Y314300D01*
X616663D01*
X617496Y315133D01*
Y315966D01*
X616663Y316799D01*
X614164D01*
X603333Y291798D02*
X602500Y290965D01*
X603333Y291798D02*
X604999D01*
X605832Y290965D01*
Y290132D01*
X605833D01*
X605832D02*
X605833D01*
X605832D02*
X605833D01*
X605832D02*
X604999Y289299D01*
X604166D01*
X604999D01*
X605832Y288466D01*
Y287633D01*
X604999Y286800D01*
X603333D01*
X602500Y287633D01*
X607498Y286800D02*
X610831D01*
X607498D02*
X610831Y290132D01*
Y290965D01*
X609998Y291798D01*
X608331D01*
X607498Y290965D01*
X553233Y299598D02*
X552400Y298765D01*
X553233Y299598D02*
X554899D01*
X555732Y298765D01*
Y297932D01*
X555733D01*
X555732D02*
X555733D01*
X555732D02*
X555733D01*
X555732D02*
X554899Y297099D01*
X554066D01*
X554899D01*
X555732Y296266D01*
Y295433D01*
X554899Y294600D01*
X553233D01*
X552400Y295433D01*
X557398Y294600D02*
X560731D01*
X557398D02*
X560731Y297932D01*
Y298765D01*
X559898Y299598D01*
X558231D01*
X557398Y298765D01*
X548000Y445665D02*
X548833Y446498D01*
X550499D01*
X551332Y445665D01*
Y444832D01*
X551333D01*
X551332D02*
X551333D01*
X551332D02*
X551333D01*
X551332D02*
X550499Y443999D01*
X549666D01*
X550499D01*
X551332Y443166D01*
Y442333D01*
X550499Y441500D01*
X548833D01*
X548000Y442333D01*
X552998Y441500D02*
X556331D01*
X552998D02*
X556331Y444832D01*
Y445665D01*
X555498Y446498D01*
X553831D01*
X552998Y445665D01*
X533733Y352898D02*
X532900Y352065D01*
X533733Y352898D02*
X535399D01*
X536232Y352065D01*
Y351232D01*
X536233D01*
X536232D02*
X536233D01*
X536232D02*
X536233D01*
X536232D02*
X535399Y350399D01*
X534566D01*
X535399D01*
X536232Y349566D01*
Y348733D01*
X535399Y347900D01*
X533733D01*
X532900Y348733D01*
X537898Y347900D02*
X541231D01*
X537898D02*
X541231Y351232D01*
Y352065D01*
X540398Y352898D01*
X538731D01*
X537898Y352065D01*
X499833Y377098D02*
X499000Y376265D01*
X499833Y377098D02*
X501499D01*
X502332Y376265D01*
Y375432D01*
X502333D01*
X502332D02*
X502333D01*
X502332D02*
X502333D01*
X502332D02*
X501499Y374599D01*
X500666D01*
X501499D01*
X502332Y373766D01*
Y372933D01*
X501499Y372100D01*
X499833D01*
X499000Y372933D01*
X503998Y372100D02*
X507331D01*
X503998D02*
X507331Y375432D01*
Y376265D01*
X506498Y377098D01*
X504831D01*
X503998Y376265D01*
X455985Y338876D02*
X455152Y338043D01*
X455985Y338876D02*
X457651D01*
X458484Y338043D01*
Y337210D01*
X458485D01*
X458484D02*
X458485D01*
X458484D02*
X458485D01*
X458484D02*
X457651Y336377D01*
X456818D01*
X457651D01*
X458484Y335544D01*
Y334711D01*
X457651Y333878D01*
X455985D01*
X455152Y334711D01*
X460150Y333878D02*
X463483D01*
X460150D02*
X463483Y337210D01*
Y338043D01*
X462650Y338876D01*
X460983D01*
X460150Y338043D01*
X522400Y278765D02*
X523233Y279598D01*
X524899D01*
X525732Y278765D01*
Y277932D01*
X525733D01*
X525732D02*
X525733D01*
X525732D02*
X525733D01*
X525732D02*
X524899Y277099D01*
X524066D01*
X524899D01*
X525732Y276266D01*
Y275433D01*
X524899Y274600D01*
X523233D01*
X522400Y275433D01*
X527398Y274600D02*
X530731D01*
X527398D02*
X530731Y277932D01*
Y278765D01*
X529898Y279598D01*
X528231D01*
X527398Y278765D01*
X454211Y295023D02*
X453378Y294190D01*
X454211Y295023D02*
X455877D01*
X456710Y294190D01*
Y293357D01*
X456711D01*
X456710D02*
X456711D01*
X456710D02*
X456711D01*
X456710D02*
X455877Y292524D01*
X455044D01*
X455877D01*
X456710Y291690D01*
Y290857D01*
X455877Y290024D01*
X454211D01*
X453378Y290857D01*
X458376Y290024D02*
X461709D01*
X458376D02*
X461709Y293357D01*
Y294190D01*
X460876Y295023D01*
X459209D01*
X458376Y294190D01*
X605500Y215700D02*
X607166D01*
X606333D01*
Y220698D01*
X606334D01*
X606333D02*
X605500Y219865D01*
X609665Y220698D02*
X612998D01*
X609665D02*
Y218199D01*
X611332Y219032D01*
X612164D01*
X612998Y218199D01*
Y216533D01*
X612164Y215700D01*
X610498D01*
X609665Y216533D01*
X616330Y219865D02*
X617996Y220698D01*
X616330Y219865D02*
X614664Y218199D01*
Y216533D01*
X615497Y215700D01*
X617163D01*
X617996Y216533D01*
Y217366D01*
X617163Y218199D01*
X614664D01*
X615833Y196998D02*
X615000Y196165D01*
X615833Y196998D02*
X617499D01*
X618332Y196165D01*
Y195332D01*
X618333D01*
X618332D02*
X618333D01*
X618332D02*
X618333D01*
X618332D02*
X617499Y194499D01*
X616666D01*
X617499D01*
X618332Y193666D01*
Y192833D01*
X617499Y192000D01*
X615833D01*
X615000Y192833D01*
X619998Y192000D02*
X623331D01*
X619998D02*
X623331Y195332D01*
Y196165D01*
X622498Y196998D01*
X620831D01*
X619998Y196165D01*
X613500Y263765D02*
X614333Y264598D01*
X615999D01*
X616832Y263765D01*
Y262932D01*
X616833D01*
X616832D02*
X616833D01*
X616832D02*
X616833D01*
X616832D02*
X615999Y262099D01*
X615166D01*
X615999D01*
X616832Y261266D01*
Y260433D01*
X615999Y259600D01*
X614333D01*
X613500Y260433D01*
X618498Y259600D02*
X621831D01*
X618498D02*
X621831Y262932D01*
Y263765D01*
X620998Y264598D01*
X619331D01*
X618498Y263765D01*
X614966Y151100D02*
X613300D01*
X614133D02*
X614966D01*
X614133D02*
Y156098D01*
X614134D01*
X614133D02*
X613300Y155265D01*
X617465D02*
X618298Y156098D01*
X619964D01*
X620798Y155265D01*
Y151933D01*
X619964Y151100D01*
X618298D01*
X617465Y151933D01*
Y155265D01*
X622464D02*
X623297Y156098D01*
X624963D01*
X625796Y155265D01*
Y151933D01*
X624963Y151100D01*
X623297D01*
X622464Y151933D01*
Y155265D01*
X596132Y112898D02*
X592800D01*
Y110399D01*
X594466Y111232D01*
X595299D01*
X596132Y110399D01*
Y108733D01*
X595299Y107900D01*
X593633D01*
X592800Y108733D01*
X597798Y107900D02*
X601131D01*
X597798D02*
X601131Y111232D01*
Y112065D01*
X600298Y112898D01*
X598631D01*
X597798Y112065D01*
X579532Y112898D02*
X576200D01*
Y110399D01*
X577866Y111232D01*
X578699D01*
X579532Y110399D01*
Y108733D01*
X578699Y107900D01*
X577033D01*
X576200Y108733D01*
X581198Y107900D02*
X584531D01*
X581198D02*
X584531Y111232D01*
Y112065D01*
X583698Y112898D01*
X582031D01*
X581198Y112065D01*
X484900Y217465D02*
X485733Y218298D01*
X487399D01*
X488232Y217465D01*
Y216632D01*
X488233D01*
X488232D02*
X488233D01*
X488232D02*
X488233D01*
X488232D02*
X487399Y215799D01*
X486566D01*
X487399D01*
X488232Y214966D01*
Y214133D01*
X487399Y213300D01*
X485733D01*
X484900Y214133D01*
X489898Y213300D02*
X493231D01*
X489898D02*
X493231Y216632D01*
Y217465D01*
X492398Y218298D01*
X490731D01*
X489898Y217465D01*
X553900Y182298D02*
X557232D01*
X553900D02*
Y179799D01*
X555566Y180632D01*
X556399D01*
X557232Y179799D01*
Y178133D01*
X556399Y177300D01*
X554733D01*
X553900Y178133D01*
X558898Y177300D02*
X562231D01*
X558898D02*
X562231Y180632D01*
Y181465D01*
X561398Y182298D01*
X559731D01*
X558898Y181465D01*
X485733Y208298D02*
X484900Y207465D01*
X485733Y208298D02*
X487399D01*
X488232Y207465D01*
Y206632D01*
X488233D01*
X488232D02*
X488233D01*
X488232D02*
X488233D01*
X488232D02*
X487399Y205799D01*
X486566D01*
X487399D01*
X488232Y204966D01*
Y204133D01*
X487399Y203300D01*
X485733D01*
X484900Y204133D01*
X489898Y203300D02*
X493231D01*
X489898D02*
X493231Y206632D01*
Y207465D01*
X492398Y208298D01*
X490731D01*
X489898Y207465D01*
X333145Y428594D02*
X333978Y429428D01*
X335644D01*
X336477Y428594D01*
Y427762D01*
X336478D01*
X336477D02*
X336478D01*
X336477D02*
X336478D01*
X336477D02*
X335644Y426928D01*
X334811D01*
X335644D01*
X336477Y426095D01*
Y425262D01*
X335644Y424429D01*
X333978D01*
X333145Y425262D01*
X338143Y424429D02*
X341476D01*
X338143D02*
X341476Y427762D01*
Y428594D01*
X340642Y429428D01*
X338976D01*
X338143Y428594D01*
X333633Y372498D02*
X332800Y371665D01*
X333633Y372498D02*
X335299D01*
X336132Y371665D01*
Y370832D01*
X336133D01*
X336132D02*
X336133D01*
X336132D02*
X336133D01*
X336132D02*
X335299Y369999D01*
X334466D01*
X335299D01*
X336132Y369166D01*
Y368333D01*
X335299Y367500D01*
X333633D01*
X332800Y368333D01*
X337798Y367500D02*
X341131D01*
X337798D02*
X341131Y370832D01*
Y371665D01*
X340298Y372498D01*
X338631D01*
X337798Y371665D01*
X453378Y284190D02*
X454211Y285023D01*
X455877D01*
X456710Y284190D01*
Y283357D01*
X456711D01*
X456710D02*
X456711D01*
X456710D02*
X456711D01*
X456710D02*
X455877Y282524D01*
X455044D01*
X455877D01*
X456710Y281690D01*
Y280857D01*
X455877Y280024D01*
X454211D01*
X453378Y280857D01*
X458376Y280024D02*
X461709D01*
X458376D02*
X461709Y283357D01*
Y284190D01*
X460876Y285023D01*
X459209D01*
X458376Y284190D01*
X454211Y275023D02*
X453378Y274190D01*
X454211Y275023D02*
X455877D01*
X456710Y274190D01*
Y273357D01*
X456711D01*
X456710D02*
X456711D01*
X456710D02*
X456711D01*
X456710D02*
X455877Y272524D01*
X455044D01*
X455877D01*
X456710Y271690D01*
Y270857D01*
X455877Y270024D01*
X454211D01*
X453378Y270857D01*
X458376Y270024D02*
X461709D01*
X458376D02*
X461709Y273357D01*
Y274190D01*
X460876Y275023D01*
X459209D01*
X458376Y274190D01*
X412685Y219001D02*
X411852Y218168D01*
X412685Y219001D02*
X414351D01*
X415184Y218168D01*
Y217335D01*
X415185D01*
X415184D02*
X415185D01*
X415184D02*
X415185D01*
X415184D02*
X414351Y216502D01*
X413518D01*
X414351D01*
X415184Y215668D01*
Y214835D01*
X414351Y214002D01*
X412685D01*
X411852Y214835D01*
X416850Y214002D02*
X420183D01*
X416850D02*
X420183Y217335D01*
Y218168D01*
X419350Y219001D01*
X417683D01*
X416850Y218168D01*
X442400Y156298D02*
X445732D01*
X442400D02*
Y153799D01*
X444066Y154632D01*
X444899D01*
X445732Y153799D01*
Y152133D01*
X444899Y151300D01*
X443233D01*
X442400Y152133D01*
X447398Y151300D02*
X450731D01*
X447398D02*
X450731Y154632D01*
Y155465D01*
X449898Y156298D01*
X448231D01*
X447398Y155465D01*
X403485Y119001D02*
X402652Y118168D01*
X403485Y119001D02*
X405151D01*
X405984Y118168D01*
Y117335D01*
X405985D01*
X405984D02*
X405985D01*
X405984D02*
X405985D01*
X405984D02*
X405151Y116502D01*
X404318D01*
X405151D01*
X405984Y115668D01*
Y114835D01*
X405151Y114002D01*
X403485D01*
X402652Y114835D01*
X407650Y114002D02*
X410983D01*
X407650D02*
X410983Y117335D01*
Y118168D01*
X410150Y119001D01*
X408483D01*
X407650Y118168D01*
X392952Y218168D02*
X393785Y219001D01*
X395451D01*
X396284Y218168D01*
Y217335D01*
X396285D01*
X396284D02*
X396285D01*
X396284D02*
X396285D01*
X396284D02*
X395451Y216502D01*
X394618D01*
X395451D01*
X396284Y215668D01*
Y214835D01*
X395451Y214002D01*
X393785D01*
X392952Y214835D01*
X397950Y214002D02*
X401283D01*
X397950D02*
X401283Y217335D01*
Y218168D01*
X400450Y219001D01*
X398783D01*
X397950Y218168D01*
X379252Y298968D02*
X380085Y299801D01*
X381751D01*
X382584Y298968D01*
Y298135D01*
X382585D01*
X382584D02*
X382585D01*
X382584D02*
X382585D01*
X382584D02*
X381751Y297302D01*
X380918D01*
X381751D01*
X382584Y296468D01*
Y295636D01*
X381751Y294802D01*
X380085D01*
X379252Y295636D01*
X384250Y294802D02*
X387583D01*
X384250D02*
X387583Y298135D01*
Y298968D01*
X386750Y299801D01*
X385083D01*
X384250Y298968D01*
X380085Y219801D02*
X379252Y218968D01*
X380085Y219801D02*
X381751D01*
X382584Y218968D01*
Y218135D01*
X382585D01*
X382584D02*
X382585D01*
X382584D02*
X382585D01*
X382584D02*
X381751Y217302D01*
X380918D01*
X381751D01*
X382584Y216468D01*
Y215636D01*
X381751Y214802D01*
X380085D01*
X379252Y215636D01*
X384250Y214802D02*
X387583D01*
X384250D02*
X387583Y218135D01*
Y218968D01*
X386750Y219801D01*
X385083D01*
X384250Y218968D01*
X337496Y517990D02*
X338329Y518823D01*
X339995D01*
X340828Y517990D01*
Y517157D01*
X340829D01*
X340828D02*
X340829D01*
X340828D02*
X340829D01*
X340828D02*
X339995Y516324D01*
X339162D01*
X339995D01*
X340828Y515490D01*
Y514658D01*
X339995Y513824D01*
X338329D01*
X337496Y514658D01*
X342494Y513824D02*
X345827D01*
X342494D02*
X345827Y517157D01*
Y517990D01*
X344994Y518823D01*
X343328D01*
X342494Y517990D01*
X224533Y559366D02*
X223700Y558533D01*
X224533Y559366D02*
X226199D01*
X227032Y558533D01*
Y557700D01*
X227033D01*
X227032D02*
X227033D01*
X227032D02*
X227033D01*
X227032D02*
X226199Y556867D01*
X225366D01*
X226199D01*
X227032Y556034D01*
Y555201D01*
X226199Y554368D01*
X224533D01*
X223700Y555201D01*
X228698Y554368D02*
X232031D01*
X228698D02*
X232031Y557700D01*
Y558533D01*
X231198Y559366D01*
X229531D01*
X228698Y558533D01*
X224433Y523298D02*
X223600Y522465D01*
X224433Y523298D02*
X226099D01*
X226932Y522465D01*
Y521632D01*
X226933D01*
X226932D02*
X226933D01*
X226932D02*
X226933D01*
X226932D02*
X226099Y520799D01*
X225266D01*
X226099D01*
X226932Y519966D01*
Y519133D01*
X226099Y518300D01*
X224433D01*
X223600Y519133D01*
X228598Y518300D02*
X231931D01*
X228598D02*
X231931Y521632D01*
Y522465D01*
X231098Y523298D01*
X229431D01*
X228598Y522465D01*
X133632Y511598D02*
X131966Y510765D01*
X130300Y509099D01*
Y507433D01*
X131133Y506600D01*
X132799D01*
X133632Y507433D01*
Y508266D01*
X132799Y509099D01*
X130300D01*
X135298Y506600D02*
X138631D01*
X135298D02*
X138631Y509932D01*
Y510765D01*
X137798Y511598D01*
X136131D01*
X135298Y510765D01*
X223592Y480431D02*
X224425Y481264D01*
X226091D01*
X226924Y480431D01*
Y479598D01*
X226925D01*
X226924D02*
X226925D01*
X226924D02*
X226925D01*
X226924D02*
X226091Y478765D01*
X225258D01*
X226091D01*
X226924Y477931D01*
Y477098D01*
X226091Y476265D01*
X224425D01*
X223592Y477098D01*
X228591Y476265D02*
X231923D01*
X228591D02*
X231923Y479598D01*
Y480431D01*
X231090Y481264D01*
X229424D01*
X228591Y480431D01*
X224490Y445333D02*
X223657Y444500D01*
X224490Y445333D02*
X226156D01*
X226989Y444500D01*
Y443667D01*
X226990D01*
X226989D02*
X226990D01*
X226989D02*
X226990D01*
X226989D02*
X226156Y442834D01*
X225323D01*
X226156D01*
X226989Y442001D01*
Y441168D01*
X226156Y440335D01*
X224490D01*
X223657Y441168D01*
X228655Y440335D02*
X231987D01*
X228655D02*
X231987Y443667D01*
Y444500D01*
X231154Y445333D01*
X229488D01*
X228655Y444500D01*
X133632Y437598D02*
X131966Y436765D01*
X130300Y435099D01*
Y433433D01*
X131133Y432600D01*
X132799D01*
X133632Y433433D01*
Y434266D01*
X132799Y435099D01*
X130300D01*
X135298Y432600D02*
X138631D01*
X135298D02*
X138631Y435932D01*
Y436765D01*
X137798Y437598D01*
X136131D01*
X135298Y436765D01*
X320085Y199801D02*
X319252Y198968D01*
X320085Y199801D02*
X321751D01*
X322584Y198968D01*
Y198135D01*
X322585D01*
X322584D02*
X322585D01*
X322584D02*
X322585D01*
X322584D02*
X321751Y197302D01*
X320918D01*
X321751D01*
X322584Y196468D01*
Y195636D01*
X321751Y194802D01*
X320085D01*
X319252Y195636D01*
X324250Y194802D02*
X327583D01*
X324250D02*
X327583Y198135D01*
Y198968D01*
X326750Y199801D01*
X325083D01*
X324250Y198968D01*
X320085Y119801D02*
X319252Y118968D01*
X320085Y119801D02*
X321751D01*
X322584Y118968D01*
Y118135D01*
X322585D01*
X322584D02*
X322585D01*
X322584D02*
X322585D01*
X322584D02*
X321751Y117302D01*
X320918D01*
X321751D01*
X322584Y116468D01*
Y115636D01*
X321751Y114802D01*
X320085D01*
X319252Y115636D01*
X324250Y114802D02*
X327583D01*
X324250D02*
X327583Y118135D01*
Y118968D01*
X326750Y119801D01*
X325083D01*
X324250Y118968D01*
X305062Y322365D02*
X305895Y323198D01*
X307561D01*
X308394Y322365D01*
Y321532D01*
X308395D01*
X308394D02*
X308395D01*
X308394D02*
X308395D01*
X308394D02*
X307561Y320699D01*
X306728D01*
X307561D01*
X308394Y319866D01*
Y319033D01*
X307561Y318200D01*
X305895D01*
X305062Y319033D01*
X310060Y318200D02*
X313392D01*
X310060D02*
X313392Y321532D01*
Y322365D01*
X312559Y323198D01*
X310893D01*
X310060Y322365D01*
X304985Y207401D02*
X304152Y206568D01*
X304985Y207401D02*
X306651D01*
X307484Y206568D01*
Y205735D01*
X307485D01*
X307484D02*
X307485D01*
X307484D02*
X307485D01*
X307484D02*
X306651Y204902D01*
X305818D01*
X306651D01*
X307484Y204068D01*
Y203236D01*
X306651Y202402D01*
X304985D01*
X304152Y203236D01*
X309150Y202402D02*
X312483D01*
X309150D02*
X312483Y205735D01*
Y206568D01*
X311650Y207401D01*
X309983D01*
X309150Y206568D01*
X219936Y373075D02*
X220769Y373908D01*
X222435D01*
X223268Y373075D01*
Y372242D01*
X223269D01*
X223268D02*
X223269D01*
X223268D02*
X223269D01*
X223268D02*
X222435Y371409D01*
X221602D01*
X222435D01*
X223268Y370576D01*
Y369742D01*
X222435Y368909D01*
X220769D01*
X219936Y369742D01*
X224934Y368909D02*
X228266D01*
X224934D02*
X228266Y372242D01*
Y373075D01*
X227433Y373908D01*
X225767D01*
X224934Y373075D01*
X219939Y408979D02*
X220772Y409812D01*
X222438D01*
X223271Y408979D01*
Y408146D01*
X223272D01*
X223271D02*
X223272D01*
X223271D02*
X223272D01*
X223271D02*
X222438Y407313D01*
X221605D01*
X222438D01*
X223271Y406480D01*
Y405646D01*
X222438Y404813D01*
X220772D01*
X219939Y405646D01*
X224937Y404813D02*
X228269D01*
X224937D02*
X228269Y408146D01*
Y408979D01*
X227436Y409812D01*
X225770D01*
X224937Y408979D01*
X223573Y330267D02*
X222740Y329434D01*
X223573Y330267D02*
X225239D01*
X226072Y329434D01*
Y328601D01*
X226074D01*
X226072D02*
X226074D01*
X226072D02*
X226074D01*
X226072D02*
X225239Y327768D01*
X224406D01*
X225239D01*
X226072Y326935D01*
Y326102D01*
X225239Y325268D01*
X223573D01*
X222740Y326102D01*
X227739Y325268D02*
X231071D01*
X227739D02*
X231071Y328601D01*
Y329434D01*
X230238Y330267D01*
X228572D01*
X227739Y329434D01*
X133632Y363598D02*
X131966Y362765D01*
X130300Y361099D01*
Y359433D01*
X131133Y358600D01*
X132799D01*
X133632Y359433D01*
Y360266D01*
X132799Y361099D01*
X130300D01*
X135298Y358600D02*
X138631D01*
X135298D02*
X138631Y361932D01*
Y362765D01*
X137798Y363598D01*
X136131D01*
X135298Y362765D01*
X222220Y296168D02*
X223054Y297001D01*
X224720D01*
X225553Y296168D01*
Y295335D01*
X225554D01*
X225553D02*
X225554D01*
X225553D02*
X225554D01*
X225553D02*
X224720Y294502D01*
X223887D01*
X224720D01*
X225553Y293668D01*
Y292836D01*
X224720Y292002D01*
X223054D01*
X222220Y292836D01*
X227219Y292002D02*
X230551D01*
X227219D02*
X230551Y295335D01*
Y296168D01*
X229718Y297001D01*
X228052D01*
X227219Y296168D01*
X231331Y229188D02*
X230498Y228355D01*
X231331Y229188D02*
X232997D01*
X233830Y228355D01*
Y227522D01*
X233831D01*
X233830D02*
X233831D01*
X233830D02*
X233831D01*
X233830D02*
X232997Y226689D01*
X232164D01*
X232997D01*
X233830Y225856D01*
Y225023D01*
X232997Y224190D01*
X231331D01*
X230498Y225023D01*
X235496Y224190D02*
X238828D01*
X235496D02*
X238828Y227522D01*
Y228355D01*
X237995Y229188D01*
X236329D01*
X235496Y228355D01*
X204878Y230596D02*
X204045Y229763D01*
X204878Y230596D02*
X206544D01*
X207377Y229763D01*
Y228930D01*
X207378D01*
X207377D02*
X207378D01*
X207377D02*
X207378D01*
X207377D02*
X206544Y228097D01*
X205711D01*
X206544D01*
X207377Y227264D01*
Y226431D01*
X206544Y225598D01*
X204878D01*
X204045Y226431D01*
X209044Y225598D02*
X212376D01*
X209044D02*
X212376Y228930D01*
Y229763D01*
X211543Y230596D01*
X209876D01*
X209044Y229763D01*
X263452Y178601D02*
X266784D01*
X263452D02*
Y176102D01*
X265118Y176935D01*
X265951D01*
X266784Y176102D01*
Y174435D01*
X265951Y173602D01*
X264285D01*
X263452Y174435D01*
X268450Y173602D02*
X271783D01*
X268450D02*
X271783Y176935D01*
Y177768D01*
X270950Y178601D01*
X269283D01*
X268450Y177768D01*
X145332Y139498D02*
X142000D01*
Y136999D01*
X143666Y137832D01*
X144499D01*
X145332Y136999D01*
Y135333D01*
X144499Y134500D01*
X142833D01*
X142000Y135333D01*
X146998Y134500D02*
X150331D01*
X146998D02*
X150331Y137832D01*
Y138665D01*
X149498Y139498D01*
X147831D01*
X146998Y138665D01*
X210383Y155169D02*
X211216Y156002D01*
X212882D01*
X213715Y155169D01*
Y154336D01*
X213716D01*
X213715D02*
X213716D01*
X213715D02*
X213716D01*
X213715D02*
X212882Y153503D01*
X212049D01*
X212882D01*
X213715Y152670D01*
Y151837D01*
X212882Y151004D01*
X211216D01*
X210383Y151837D01*
X215381Y151004D02*
X218713D01*
X215381D02*
X218713Y154336D01*
Y155169D01*
X217880Y156002D01*
X216214D01*
X215381Y155169D01*
X197731Y247384D02*
X198564Y248217D01*
X200230D01*
X201064Y247384D01*
Y246550D01*
X201064D01*
X201064D02*
X201064D01*
X201064D02*
X201064D01*
X201064D02*
X200230Y245717D01*
X199397D01*
X200230D01*
X201064Y244884D01*
Y244051D01*
X200230Y243218D01*
X198564D01*
X197731Y244051D01*
X202730Y243218D02*
X206062D01*
X202730D02*
X206062Y246550D01*
Y247384D01*
X205229Y248217D01*
X203563D01*
X202730Y247384D01*
X173302Y215580D02*
X172469Y214747D01*
X173302Y215580D02*
X174968D01*
X175801Y214747D01*
Y213914D01*
X175802D01*
X175801D02*
X175802D01*
X175801D02*
X175802D01*
X175801D02*
X174968Y213081D01*
X174135D01*
X174968D01*
X175801Y212248D01*
Y211415D01*
X174968Y210582D01*
X173302D01*
X172469Y211415D01*
X177467Y210582D02*
X180799D01*
X177467D02*
X180799Y213914D01*
Y214747D01*
X179966Y215580D01*
X178300D01*
X177467Y214747D01*
X137915Y204030D02*
X137082Y203197D01*
X137915Y204030D02*
X139581D01*
X140414Y203197D01*
Y202364D01*
X140415D01*
X140414D02*
X140415D01*
X140414D02*
X140415D01*
X140414D02*
X139581Y201530D01*
X138748D01*
X139581D01*
X140414Y200697D01*
Y199864D01*
X139581Y199031D01*
X137915D01*
X137082Y199864D01*
X142080Y199031D02*
X145412D01*
X142080D02*
X145412Y202364D01*
Y203197D01*
X144579Y204030D01*
X142913D01*
X142080Y203197D01*
X180633Y157898D02*
X179800Y157065D01*
X180633Y157898D02*
X182299D01*
X183132Y157065D01*
Y156232D01*
X183133D01*
X183132D02*
X183133D01*
X183132D02*
X183133D01*
X183132D02*
X182299Y155399D01*
X181466D01*
X182299D01*
X183132Y154566D01*
Y153733D01*
X182299Y152900D01*
X180633D01*
X179800Y153733D01*
X184798Y152900D02*
X188131D01*
X184798D02*
X188131Y156232D01*
Y157065D01*
X187298Y157898D01*
X185631D01*
X184798Y157065D01*
X138133Y171630D02*
X137300Y170797D01*
X138133Y171630D02*
X139799D01*
X140632Y170797D01*
Y169964D01*
X140633D01*
X140632D02*
X140633D01*
X140632D02*
X140633D01*
X140632D02*
X139799Y169131D01*
X138966D01*
X139799D01*
X140632Y168298D01*
Y167465D01*
X139799Y166632D01*
X138133D01*
X137300Y167465D01*
X142298Y166632D02*
X145631D01*
X142298D02*
X145631Y169964D01*
Y170797D01*
X144798Y171630D01*
X143131D01*
X142298Y170797D01*
X166628Y567765D02*
X167461Y568598D01*
X169127D01*
X169960Y567765D01*
Y566932D01*
X169961D01*
X169960D02*
X169961D01*
X169960D02*
X169961D01*
X169960D02*
X169127Y566099D01*
X168294D01*
X169127D01*
X169960Y565266D01*
Y564433D01*
X169127Y563600D01*
X167461D01*
X166628Y564433D01*
X171627Y563600D02*
X174959D01*
X171627D02*
X174959Y566932D01*
Y567765D01*
X174126Y568598D01*
X172460D01*
X171627Y567765D01*
X177837Y574712D02*
X178670Y575545D01*
X180336D01*
X181170Y574712D01*
Y573879D01*
X181171D01*
X181170D02*
X181171D01*
X181170D02*
X181171D01*
X181170D02*
X180336Y573046D01*
X179503D01*
X180336D01*
X181170Y572213D01*
Y571380D01*
X180336Y570546D01*
X178670D01*
X177837Y571380D01*
X182836Y570546D02*
X186168D01*
X182836D02*
X186168Y573879D01*
Y574712D01*
X185335Y575545D01*
X183669D01*
X182836Y574712D01*
X613500Y252865D02*
X614333Y253698D01*
X615999D01*
X616832Y252865D01*
Y252032D01*
X616833D01*
X616832D02*
X616833D01*
X616832D02*
X616833D01*
X616832D02*
X615999Y251199D01*
X615166D01*
X615999D01*
X616832Y250366D01*
Y249533D01*
X615999Y248700D01*
X614333D01*
X613500Y249533D01*
X618498Y248700D02*
X621831D01*
X618498D02*
X621831Y252032D01*
Y252865D01*
X620998Y253698D01*
X619331D01*
X618498Y252865D01*
X613500Y274665D02*
X614333Y275498D01*
X615999D01*
X616832Y274665D01*
Y273832D01*
X616833D01*
X616832D02*
X616833D01*
X616832D02*
X616833D01*
X616832D02*
X615999Y272999D01*
X615166D01*
X615999D01*
X616832Y272166D01*
Y271333D01*
X615999Y270500D01*
X614333D01*
X613500Y271333D01*
X618498Y270500D02*
X621831D01*
X618498D02*
X621831Y273832D01*
Y274665D01*
X620998Y275498D01*
X619331D01*
X618498Y274665D01*
X613500Y285565D02*
X614333Y286398D01*
X615999D01*
X616832Y285565D01*
Y284732D01*
X616833D01*
X616832D02*
X616833D01*
X616832D02*
X616833D01*
X616832D02*
X615999Y283899D01*
X615166D01*
X615999D01*
X616832Y283066D01*
Y282233D01*
X615999Y281400D01*
X614333D01*
X613500Y282233D01*
X618498Y281400D02*
X621831D01*
X618498D02*
X621831Y284732D01*
Y285565D01*
X620998Y286398D01*
X619331D01*
X618498Y285565D01*
X603333Y248198D02*
X602500Y247365D01*
X603333Y248198D02*
X604999D01*
X605832Y247365D01*
Y246532D01*
X605833D01*
X605832D02*
X605833D01*
X605832D02*
X605833D01*
X605832D02*
X604999Y245699D01*
X604166D01*
X604999D01*
X605832Y244866D01*
Y244033D01*
X604999Y243200D01*
X603333D01*
X602500Y244033D01*
X607498Y243200D02*
X610831D01*
X607498D02*
X610831Y246532D01*
Y247365D01*
X609998Y248198D01*
X608331D01*
X607498Y247365D01*
X602500Y269165D02*
X603333Y269998D01*
X604999D01*
X605832Y269165D01*
Y268332D01*
X605833D01*
X605832D02*
X605833D01*
X605832D02*
X605833D01*
X605832D02*
X604999Y267499D01*
X604166D01*
X604999D01*
X605832Y266666D01*
Y265833D01*
X604999Y265000D01*
X603333D01*
X602500Y265833D01*
X607498Y265000D02*
X610831D01*
X607498D02*
X610831Y268332D01*
Y269165D01*
X609998Y269998D01*
X608331D01*
X607498Y269165D01*
X603333Y259098D02*
X602500Y258265D01*
X603333Y259098D02*
X604999D01*
X605832Y258265D01*
Y257432D01*
X605833D01*
X605832D02*
X605833D01*
X605832D02*
X605833D01*
X605832D02*
X604999Y256599D01*
X604166D01*
X604999D01*
X605832Y255766D01*
Y254933D01*
X604999Y254100D01*
X603333D01*
X602500Y254933D01*
X607498Y254100D02*
X610831D01*
X607498D02*
X610831Y257432D01*
Y258265D01*
X609998Y259098D01*
X608331D01*
X607498Y258265D01*
X238833Y145098D02*
X238000Y144265D01*
X238833Y145098D02*
X240499D01*
X241332Y144265D01*
Y143432D01*
X241333D01*
X241332D02*
X241333D01*
X241332D02*
X241333D01*
X241332D02*
X240499Y142599D01*
X239666D01*
X240499D01*
X241332Y141766D01*
Y140933D01*
X240499Y140100D01*
X238833D01*
X238000Y140933D01*
X242998Y140100D02*
X246331D01*
X242998D02*
X246331Y143432D01*
Y144265D01*
X245498Y145098D01*
X243831D01*
X242998Y144265D01*
X601400Y119898D02*
X604732D01*
X601400D02*
Y117399D01*
X603066Y118232D01*
X603899D01*
X604732Y117399D01*
Y115733D01*
X603899Y114900D01*
X602233D01*
X601400Y115733D01*
X606398Y114900D02*
X609731D01*
X606398D02*
X609731Y118232D01*
Y119065D01*
X608898Y119898D01*
X607231D01*
X606398Y119065D01*
X484969Y132980D02*
X484136Y132147D01*
X484969Y132980D02*
X486635D01*
X487469Y132147D01*
Y131314D01*
X487470D01*
X487469D02*
X487470D01*
X487469D02*
X487470D01*
X487469D02*
X486635Y130481D01*
X485802D01*
X486635D01*
X487469Y129648D01*
Y128815D01*
X486635Y127982D01*
X484969D01*
X484136Y128815D01*
X489135Y127982D02*
X492467D01*
X489135D02*
X492467Y131314D01*
Y132147D01*
X491634Y132980D01*
X489968D01*
X489135Y132147D01*
X514900Y207465D02*
X515733Y208298D01*
X517399D01*
X518232Y207465D01*
Y206632D01*
X518233D01*
X518232D02*
X518233D01*
X518232D02*
X518233D01*
X518232D02*
X517399Y205799D01*
X516566D01*
X517399D01*
X518232Y204966D01*
Y204133D01*
X517399Y203300D01*
X515733D01*
X514900Y204133D01*
X519898Y203300D02*
X523231D01*
X519898D02*
X523231Y206632D01*
Y207465D01*
X522398Y208298D01*
X520731D01*
X519898Y207465D01*
X515733Y198298D02*
X514900Y197465D01*
X515733Y198298D02*
X517399D01*
X518232Y197465D01*
Y196632D01*
X518233D01*
X518232D02*
X518233D01*
X518232D02*
X518233D01*
X518232D02*
X517399Y195799D01*
X516566D01*
X517399D01*
X518232Y194966D01*
Y194133D01*
X517399Y193300D01*
X515733D01*
X514900Y194133D01*
X519898Y193300D02*
X523231D01*
X519898D02*
X523231Y196632D01*
Y197465D01*
X522398Y198298D01*
X520731D01*
X519898Y197465D01*
X515733Y188298D02*
X514900Y187465D01*
X515733Y188298D02*
X517399D01*
X518232Y187465D01*
Y186632D01*
X518233D01*
X518232D02*
X518233D01*
X518232D02*
X518233D01*
X518232D02*
X517399Y185799D01*
X516566D01*
X517399D01*
X518232Y184966D01*
Y184133D01*
X517399Y183300D01*
X515733D01*
X514900Y184133D01*
X519898Y183300D02*
X523231D01*
X519898D02*
X523231Y186632D01*
Y187465D01*
X522398Y188298D01*
X520731D01*
X519898Y187465D01*
X378932Y540319D02*
X379765Y541152D01*
X381432D01*
X382265Y540319D01*
Y539486D01*
X382266D01*
X382265D02*
X382266D01*
X382265D02*
X382266D01*
X382265D02*
X381432Y538653D01*
X380598D01*
X381432D01*
X382265Y537820D01*
Y536987D01*
X381432Y536154D01*
X379765D01*
X378932Y536987D01*
X383931Y536154D02*
X387263D01*
X383931D02*
X387263Y539486D01*
Y540319D01*
X386430Y541152D01*
X384764D01*
X383931Y540319D01*
X379754Y516007D02*
X378921Y515174D01*
X379754Y516007D02*
X381420D01*
X382254Y515174D01*
Y514341D01*
X382254D01*
X382254D02*
X382254D01*
X382254D02*
X382254D01*
X382254D02*
X381420Y513508D01*
X380587D01*
X381420D01*
X382254Y512675D01*
Y511842D01*
X381420Y511009D01*
X379754D01*
X378921Y511842D01*
X383920Y511009D02*
X387252D01*
X383920D02*
X387252Y514341D01*
Y515174D01*
X386419Y516007D01*
X384753D01*
X383920Y515174D01*
X305895Y333198D02*
X305062Y332365D01*
X305895Y333198D02*
X307561D01*
X308394Y332365D01*
Y331532D01*
X308395D01*
X308394D02*
X308395D01*
X308394D02*
X308395D01*
X308394D02*
X307561Y330699D01*
X306728D01*
X307561D01*
X308394Y329866D01*
Y329033D01*
X307561Y328200D01*
X305895D01*
X305062Y329033D01*
X310060Y328200D02*
X313392D01*
X310060D02*
X313392Y331532D01*
Y332365D01*
X312559Y333198D01*
X310893D01*
X310060Y332365D01*
X111666Y115000D02*
X110000D01*
X110833D02*
X111666D01*
X110833D02*
Y119998D01*
X110834D01*
X110833D02*
X110000Y119165D01*
X114165Y115000D02*
X117498D01*
X114165D02*
X117498Y118332D01*
Y119165D01*
X116664Y119998D01*
X114998D01*
X114165Y119165D01*
X119164D02*
X119997Y119998D01*
X121663D01*
X122496Y119165D01*
Y115833D01*
X121663Y115000D01*
X119997D01*
X119164Y115833D01*
Y119165D01*
X618500Y580000D02*
X620166D01*
X619333D01*
Y584998D01*
X619334D01*
X619333D02*
X618500Y584165D01*
X622665Y580000D02*
X625998D01*
X622665D02*
X625998Y583332D01*
Y584165D01*
X625164Y584998D01*
X623498D01*
X622665Y584165D01*
X627664D02*
X628497Y584998D01*
X630163D01*
X630996Y584165D01*
Y580833D01*
X630163Y580000D01*
X628497D01*
X627664Y580833D01*
Y584165D01*
X111666Y580000D02*
X110000D01*
X110833D02*
X111666D01*
X110833D02*
Y584998D01*
X110834D01*
X110833D02*
X110000Y584165D01*
X114165Y580000D02*
X117498D01*
X114165D02*
X117498Y583332D01*
Y584165D01*
X116664Y584998D01*
X114998D01*
X114165Y584165D01*
X119164D02*
X119997Y584998D01*
X121663D01*
X122496Y584165D01*
Y580833D01*
X121663Y580000D01*
X119997D01*
X119164Y580833D01*
Y584165D01*
X602500Y456665D02*
X603333Y457498D01*
X604999D01*
X605832Y456665D01*
Y455832D01*
X605833D01*
X605832D02*
X605833D01*
X605832D02*
X605833D01*
X605832D02*
X604999Y454999D01*
X604166D01*
X604999D01*
X605832Y454166D01*
Y453333D01*
X604999Y452500D01*
X603333D01*
X602500Y453333D01*
X607498Y452500D02*
X610831D01*
X607498D02*
X610831Y455832D01*
Y456665D01*
X609998Y457498D01*
X608331D01*
X607498Y456665D01*
X603333Y435698D02*
X602500Y434865D01*
X603333Y435698D02*
X604999D01*
X605832Y434865D01*
Y434032D01*
X605833D01*
X605832D02*
X605833D01*
X605832D02*
X605833D01*
X605832D02*
X604999Y433199D01*
X604166D01*
X604999D01*
X605832Y432366D01*
Y431533D01*
X604999Y430700D01*
X603333D01*
X602500Y431533D01*
X607498Y430700D02*
X610831D01*
X607498D02*
X610831Y434032D01*
Y434865D01*
X609998Y435698D01*
X608331D01*
X607498Y434865D01*
X603333Y424798D02*
X602500Y423965D01*
X603333Y424798D02*
X604999D01*
X605832Y423965D01*
Y423132D01*
X605833D01*
X605832D02*
X605833D01*
X605832D02*
X605833D01*
X605832D02*
X604999Y422299D01*
X604166D01*
X604999D01*
X605832Y421466D01*
Y420633D01*
X604999Y419800D01*
X603333D01*
X602500Y420633D01*
X607498Y419800D02*
X610831D01*
X607498D02*
X610831Y423132D01*
Y423965D01*
X609998Y424798D01*
X608331D01*
X607498Y423965D01*
X613500Y451165D02*
X614333Y451998D01*
X615999D01*
X616832Y451165D01*
Y450332D01*
X616833D01*
X616832D02*
X616833D01*
X616832D02*
X616833D01*
X616832D02*
X615999Y449499D01*
X615166D01*
X615999D01*
X616832Y448666D01*
Y447833D01*
X615999Y447000D01*
X614333D01*
X613500Y447833D01*
X618498Y447000D02*
X621831D01*
X618498D02*
X621831Y450332D01*
Y451165D01*
X620998Y451998D01*
X619331D01*
X618498Y451165D01*
X614333Y441098D02*
X613500Y440265D01*
X614333Y441098D02*
X615999D01*
X616832Y440265D01*
Y439432D01*
X616833D01*
X616832D02*
X616833D01*
X616832D02*
X616833D01*
X616832D02*
X615999Y438599D01*
X615166D01*
X615999D01*
X616832Y437766D01*
Y436933D01*
X615999Y436100D01*
X614333D01*
X613500Y436933D01*
X618498Y436100D02*
X621831D01*
X618498D02*
X621831Y439432D01*
Y440265D01*
X620998Y441098D01*
X619331D01*
X618498Y440265D01*
X614333Y430198D02*
X613500Y429365D01*
X614333Y430198D02*
X615999D01*
X616832Y429365D01*
Y428532D01*
X616833D01*
X616832D02*
X616833D01*
X616832D02*
X616833D01*
X616832D02*
X615999Y427699D01*
X615166D01*
X615999D01*
X616832Y426866D01*
Y426033D01*
X615999Y425200D01*
X614333D01*
X613500Y426033D01*
X618498Y425200D02*
X621831D01*
X618498D02*
X621831Y428532D01*
Y429365D01*
X620998Y430198D01*
X619331D01*
X618498Y429365D01*
X602500Y445765D02*
X603333Y446598D01*
X604999D01*
X605832Y445765D01*
Y444932D01*
X605833D01*
X605832D02*
X605833D01*
X605832D02*
X605833D01*
X605832D02*
X604999Y444099D01*
X604166D01*
X604999D01*
X605832Y443266D01*
Y442433D01*
X604999Y441600D01*
X603333D01*
X602500Y442433D01*
X607498Y441600D02*
X610831D01*
X607498D02*
X610831Y444932D01*
Y445765D01*
X609998Y446598D01*
X608331D01*
X607498Y445765D01*
X436327Y314232D02*
X435494Y313399D01*
X436327Y314232D02*
X437994D01*
X438827Y313399D01*
Y312566D01*
X438828D01*
X438827D02*
X438828D01*
X438827D02*
X438828D01*
X438827D02*
X437994Y311733D01*
X437161D01*
X437994D01*
X438827Y310900D01*
Y310067D01*
X437994Y309234D01*
X436327D01*
X435494Y310067D01*
X440493Y309234D02*
X443825D01*
X440493D02*
X443825Y312566D01*
Y313399D01*
X442992Y314232D01*
X441326D01*
X440493Y313399D01*
X445494D02*
X446327Y314232D01*
X447994D01*
X448827Y313399D01*
Y312566D01*
X448828D01*
X448827D02*
X448828D01*
X448827D02*
X448828D01*
X448827D02*
X447994Y311733D01*
X447161D01*
X447994D01*
X448827Y310900D01*
Y310067D01*
X447994Y309234D01*
X446327D01*
X445494Y310067D01*
X450493Y309234D02*
X453825D01*
X450493D02*
X453825Y312566D01*
Y313399D01*
X452992Y314232D01*
X451326D01*
X450493Y313399D01*
X406328Y314232D02*
X405494Y313399D01*
X406328Y314232D02*
X407994D01*
X408827Y313399D01*
Y312566D01*
X408828D01*
X408827D02*
X408828D01*
X408827D02*
X408828D01*
X408827D02*
X407994Y311733D01*
X407161D01*
X407994D01*
X408827Y310900D01*
Y310067D01*
X407994Y309234D01*
X406328D01*
X405494Y310067D01*
X410493Y309234D02*
X413825D01*
X410493D02*
X413825Y312566D01*
Y313399D01*
X412992Y314232D01*
X411326D01*
X410493Y313399D01*
X415494D02*
X416327Y314232D01*
X417994D01*
X418827Y313399D01*
Y312566D01*
X418828D01*
X418827D02*
X418828D01*
X418827D02*
X418828D01*
X418827D02*
X417994Y311733D01*
X417161D01*
X417994D01*
X418827Y310900D01*
Y310067D01*
X417994Y309234D01*
X416327D01*
X415494Y310067D01*
X420493Y309234D02*
X423825D01*
X420493D02*
X423825Y312566D01*
Y313399D01*
X422992Y314232D01*
X421326D01*
X420493Y313399D01*
X425494D02*
X426327Y314232D01*
X427994D01*
X428827Y313399D01*
Y312566D01*
X428828D01*
X428827D02*
X428828D01*
X428827D02*
X428828D01*
X428827D02*
X427994Y311733D01*
X427161D01*
X427994D01*
X428827Y310900D01*
Y310067D01*
X427994Y309234D01*
X426327D01*
X425494Y310067D01*
X430493Y309234D02*
X433825D01*
X430493D02*
X433825Y312566D01*
Y313399D01*
X432992Y314232D01*
X431326D01*
X430493Y313399D01*
X240769Y373908D02*
X239936Y373075D01*
X240769Y373908D02*
X242435D01*
X243268Y373075D01*
Y372242D01*
X243269D01*
X243268D02*
X243269D01*
X243268D02*
X243269D01*
X243268D02*
X242435Y371409D01*
X241602D01*
X242435D01*
X243268Y370576D01*
Y369742D01*
X242435Y368909D01*
X240769D01*
X239936Y369742D01*
X244934Y368909D02*
X248266D01*
X244934D02*
X248266Y372242D01*
Y373075D01*
X247433Y373908D01*
X245767D01*
X244934Y373075D01*
X262487Y399998D02*
X263320Y400831D01*
X264986D01*
X265819Y399998D01*
Y399165D01*
X265820D01*
X265819D02*
X265820D01*
X265819D02*
X265820D01*
X265819D02*
X264986Y398332D01*
X264153D01*
X264986D01*
X265819Y397498D01*
Y396665D01*
X264986Y395832D01*
X263320D01*
X262487Y396665D01*
X267485Y395832D02*
X270817D01*
X267485D02*
X270817Y399165D01*
Y399998D01*
X269984Y400831D01*
X268318D01*
X267485Y399998D01*
X262487Y419998D02*
X263320Y420831D01*
X264986D01*
X265819Y419998D01*
Y419165D01*
X265820D01*
X265819D02*
X265820D01*
X265819D02*
X265820D01*
X265819D02*
X264986Y418331D01*
X264153D01*
X264986D01*
X265819Y417498D01*
Y416665D01*
X264986Y415832D01*
X263320D01*
X262487Y416665D01*
X267485Y415832D02*
X270817D01*
X267485D02*
X270817Y419165D01*
Y419998D01*
X269984Y420831D01*
X268318D01*
X267485Y419998D01*
X211216Y186002D02*
X210383Y185169D01*
X211216Y186002D02*
X212882D01*
X213715Y185169D01*
Y184336D01*
X213716D01*
X213715D02*
X213716D01*
X213715D02*
X213716D01*
X213715D02*
X212882Y183503D01*
X212049D01*
X212882D01*
X213715Y182670D01*
Y181837D01*
X212882Y181004D01*
X211216D01*
X210383Y181837D01*
X215381Y181004D02*
X218713D01*
X215381D02*
X218713Y184336D01*
Y185169D01*
X217880Y186002D01*
X216214D01*
X215381Y185169D01*
X211216Y166002D02*
X210383Y165169D01*
X211216Y166002D02*
X212882D01*
X213715Y165169D01*
Y164336D01*
X213716D01*
X213715D02*
X213716D01*
X213715D02*
X213716D01*
X213715D02*
X212882Y163503D01*
X212049D01*
X212882D01*
X213715Y162670D01*
Y161837D01*
X212882Y161004D01*
X211216D01*
X210383Y161837D01*
X215381Y161004D02*
X218713D01*
X215381D02*
X218713Y164336D01*
Y165169D01*
X217880Y166002D01*
X216214D01*
X215381Y165169D01*
X240383Y155169D02*
X241216Y156002D01*
X242882D01*
X243715Y155169D01*
Y154336D01*
X243716D01*
X243715D02*
X243716D01*
X243715D02*
X243716D01*
X243715D02*
X242882Y153503D01*
X242049D01*
X242882D01*
X243715Y152670D01*
Y151837D01*
X242882Y151004D01*
X241216D01*
X240383Y151837D01*
X245381Y151004D02*
X248713D01*
X245381D02*
X248713Y154336D01*
Y155169D01*
X247880Y156002D01*
X246214D01*
X245381Y155169D01*
X240383Y175169D02*
X241216Y176002D01*
X242882D01*
X243715Y175169D01*
Y174336D01*
X243716D01*
X243715D02*
X243716D01*
X243715D02*
X243716D01*
X243715D02*
X242882Y173503D01*
X242049D01*
X242882D01*
X243715Y172670D01*
Y171837D01*
X242882Y171004D01*
X241216D01*
X240383Y171837D01*
X245381Y171004D02*
X248713D01*
X245381D02*
X248713Y174336D01*
Y175169D01*
X247880Y176002D01*
X246214D01*
X245381Y175169D01*
X240383Y195169D02*
X241216Y196002D01*
X242882D01*
X243715Y195169D01*
Y194336D01*
X243716D01*
X243715D02*
X243716D01*
X243715D02*
X243716D01*
X243715D02*
X242882Y193503D01*
X242049D01*
X242882D01*
X243715Y192670D01*
Y191837D01*
X242882Y191004D01*
X241216D01*
X240383Y191837D01*
X245381Y191004D02*
X248713D01*
X245381D02*
X248713Y194336D01*
Y195169D01*
X247880Y196002D01*
X246214D01*
X245381Y195169D01*
X241216Y166002D02*
X240383Y165169D01*
X241216Y166002D02*
X242882D01*
X243715Y165169D01*
Y164336D01*
X243716D01*
X243715D02*
X243716D01*
X243715D02*
X243716D01*
X243715D02*
X242882Y163503D01*
X242049D01*
X242882D01*
X243715Y162670D01*
Y161837D01*
X242882Y161004D01*
X241216D01*
X240383Y161837D01*
X245381Y161004D02*
X248713D01*
X245381D02*
X248713Y164336D01*
Y165169D01*
X247880Y166002D01*
X246214D01*
X245381Y165169D01*
X210383Y205169D02*
X211216Y206002D01*
X212882D01*
X213715Y205169D01*
Y204336D01*
X213716D01*
X213715D02*
X213716D01*
X213715D02*
X213716D01*
X213715D02*
X212882Y203503D01*
X212049D01*
X212882D01*
X213715Y202670D01*
Y201837D01*
X212882Y201004D01*
X211216D01*
X210383Y201837D01*
X215381Y201004D02*
X218713D01*
X215381D02*
X218713Y204336D01*
Y205169D01*
X217880Y206002D01*
X216214D01*
X215381Y205169D01*
X249885Y425576D02*
X250718Y426409D01*
X252384D01*
X253217Y425576D01*
Y424742D01*
X253218D01*
X253217D02*
X253218D01*
X253217D02*
X253218D01*
X253217D02*
X252384Y423909D01*
X251551D01*
X252384D01*
X253217Y423076D01*
Y422243D01*
X252384Y421410D01*
X250718D01*
X249885Y422243D01*
X254883Y421410D02*
X258216D01*
X254883D02*
X258216Y424742D01*
Y425576D01*
X257383Y426409D01*
X255716D01*
X254883Y425576D01*
X252854Y312961D02*
X252020Y312128D01*
X252854Y312961D02*
X254520D01*
X255353Y312128D01*
Y311295D01*
X255354D01*
X255353D02*
X255354D01*
X255353D02*
X255354D01*
X255353D02*
X254520Y310462D01*
X253687D01*
X254520D01*
X255353Y309629D01*
Y308796D01*
X254520Y307963D01*
X252854D01*
X252020Y308796D01*
X257019Y307963D02*
X260351D01*
X257019D02*
X260351Y311295D01*
Y312128D01*
X259518Y312961D01*
X257852D01*
X257019Y312128D01*
X249934Y344061D02*
X250767Y344894D01*
X252433D01*
X253266Y344061D01*
Y343228D01*
X253267D01*
X253266D02*
X253267D01*
X253266D02*
X253267D01*
X253266D02*
X252433Y342394D01*
X251600D01*
X252433D01*
X253266Y341561D01*
Y340728D01*
X252433Y339895D01*
X250767D01*
X249934Y340728D01*
X254932Y339895D02*
X258264D01*
X254932D02*
X258264Y343228D01*
Y344061D01*
X257431Y344894D01*
X255765D01*
X254932Y344061D01*
X239939Y408979D02*
X240772Y409812D01*
X242438D01*
X243271Y408979D01*
Y408146D01*
X243272D01*
X243271D02*
X243272D01*
X243271D02*
X243272D01*
X243271D02*
X242438Y407313D01*
X241605D01*
X242438D01*
X243271Y406480D01*
Y405646D01*
X242438Y404813D01*
X240772D01*
X239939Y405646D01*
X244937Y404813D02*
X248269D01*
X244937D02*
X248269Y408146D01*
Y408979D01*
X247436Y409812D01*
X245770D01*
X244937Y408979D01*
X243054Y297001D02*
X242220Y296168D01*
X243054Y297001D02*
X244720D01*
X245553Y296168D01*
Y295335D01*
X245554D01*
X245553D02*
X245554D01*
X245553D02*
X245554D01*
X245553D02*
X244720Y294502D01*
X243887D01*
X244720D01*
X245553Y293668D01*
Y292836D01*
X244720Y292002D01*
X243054D01*
X242220Y292836D01*
X247219Y292002D02*
X250551D01*
X247219D02*
X250551Y295335D01*
Y296168D01*
X249718Y297001D01*
X248052D01*
X247219Y296168D01*
X242740Y329434D02*
X243573Y330267D01*
X245239D01*
X246072Y329434D01*
Y328601D01*
X246074D01*
X246072D02*
X246074D01*
X246072D02*
X246074D01*
X246072D02*
X245239Y327768D01*
X244406D01*
X245239D01*
X246072Y326935D01*
Y326102D01*
X245239Y325268D01*
X243573D01*
X242740Y326102D01*
X247739Y325268D02*
X251071D01*
X247739D02*
X251071Y328601D01*
Y329434D01*
X250238Y330267D01*
X248572D01*
X247739Y329434D01*
X282152Y204201D02*
X285484D01*
X282152D02*
Y201702D01*
X283818Y202535D01*
X284651D01*
X285484Y201702D01*
Y200035D01*
X284651Y199202D01*
X282985D01*
X282152Y200035D01*
X287150Y199202D02*
X290483D01*
X287150D02*
X290483Y202535D01*
Y203368D01*
X289650Y204201D01*
X287983D01*
X287150Y203368D01*
X266784Y156601D02*
X263452D01*
Y154102D01*
X265118Y154935D01*
X265951D01*
X266784Y154102D01*
Y152435D01*
X265951Y151602D01*
X264285D01*
X263452Y152435D01*
X268450Y151602D02*
X271783D01*
X268450D02*
X271783Y154935D01*
Y155768D01*
X270950Y156601D01*
X269283D01*
X268450Y155768D01*
X499000Y416965D02*
X499833Y417798D01*
X501499D01*
X502332Y416965D01*
Y416132D01*
X502333D01*
X502332D02*
X502333D01*
X502332D02*
X502333D01*
X502332D02*
X501499Y415299D01*
X500666D01*
X501499D01*
X502332Y414466D01*
Y413633D01*
X501499Y412800D01*
X499833D01*
X499000Y413633D01*
X503998Y412800D02*
X507331D01*
X503998D02*
X507331Y416132D01*
Y416965D01*
X506498Y417798D01*
X504831D01*
X503998Y416965D01*
X499833Y407798D02*
X499000Y406965D01*
X499833Y407798D02*
X501499D01*
X502332Y406965D01*
Y406132D01*
X502333D01*
X502332D02*
X502333D01*
X502332D02*
X502333D01*
X502332D02*
X501499Y405299D01*
X500666D01*
X501499D01*
X502332Y404466D01*
Y403633D01*
X501499Y402800D01*
X499833D01*
X499000Y403633D01*
X503998Y402800D02*
X507331D01*
X503998D02*
X507331Y406132D01*
Y406965D01*
X506498Y407798D01*
X504831D01*
X503998Y406965D01*
X498800Y442165D02*
X499633Y442998D01*
X501299D01*
X502132Y442165D01*
Y441332D01*
X502133D01*
X502132D02*
X502133D01*
X502132D02*
X502133D01*
X502132D02*
X501299Y440499D01*
X500466D01*
X501299D01*
X502132Y439666D01*
Y438833D01*
X501299Y438000D01*
X499633D01*
X498800Y438833D01*
X503798Y438000D02*
X507131D01*
X503798D02*
X507131Y441332D01*
Y442165D01*
X506298Y442998D01*
X504631D01*
X503798Y442165D01*
X499633Y432998D02*
X498800Y432165D01*
X499633Y432998D02*
X501299D01*
X502132Y432165D01*
Y431332D01*
X502133D01*
X502132D02*
X502133D01*
X502132D02*
X502133D01*
X502132D02*
X501299Y430499D01*
X500466D01*
X501299D01*
X502132Y429666D01*
Y428833D01*
X501299Y428000D01*
X499633D01*
X498800Y428833D01*
X503798Y428000D02*
X507131D01*
X503798D02*
X507131Y431332D01*
Y432165D01*
X506298Y432998D01*
X504631D01*
X503798Y432165D01*
X498800Y459465D02*
X499633Y460298D01*
X501299D01*
X502132Y459465D01*
Y458632D01*
X502133D01*
X502132D02*
X502133D01*
X502132D02*
X502133D01*
X502132D02*
X501299Y457799D01*
X500466D01*
X501299D01*
X502132Y456966D01*
Y456133D01*
X501299Y455300D01*
X499633D01*
X498800Y456133D01*
X503798Y455300D02*
X507131D01*
X503798D02*
X507131Y458632D01*
Y459465D01*
X506298Y460298D01*
X504631D01*
X503798Y459465D01*
X553900Y164298D02*
X557232D01*
X553900D02*
Y161799D01*
X555566Y162632D01*
X556399D01*
X557232Y161799D01*
Y160133D01*
X556399Y159300D01*
X554733D01*
X553900Y160133D01*
X558898Y159300D02*
X562231D01*
X558898D02*
X562231Y162632D01*
Y163465D01*
X561398Y164298D01*
X559731D01*
X558898Y163465D01*
X573600Y552965D02*
X574433Y553798D01*
X576099D01*
X576932Y552965D01*
Y552132D01*
X576933D01*
X576932D02*
X576933D01*
X576932D02*
X576933D01*
X576932D02*
X576099Y551299D01*
X575266D01*
X576099D01*
X576932Y550466D01*
Y549633D01*
X576099Y548800D01*
X574433D01*
X573600Y549633D01*
X578598Y548800D02*
X581931D01*
X578598D02*
X581931Y552132D01*
Y552965D01*
X581098Y553798D01*
X579431D01*
X578598Y552965D01*
X615833Y186998D02*
X615000Y186165D01*
X615833Y186998D02*
X617499D01*
X618332Y186165D01*
Y185332D01*
X618333D01*
X618332D02*
X618333D01*
X618332D02*
X618333D01*
X618332D02*
X617499Y184499D01*
X616666D01*
X617499D01*
X618332Y183666D01*
Y182833D01*
X617499Y182000D01*
X615833D01*
X615000Y182833D01*
X619998Y182000D02*
X623331D01*
X619998D02*
X623331Y185332D01*
Y186165D01*
X622498Y186998D01*
X620831D01*
X619998Y186165D01*
X592966Y150100D02*
X591300D01*
X592133D02*
X592966D01*
X592133D02*
Y155098D01*
X592134D01*
X592133D02*
X591300Y154265D01*
X595465Y150100D02*
X598798D01*
X595465D02*
X598798Y153432D01*
Y154265D01*
X597964Y155098D01*
X596298D01*
X595465Y154265D01*
X600464D02*
X601297Y155098D01*
X602963D01*
X603796Y154265D01*
Y150933D01*
X602963Y150100D01*
X601297D01*
X600464Y150933D01*
Y154265D01*
X443072Y132020D02*
X442239Y131187D01*
X443072Y132020D02*
X444738D01*
X445571Y131187D01*
Y130354D01*
X445572D01*
X445571D02*
X445572D01*
X445571D02*
X445572D01*
X445571D02*
X444738Y129520D01*
X443905D01*
X444738D01*
X445571Y128687D01*
Y127854D01*
X444738Y127021D01*
X443072D01*
X442239Y127854D01*
X447237Y127021D02*
X450569D01*
X447237D02*
X450569Y130354D01*
Y131187D01*
X449736Y132020D01*
X448070D01*
X447237Y131187D01*
X403072Y132020D02*
X402239Y131187D01*
X403072Y132020D02*
X404738D01*
X405571Y131187D01*
Y130354D01*
X405572D01*
X405571D02*
X405572D01*
X405571D02*
X405572D01*
X405571D02*
X404738Y129520D01*
X403905D01*
X404738D01*
X405571Y128687D01*
Y127854D01*
X404738Y127021D01*
X403072D01*
X402239Y127854D01*
X407237Y127021D02*
X410569D01*
X407237D02*
X410569Y130354D01*
Y131187D01*
X409736Y132020D01*
X408070D01*
X407237Y131187D01*
X282785Y190001D02*
X281952Y189168D01*
X282785Y190001D02*
X284451D01*
X285284Y189168D01*
Y188335D01*
X285285D01*
X285284D02*
X285285D01*
X285284D02*
X285285D01*
X285284D02*
X284451Y187502D01*
X283618D01*
X284451D01*
X285284Y186668D01*
Y185835D01*
X284451Y185002D01*
X282785D01*
X281952Y185835D01*
X286950Y185002D02*
X290283D01*
X286950D02*
X290283Y188335D01*
Y189168D01*
X289450Y190001D01*
X287783D01*
X286950Y189168D01*
X282785Y150001D02*
X281952Y149168D01*
X282785Y150001D02*
X284451D01*
X285284Y149168D01*
Y148335D01*
X285285D01*
X285284D02*
X285285D01*
X285284D02*
X285285D01*
X285284D02*
X284451Y147502D01*
X283618D01*
X284451D01*
X285284Y146668D01*
Y145835D01*
X284451Y145002D01*
X282785D01*
X281952Y145835D01*
X286950Y145002D02*
X290283D01*
X286950D02*
X290283Y148335D01*
Y149168D01*
X289450Y150001D01*
X287783D01*
X286950Y149168D01*
X568384Y586823D02*
X569217Y587656D01*
X570883D01*
X571716Y586823D01*
Y585990D01*
X571718D01*
X571716D02*
X571718D01*
X571716D02*
X571718D01*
X571716D02*
X570883Y585157D01*
X570050D01*
X570883D01*
X571716Y584324D01*
Y583490D01*
X570883Y582658D01*
X569217D01*
X568384Y583490D01*
X573383Y582658D02*
X576715D01*
X573383D02*
X576715Y585990D01*
Y586823D01*
X575882Y587656D01*
X574216D01*
X573383Y586823D01*
X529217Y587656D02*
X528384Y586823D01*
X529217Y587656D02*
X530883D01*
X531716Y586823D01*
Y585990D01*
X531718D01*
X531716D02*
X531718D01*
X531716D02*
X531718D01*
X531716D02*
X530883Y585157D01*
X530050D01*
X530883D01*
X531716Y584324D01*
Y583490D01*
X530883Y582658D01*
X529217D01*
X528384Y583490D01*
X533383Y582658D02*
X536715D01*
X533383D02*
X536715Y585990D01*
Y586823D01*
X535882Y587656D01*
X534216D01*
X533383Y586823D01*
X529433Y576998D02*
X528600Y576165D01*
X529433Y576998D02*
X531099D01*
X531932Y576165D01*
Y575332D01*
X531933D01*
X531932D02*
X531933D01*
X531932D02*
X531933D01*
X531932D02*
X531099Y574499D01*
X530266D01*
X531099D01*
X531932Y573666D01*
Y572833D01*
X531099Y572000D01*
X529433D01*
X528600Y572833D01*
X533598Y572000D02*
X536931D01*
X533598D02*
X536931Y575332D01*
Y576165D01*
X536098Y576998D01*
X534431D01*
X533598Y576165D01*
X454211Y265023D02*
X453378Y264190D01*
X454211Y265023D02*
X455877D01*
X456710Y264190D01*
Y263357D01*
X456711D01*
X456710D02*
X456711D01*
X456710D02*
X456711D01*
X456710D02*
X455877Y262524D01*
X455044D01*
X455877D01*
X456710Y261691D01*
Y260857D01*
X455877Y260024D01*
X454211D01*
X453378Y260857D01*
X458376Y260024D02*
X461709D01*
X458376D02*
X461709Y263357D01*
Y264190D01*
X460876Y265023D01*
X459209D01*
X458376Y264190D01*
X424211Y265023D02*
X423378Y264190D01*
X424211Y265023D02*
X425877D01*
X426710Y264190D01*
Y263357D01*
X426711D01*
X426710D02*
X426711D01*
X426710D02*
X426711D01*
X426710D02*
X425877Y262524D01*
X425044D01*
X425877D01*
X426710Y261691D01*
Y260857D01*
X425877Y260024D01*
X424211D01*
X423378Y260857D01*
X428376Y260024D02*
X431709D01*
X428376D02*
X431709Y263357D01*
Y264190D01*
X430876Y265023D01*
X429209D01*
X428376Y264190D01*
X453378Y254190D02*
X454211Y255023D01*
X455877D01*
X456710Y254190D01*
Y253357D01*
X456711D01*
X456710D02*
X456711D01*
X456710D02*
X456711D01*
X456710D02*
X455877Y252524D01*
X455044D01*
X455877D01*
X456710Y251691D01*
Y250857D01*
X455877Y250024D01*
X454211D01*
X453378Y250857D01*
X458376Y250024D02*
X461709D01*
X458376D02*
X461709Y253357D01*
Y254190D01*
X460876Y255023D01*
X459209D01*
X458376Y254190D01*
X454211Y245023D02*
X453378Y244190D01*
X454211Y245023D02*
X455877D01*
X456710Y244190D01*
Y243357D01*
X456711D01*
X456710D02*
X456711D01*
X456710D02*
X456711D01*
X456710D02*
X455877Y242524D01*
X455044D01*
X455877D01*
X456710Y241691D01*
Y240857D01*
X455877Y240024D01*
X454211D01*
X453378Y240857D01*
X458376Y240024D02*
X461709D01*
X458376D02*
X461709Y243357D01*
Y244190D01*
X460876Y245023D01*
X459209D01*
X458376Y244190D01*
X424211Y255023D02*
X423378Y254190D01*
X424211Y255023D02*
X425877D01*
X426710Y254190D01*
Y253357D01*
X426711D01*
X426710D02*
X426711D01*
X426710D02*
X426711D01*
X426710D02*
X425877Y252524D01*
X425044D01*
X425877D01*
X426710Y251691D01*
Y250857D01*
X425877Y250024D01*
X424211D01*
X423378Y250857D01*
X428376Y250024D02*
X431709D01*
X428376D02*
X431709Y253357D01*
Y254190D01*
X430876Y255023D01*
X429209D01*
X428376Y254190D01*
X424211Y245023D02*
X423378Y244190D01*
X424211Y245023D02*
X425877D01*
X426710Y244190D01*
Y243357D01*
X426711D01*
X426710D02*
X426711D01*
X426710D02*
X426711D01*
X426710D02*
X425877Y242524D01*
X425044D01*
X425877D01*
X426710Y241691D01*
Y240857D01*
X425877Y240024D01*
X424211D01*
X423378Y240857D01*
X428376Y240024D02*
X431709D01*
X428376D02*
X431709Y243357D01*
Y244190D01*
X430876Y245023D01*
X429209D01*
X428376Y244190D01*
X423378Y294190D02*
X424211Y295023D01*
X425877D01*
X426710Y294190D01*
Y293357D01*
X426711D01*
X426710D02*
X426711D01*
X426710D02*
X426711D01*
X426710D02*
X425877Y292524D01*
X425044D01*
X425877D01*
X426710Y291690D01*
Y290858D01*
X425877Y290024D01*
X424211D01*
X423378Y290858D01*
X428376Y290024D02*
X431709D01*
X428376D02*
X431709Y293357D01*
Y294190D01*
X430876Y295023D01*
X429209D01*
X428376Y294190D01*
X424211Y285023D02*
X423378Y284190D01*
X424211Y285023D02*
X425877D01*
X426710Y284190D01*
Y283357D01*
X426711D01*
X426710D02*
X426711D01*
X426710D02*
X426711D01*
X426710D02*
X425877Y282524D01*
X425044D01*
X425877D01*
X426710Y281690D01*
Y280858D01*
X425877Y280024D01*
X424211D01*
X423378Y280858D01*
X428376Y280024D02*
X431709D01*
X428376D02*
X431709Y283357D01*
Y284190D01*
X430876Y285023D01*
X429209D01*
X428376Y284190D01*
X424211Y275023D02*
X423378Y274190D01*
X424211Y275023D02*
X425877D01*
X426710Y274190D01*
Y273357D01*
X426711D01*
X426710D02*
X426711D01*
X426710D02*
X426711D01*
X426710D02*
X425877Y272524D01*
X425044D01*
X425877D01*
X426710Y271690D01*
Y270858D01*
X425877Y270024D01*
X424211D01*
X423378Y270858D01*
X428376Y270024D02*
X431709D01*
X428376D02*
X431709Y273357D01*
Y274190D01*
X430876Y275023D01*
X429209D01*
X428376Y274190D01*
X306033Y145098D02*
X305200Y144265D01*
X306033Y145098D02*
X307699D01*
X308532Y144265D01*
Y143432D01*
X308533D01*
X308532D02*
X308533D01*
X308532D02*
X308533D01*
X308532D02*
X307699Y142599D01*
X306866D01*
X307699D01*
X308532Y141766D01*
Y140933D01*
X307699Y140100D01*
X306033D01*
X305200Y140933D01*
X310198Y140100D02*
X313531D01*
X310198D02*
X313531Y143432D01*
Y144265D01*
X312698Y145098D01*
X311031D01*
X310198Y144265D01*
X518000Y385665D02*
X518833Y386498D01*
X520499D01*
X521332Y385665D01*
Y384832D01*
X521333D01*
X521332D02*
X521333D01*
X521332D02*
X521333D01*
X521332D02*
X520499Y383999D01*
X519666D01*
X520499D01*
X521332Y383166D01*
Y382333D01*
X520499Y381500D01*
X518833D01*
X518000Y382333D01*
X522998Y381500D02*
X526331D01*
X522998D02*
X526331Y384832D01*
Y385665D01*
X525498Y386498D01*
X523831D01*
X522998Y385665D01*
X548000Y425665D02*
X548833Y426498D01*
X550499D01*
X551332Y425665D01*
Y424832D01*
X551333D01*
X551332D02*
X551333D01*
X551332D02*
X551333D01*
X551332D02*
X550499Y423999D01*
X549666D01*
X550499D01*
X551332Y423166D01*
Y422333D01*
X550499Y421500D01*
X548833D01*
X548000Y422333D01*
X552998Y421500D02*
X556331D01*
X552998D02*
X556331Y424832D01*
Y425665D01*
X555498Y426498D01*
X553831D01*
X552998Y425665D01*
X518833Y396498D02*
X518000Y395665D01*
X518833Y396498D02*
X520499D01*
X521332Y395665D01*
Y394832D01*
X521333D01*
X521332D02*
X521333D01*
X521332D02*
X521333D01*
X521332D02*
X520499Y393999D01*
X519666D01*
X520499D01*
X521332Y393166D01*
Y392333D01*
X520499Y391500D01*
X518833D01*
X518000Y392333D01*
X522998Y391500D02*
X526331D01*
X522998D02*
X526331Y394832D01*
Y395665D01*
X525498Y396498D01*
X523831D01*
X522998Y395665D01*
X548000Y435665D02*
X548833Y436498D01*
X550499D01*
X551332Y435665D01*
Y434832D01*
X551333D01*
X551332D02*
X551333D01*
X551332D02*
X551333D01*
X551332D02*
X550499Y433999D01*
X549666D01*
X550499D01*
X551332Y433166D01*
Y432333D01*
X550499Y431500D01*
X548833D01*
X548000Y432333D01*
X552998Y431500D02*
X556331D01*
X552998D02*
X556331Y434832D01*
Y435665D01*
X555498Y436498D01*
X553831D01*
X552998Y435665D01*
X518833Y406498D02*
X518000Y405665D01*
X518833Y406498D02*
X520499D01*
X521332Y405665D01*
Y404832D01*
X521333D01*
X521332D02*
X521333D01*
X521332D02*
X521333D01*
X521332D02*
X520499Y403999D01*
X519666D01*
X520499D01*
X521332Y403166D01*
Y402333D01*
X520499Y401500D01*
X518833D01*
X518000Y402333D01*
X522998Y401500D02*
X526331D01*
X522998D02*
X526331Y404832D01*
Y405665D01*
X525498Y406498D01*
X523831D01*
X522998Y405665D01*
X518000Y445665D02*
X518833Y446498D01*
X520499D01*
X521332Y445665D01*
Y444832D01*
X521333D01*
X521332D02*
X521333D01*
X521332D02*
X521333D01*
X521332D02*
X520499Y443999D01*
X519666D01*
X520499D01*
X521332Y443166D01*
Y442333D01*
X520499Y441500D01*
X518833D01*
X518000Y442333D01*
X522998Y441500D02*
X526331D01*
X522998D02*
X526331Y444832D01*
Y445665D01*
X525498Y446498D01*
X523831D01*
X522998Y445665D01*
X518833Y436498D02*
X518000Y435665D01*
X518833Y436498D02*
X520499D01*
X521332Y435665D01*
Y434832D01*
X521333D01*
X521332D02*
X521333D01*
X521332D02*
X521333D01*
X521332D02*
X520499Y433999D01*
X519666D01*
X520499D01*
X521332Y433166D01*
Y432333D01*
X520499Y431500D01*
X518833D01*
X518000Y432333D01*
X522998Y431500D02*
X526331D01*
X522998D02*
X526331Y434832D01*
Y435665D01*
X525498Y436498D01*
X523831D01*
X522998Y435665D01*
X518000Y455665D02*
X518833Y456498D01*
X520499D01*
X521332Y455665D01*
Y454832D01*
X521333D01*
X521332D02*
X521333D01*
X521332D02*
X521333D01*
X521332D02*
X520499Y453999D01*
X519666D01*
X520499D01*
X521332Y453166D01*
Y452333D01*
X520499Y451500D01*
X518833D01*
X518000Y452333D01*
X522998Y451500D02*
X526331D01*
X522998D02*
X526331Y454832D01*
Y455665D01*
X525498Y456498D01*
X523831D01*
X522998Y455665D01*
X518833Y416498D02*
X518000Y415665D01*
X518833Y416498D02*
X520499D01*
X521332Y415665D01*
Y414832D01*
X521333D01*
X521332D02*
X521333D01*
X521332D02*
X521333D01*
X521332D02*
X520499Y413999D01*
X519666D01*
X520499D01*
X521332Y413166D01*
Y412333D01*
X520499Y411500D01*
X518833D01*
X518000Y412333D01*
X522998Y411500D02*
X526331D01*
X522998D02*
X526331Y414832D01*
Y415665D01*
X525498Y416498D01*
X523831D01*
X522998Y415665D01*
X518000Y425665D02*
X518833Y426498D01*
X520499D01*
X521332Y425665D01*
Y424832D01*
X521333D01*
X521332D02*
X521333D01*
X521332D02*
X521333D01*
X521332D02*
X520499Y423999D01*
X519666D01*
X520499D01*
X521332Y423166D01*
Y422333D01*
X520499Y421500D01*
X518833D01*
X518000Y422333D01*
X522998Y421500D02*
X526331D01*
X522998D02*
X526331Y424832D01*
Y425665D01*
X525498Y426498D01*
X523831D01*
X522998Y425665D01*
X548000Y415665D02*
X548833Y416498D01*
X550499D01*
X551332Y415665D01*
Y414832D01*
X551333D01*
X551332D02*
X551333D01*
X551332D02*
X551333D01*
X551332D02*
X550499Y413999D01*
X549666D01*
X550499D01*
X551332Y413166D01*
Y412333D01*
X550499Y411500D01*
X548833D01*
X548000Y412333D01*
X552998Y411500D02*
X556331D01*
X552998D02*
X556331Y414832D01*
Y415665D01*
X555498Y416498D01*
X553831D01*
X552998Y415665D01*
X548833Y406498D02*
X548000Y405665D01*
X548833Y406498D02*
X550499D01*
X551332Y405665D01*
Y404832D01*
X551333D01*
X551332D02*
X551333D01*
X551332D02*
X551333D01*
X551332D02*
X550499Y403999D01*
X549666D01*
X550499D01*
X551332Y403166D01*
Y402333D01*
X550499Y401500D01*
X548833D01*
X548000Y402333D01*
X552998Y401500D02*
X556331D01*
X552998D02*
X556331Y404832D01*
Y405665D01*
X555498Y406498D01*
X553831D01*
X552998Y405665D01*
X548833Y386498D02*
X548000Y385665D01*
X548833Y386498D02*
X550499D01*
X551332Y385665D01*
Y384832D01*
X551333D01*
X551332D02*
X551333D01*
X551332D02*
X551333D01*
X551332D02*
X550499Y383999D01*
X549666D01*
X550499D01*
X551332Y383166D01*
Y382333D01*
X550499Y381500D01*
X548833D01*
X548000Y382333D01*
X552998Y381500D02*
X556331D01*
X552998D02*
X556331Y384832D01*
Y385665D01*
X555498Y386498D01*
X553831D01*
X552998Y385665D01*
X548000Y395665D02*
X548833Y396498D01*
X550499D01*
X551332Y395665D01*
Y394832D01*
X551333D01*
X551332D02*
X551333D01*
X551332D02*
X551333D01*
X551332D02*
X550499Y393999D01*
X549666D01*
X550499D01*
X551332Y393166D01*
Y392333D01*
X550499Y391500D01*
X548833D01*
X548000Y392333D01*
X552998Y391500D02*
X556331D01*
X552998D02*
X556331Y394832D01*
Y395665D01*
X555498Y396498D01*
X553831D01*
X552998Y395665D01*
X523233Y329598D02*
X522400Y328765D01*
X523233Y329598D02*
X524899D01*
X525732Y328765D01*
Y327932D01*
X525733D01*
X525732D02*
X525733D01*
X525732D02*
X525733D01*
X525732D02*
X524899Y327099D01*
X524066D01*
X524899D01*
X525732Y326266D01*
Y325433D01*
X524899Y324600D01*
X523233D01*
X522400Y325433D01*
X527398Y324600D02*
X530731D01*
X527398D02*
X530731Y327932D01*
Y328765D01*
X529898Y329598D01*
X528231D01*
X527398Y328765D01*
X523233Y299598D02*
X522400Y298765D01*
X523233Y299598D02*
X524899D01*
X525732Y298765D01*
Y297932D01*
X525733D01*
X525732D02*
X525733D01*
X525732D02*
X525733D01*
X525732D02*
X524899Y297099D01*
X524066D01*
X524899D01*
X525732Y296266D01*
Y295433D01*
X524899Y294600D01*
X523233D01*
X522400Y295433D01*
X527398Y294600D02*
X530731D01*
X527398D02*
X530731Y297932D01*
Y298765D01*
X529898Y299598D01*
X528231D01*
X527398Y298765D01*
X552400Y278765D02*
X553233Y279598D01*
X554899D01*
X555732Y278765D01*
Y277932D01*
X555733D01*
X555732D02*
X555733D01*
X555732D02*
X555733D01*
X555732D02*
X554899Y277099D01*
X554066D01*
X554899D01*
X555732Y276266D01*
Y275433D01*
X554899Y274600D01*
X553233D01*
X552400Y275433D01*
X557398Y274600D02*
X560731D01*
X557398D02*
X560731Y277932D01*
Y278765D01*
X559898Y279598D01*
X558231D01*
X557398Y278765D01*
X552400Y288765D02*
X553233Y289598D01*
X554899D01*
X555732Y288765D01*
Y287932D01*
X555733D01*
X555732D02*
X555733D01*
X555732D02*
X555733D01*
X555732D02*
X554899Y287099D01*
X554066D01*
X554899D01*
X555732Y286266D01*
Y285433D01*
X554899Y284600D01*
X553233D01*
X552400Y285433D01*
X557398Y284600D02*
X560731D01*
X557398D02*
X560731Y287932D01*
Y288765D01*
X559898Y289598D01*
X558231D01*
X557398Y288765D01*
X552400Y308765D02*
X553233Y309598D01*
X554899D01*
X555732Y308765D01*
Y307932D01*
X555733D01*
X555732D02*
X555733D01*
X555732D02*
X555733D01*
X555732D02*
X554899Y307099D01*
X554066D01*
X554899D01*
X555732Y306266D01*
Y305433D01*
X554899Y304600D01*
X553233D01*
X552400Y305433D01*
X557398Y304600D02*
X560731D01*
X557398D02*
X560731Y307932D01*
Y308765D01*
X559898Y309598D01*
X558231D01*
X557398Y308765D01*
X552400Y318765D02*
X553233Y319598D01*
X554899D01*
X555732Y318765D01*
Y317932D01*
X555733D01*
X555732D02*
X555733D01*
X555732D02*
X555733D01*
X555732D02*
X554899Y317099D01*
X554066D01*
X554899D01*
X555732Y316266D01*
Y315433D01*
X554899Y314600D01*
X553233D01*
X552400Y315433D01*
X557398Y314600D02*
X560731D01*
X557398D02*
X560731Y317932D01*
Y318765D01*
X559898Y319598D01*
X558231D01*
X557398Y318765D01*
X523233Y289598D02*
X522400Y288765D01*
X523233Y289598D02*
X524899D01*
X525732Y288765D01*
Y287932D01*
X525733D01*
X525732D02*
X525733D01*
X525732D02*
X525733D01*
X525732D02*
X524899Y287099D01*
X524066D01*
X524899D01*
X525732Y286266D01*
Y285433D01*
X524899Y284600D01*
X523233D01*
X522400Y285433D01*
X527398Y284600D02*
X530731D01*
X527398D02*
X530731Y287932D01*
Y288765D01*
X529898Y289598D01*
X528231D01*
X527398Y288765D01*
X522400Y318765D02*
X523233Y319598D01*
X524899D01*
X525732Y318765D01*
Y317932D01*
X525733D01*
X525732D02*
X525733D01*
X525732D02*
X525733D01*
X525732D02*
X524899Y317099D01*
X524066D01*
X524899D01*
X525732Y316266D01*
Y315433D01*
X524899Y314600D01*
X523233D01*
X522400Y315433D01*
X527398Y314600D02*
X530731D01*
X527398D02*
X530731Y317932D01*
Y318765D01*
X529898Y319598D01*
X528231D01*
X527398Y318765D01*
X522400Y338765D02*
X523233Y339598D01*
X524899D01*
X525732Y338765D01*
Y337932D01*
X525733D01*
X525732D02*
X525733D01*
X525732D02*
X525733D01*
X525732D02*
X524899Y337099D01*
X524066D01*
X524899D01*
X525732Y336266D01*
Y335433D01*
X524899Y334600D01*
X523233D01*
X522400Y335433D01*
X527398Y334600D02*
X530731D01*
X527398D02*
X530731Y337932D01*
Y338765D01*
X529898Y339598D01*
X528231D01*
X527398Y338765D01*
X523233Y309598D02*
X522400Y308765D01*
X523233Y309598D02*
X524899D01*
X525732Y308765D01*
Y307932D01*
X525733D01*
X525732D02*
X525733D01*
X525732D02*
X525733D01*
X525732D02*
X524899Y307099D01*
X524066D01*
X524899D01*
X525732Y306266D01*
Y305433D01*
X524899Y304600D01*
X523233D01*
X522400Y305433D01*
X527398Y304600D02*
X530731D01*
X527398D02*
X530731Y307932D01*
Y308765D01*
X529898Y309598D01*
X528231D01*
X527398Y308765D01*
X301585Y169001D02*
X300752Y168168D01*
X301585Y169001D02*
X303251D01*
X304084Y168168D01*
Y167335D01*
X304085D01*
X304084D02*
X304085D01*
X304084D02*
X304085D01*
X304084D02*
X303251Y166502D01*
X302418D01*
X303251D01*
X304084Y165668D01*
Y164835D01*
X303251Y164002D01*
X301585D01*
X300752Y164835D01*
X305750Y164002D02*
X309083D01*
X305750D02*
X309083Y167335D01*
Y168168D01*
X308250Y169001D01*
X306583D01*
X305750Y168168D01*
X300752Y188168D02*
X301585Y189001D01*
X303251D01*
X304084Y188168D01*
Y187335D01*
X304085D01*
X304084D02*
X304085D01*
X304084D02*
X304085D01*
X304084D02*
X303251Y186502D01*
X302418D01*
X303251D01*
X304084Y185668D01*
Y184835D01*
X303251Y184002D01*
X301585D01*
X300752Y184835D01*
X305750Y184002D02*
X309083D01*
X305750D02*
X309083Y187335D01*
Y188168D01*
X308250Y189001D01*
X306583D01*
X305750Y188168D01*
X484900Y197465D02*
X485733Y198298D01*
X487399D01*
X488232Y197465D01*
Y196632D01*
X488233D01*
X488232D02*
X488233D01*
X488232D02*
X488233D01*
X488232D02*
X487399Y195799D01*
X486566D01*
X487399D01*
X488232Y194966D01*
Y194133D01*
X487399Y193300D01*
X485733D01*
X484900Y194133D01*
X489898Y193300D02*
X493231D01*
X489898D02*
X493231Y196632D01*
Y197465D01*
X492398Y198298D01*
X490731D01*
X489898Y197465D01*
X485733Y188298D02*
X484900Y187465D01*
X485733Y188298D02*
X487399D01*
X488232Y187465D01*
Y186632D01*
X488233D01*
X488232D02*
X488233D01*
X488232D02*
X488233D01*
X488232D02*
X487399Y185799D01*
X486566D01*
X487399D01*
X488232Y184966D01*
Y184133D01*
X487399Y183300D01*
X485733D01*
X484900Y184133D01*
X489898Y183300D02*
X493231D01*
X489898D02*
X493231Y186632D01*
Y187465D01*
X492398Y188298D01*
X490731D01*
X489898Y187465D01*
X263484Y204201D02*
X260152D01*
Y201702D01*
X261818Y202535D01*
X262651D01*
X263484Y201702D01*
Y200035D01*
X262651Y199202D01*
X260985D01*
X260152Y200035D01*
X265150Y199202D02*
X268483D01*
X265150D02*
X268483Y202535D01*
Y203368D01*
X267650Y204201D01*
X265983D01*
X265150Y203368D01*
X252500Y240339D02*
X253333Y241172D01*
X254999D01*
X255832Y240339D01*
Y239506D01*
X255833D01*
X255832D02*
X255833D01*
X255832D02*
X255833D01*
X255832D02*
X254999Y238673D01*
X254166D01*
X254999D01*
X255832Y237840D01*
Y237007D01*
X254999Y236174D01*
X253333D01*
X252500Y237007D01*
X257498Y236174D02*
X260831D01*
X257498D02*
X260831Y239506D01*
Y240339D01*
X259998Y241172D01*
X258331D01*
X257498Y240339D01*
X180633Y167898D02*
X179800Y167065D01*
X180633Y167898D02*
X182299D01*
X183132Y167065D01*
Y166232D01*
X183133D01*
X183132D02*
X183133D01*
X183132D02*
X183133D01*
X183132D02*
X182299Y165399D01*
X181466D01*
X182299D01*
X183132Y164566D01*
Y163733D01*
X182299Y162900D01*
X180633D01*
X179800Y163733D01*
X184798Y162900D02*
X188131D01*
X184798D02*
X188131Y166232D01*
Y167065D01*
X187298Y167898D01*
X185631D01*
X184798Y167065D01*
X262466Y133392D02*
X263299Y134226D01*
X264965D01*
X265798Y133392D01*
Y132560D01*
X265799D01*
X265798D02*
X265799D01*
X265798D02*
X265799D01*
X265798D02*
X264965Y131726D01*
X264132D01*
X264965D01*
X265798Y130893D01*
Y130060D01*
X264965Y129227D01*
X263299D01*
X262466Y130060D01*
X267464Y129227D02*
X270797D01*
X267464D02*
X270797Y132560D01*
Y133392D01*
X269964Y134226D01*
X268297D01*
X267464Y133392D01*
X212500Y240339D02*
X213333Y241172D01*
X214999D01*
X215832Y240339D01*
Y239506D01*
X215833D01*
X215832D02*
X215833D01*
X215832D02*
X215833D01*
X215832D02*
X214999Y238673D01*
X214166D01*
X214999D01*
X215832Y237840D01*
Y237007D01*
X214999Y236174D01*
X213333D01*
X212500Y237007D01*
X217498Y236174D02*
X220831D01*
X217498D02*
X220831Y239506D01*
Y240339D01*
X219998Y241172D01*
X218331D01*
X217498Y240339D01*
X303299Y134226D02*
X302466Y133392D01*
X303299Y134226D02*
X304965D01*
X305798Y133392D01*
Y132560D01*
X305799D01*
X305798D02*
X305799D01*
X305798D02*
X305799D01*
X305798D02*
X304965Y131726D01*
X304132D01*
X304965D01*
X305798Y130893D01*
Y130060D01*
X304965Y129227D01*
X303299D01*
X302466Y130060D01*
X307464Y129227D02*
X310797D01*
X307464D02*
X310797Y132560D01*
Y133392D01*
X309964Y134226D01*
X308297D01*
X307464Y133392D01*
X539600Y253498D02*
X542932D01*
X539600D02*
Y250999D01*
X541266Y251832D01*
X542099D01*
X542932Y250999D01*
Y249333D01*
X542099Y248500D01*
X540433D01*
X539600Y249333D01*
X544598Y248500D02*
X547931D01*
X544598D02*
X547931Y251832D01*
Y252665D01*
X547098Y253498D01*
X545431D01*
X544598Y252665D01*
X171133Y589566D02*
X170300Y588733D01*
X171133Y589566D02*
X172799D01*
X173632Y588733D01*
Y587900D01*
X173633D01*
X173632D02*
X173633D01*
X173632D02*
X173633D01*
X173632D02*
X172799Y587067D01*
X171966D01*
X172799D01*
X173632Y586234D01*
Y585401D01*
X172799Y584568D01*
X171133D01*
X170300Y585401D01*
X175298Y584568D02*
X178631D01*
X175298D02*
X178631Y587900D01*
Y588733D01*
X177798Y589566D01*
X176131D01*
X175298Y588733D01*
X210300D02*
X211133Y589566D01*
X212799D01*
X213632Y588733D01*
Y587900D01*
X213633D01*
X213632D02*
X213633D01*
X213632D02*
X213633D01*
X213632D02*
X212799Y587067D01*
X211966D01*
X212799D01*
X213632Y586234D01*
Y585401D01*
X212799Y584568D01*
X211133D01*
X210300Y585401D01*
X215298Y584568D02*
X218631D01*
X215298D02*
X218631Y587900D01*
Y588733D01*
X217798Y589566D01*
X216131D01*
X215298Y588733D01*
X211533Y576830D02*
X210700Y575997D01*
X211533Y576830D02*
X213199D01*
X214032Y575997D01*
Y575164D01*
X214033D01*
X214032D02*
X214033D01*
X214032D02*
X214033D01*
X214032D02*
X213199Y574331D01*
X212366D01*
X213199D01*
X214032Y573498D01*
Y572665D01*
X213199Y571832D01*
X211533D01*
X210700Y572665D01*
X215698Y571832D02*
X219031D01*
X215698D02*
X219031Y575164D01*
Y575997D01*
X218198Y576830D01*
X216531D01*
X215698Y575997D01*
X244433Y523298D02*
X243600Y522465D01*
X244433Y523298D02*
X246099D01*
X246932Y522465D01*
Y521632D01*
X246933D01*
X246932D02*
X246933D01*
X246932D02*
X246933D01*
X246932D02*
X246099Y520799D01*
X245266D01*
X246099D01*
X246932Y519966D01*
Y519133D01*
X246099Y518300D01*
X244433D01*
X243600Y519133D01*
X248598Y518300D02*
X251931D01*
X248598D02*
X251931Y521632D01*
Y522465D01*
X251098Y523298D01*
X249431D01*
X248598Y522465D01*
X243700Y558533D02*
X244533Y559366D01*
X246199D01*
X247032Y558533D01*
Y557700D01*
X247033D01*
X247032D02*
X247033D01*
X247032D02*
X247033D01*
X247032D02*
X246199Y556867D01*
X245366D01*
X246199D01*
X247032Y556034D01*
Y555201D01*
X246199Y554368D01*
X244533D01*
X243700Y555201D01*
X248698Y554368D02*
X252031D01*
X248698D02*
X252031Y557700D01*
Y558533D01*
X251198Y559366D01*
X249531D01*
X248698Y558533D01*
X250700Y575997D02*
X251533Y576830D01*
X253199D01*
X254032Y575997D01*
Y575164D01*
X254033D01*
X254032D02*
X254033D01*
X254032D02*
X254033D01*
X254032D02*
X253199Y574331D01*
X252366D01*
X253199D01*
X254032Y573498D01*
Y572665D01*
X253199Y571832D01*
X251533D01*
X250700Y572665D01*
X255698Y571832D02*
X259031D01*
X255698D02*
X259031Y575164D01*
Y575997D01*
X258198Y576830D01*
X256531D01*
X255698Y575997D01*
X265765Y552198D02*
X264932Y551365D01*
X265765Y552198D02*
X267431D01*
X268264Y551365D01*
Y550532D01*
X268265D01*
X268264D02*
X268265D01*
X268264D02*
X268265D01*
X268264D02*
X267431Y549699D01*
X266598D01*
X267431D01*
X268264Y548866D01*
Y548033D01*
X267431Y547200D01*
X265765D01*
X264932Y548033D01*
X269930Y547200D02*
X273263D01*
X269930D02*
X273263Y550532D01*
Y551365D01*
X272430Y552198D01*
X270764D01*
X269930Y551365D01*
X265765Y532198D02*
X264932Y531365D01*
X265765Y532198D02*
X267431D01*
X268264Y531365D01*
Y530532D01*
X268265D01*
X268264D02*
X268265D01*
X268264D02*
X268265D01*
X268264D02*
X267431Y529699D01*
X266598D01*
X267431D01*
X268264Y528866D01*
Y528033D01*
X267431Y527200D01*
X265765D01*
X264932Y528033D01*
X269930Y527200D02*
X273263D01*
X269930D02*
X273263Y530532D01*
Y531365D01*
X272430Y532198D01*
X270764D01*
X269930Y531365D01*
X128133Y171630D02*
X127300Y170797D01*
X128133Y171630D02*
X129799D01*
X130632Y170797D01*
Y169964D01*
X130633D01*
X130632D02*
X130633D01*
X130632D02*
X130633D01*
X130632D02*
X129799Y169131D01*
X128966D01*
X129799D01*
X130632Y168298D01*
Y167465D01*
X129799Y166632D01*
X128133D01*
X127300Y167465D01*
X132298Y166632D02*
X135631D01*
X132298D02*
X135631Y169964D01*
Y170797D01*
X134798Y171630D01*
X133131D01*
X132298Y170797D01*
X214045Y229763D02*
X214878Y230596D01*
X216544D01*
X217377Y229763D01*
Y228930D01*
X217378D01*
X217377D02*
X217378D01*
X217377D02*
X217378D01*
X217377D02*
X216544Y228097D01*
X215711D01*
X216544D01*
X217377Y227264D01*
Y226431D01*
X216544Y225598D01*
X214878D01*
X214045Y226431D01*
X219044Y225598D02*
X222376D01*
X219044D02*
X222376Y228930D01*
Y229763D01*
X221543Y230596D01*
X219877D01*
X219044Y229763D01*
X201400Y522565D02*
X202233Y523398D01*
X203899D01*
X204732Y522565D01*
Y521732D01*
X204733D01*
X204732D02*
X204733D01*
X204732D02*
X204733D01*
X204732D02*
X203899Y520899D01*
X203066D01*
X203899D01*
X204732Y520066D01*
Y519233D01*
X203899Y518400D01*
X202233D01*
X201400Y519233D01*
X206398Y518400D02*
X209731D01*
X206398D02*
X209731Y521732D01*
Y522565D01*
X208898Y523398D01*
X207231D01*
X206398Y522565D01*
X201400Y562565D02*
X202233Y563398D01*
X203899D01*
X204732Y562565D01*
Y561732D01*
X204733D01*
X204732D02*
X204733D01*
X204732D02*
X204733D01*
X204732D02*
X203899Y560899D01*
X203066D01*
X203899D01*
X204732Y560066D01*
Y559233D01*
X203899Y558400D01*
X202233D01*
X201400Y559233D01*
X206398Y558400D02*
X209731D01*
X206398D02*
X209731Y561732D01*
Y562565D01*
X208898Y563398D01*
X207231D01*
X206398Y562565D01*
X402200Y144498D02*
X405532D01*
X402200D02*
Y141999D01*
X403866Y142832D01*
X404699D01*
X405532Y141999D01*
Y140333D01*
X404699Y139500D01*
X403033D01*
X402200Y140333D01*
X407198Y139500D02*
X410531D01*
X407198D02*
X410531Y142832D01*
Y143665D01*
X409698Y144498D01*
X408031D01*
X407198Y143665D01*
X143302Y215580D02*
X142469Y214747D01*
X143302Y215580D02*
X144968D01*
X145801Y214747D01*
Y213914D01*
X145802D01*
X145801D02*
X145802D01*
X145801D02*
X145802D01*
X145801D02*
X144968Y213081D01*
X144135D01*
X144968D01*
X145801Y212248D01*
Y211415D01*
X144968Y210582D01*
X143302D01*
X142469Y211415D01*
X147467Y210582D02*
X150799D01*
X147467D02*
X150799Y213914D01*
Y214747D01*
X149966Y215580D01*
X148300D01*
X147467Y214747D01*
X162469D02*
X163302Y215580D01*
X164968D01*
X165801Y214747D01*
Y213914D01*
X165802D01*
X165801D02*
X165802D01*
X165801D02*
X165802D01*
X165801D02*
X164968Y213081D01*
X164135D01*
X164968D01*
X165801Y212248D01*
Y211415D01*
X164968Y210582D01*
X163302D01*
X162469Y211415D01*
X167467Y210582D02*
X170799D01*
X167467D02*
X170799Y213914D01*
Y214747D01*
X169966Y215580D01*
X168300D01*
X167467Y214747D01*
X172469Y244747D02*
X173302Y245580D01*
X174968D01*
X175801Y244747D01*
Y243914D01*
X175802D01*
X175801D02*
X175802D01*
X175801D02*
X175802D01*
X175801D02*
X174968Y243081D01*
X174135D01*
X174968D01*
X175801Y242248D01*
Y241415D01*
X174968Y240582D01*
X173302D01*
X172469Y241415D01*
X177467Y240582D02*
X180799D01*
X177467D02*
X180799Y243914D01*
Y244747D01*
X179966Y245580D01*
X178300D01*
X177467Y244747D01*
X153302Y245580D02*
X152469Y244747D01*
X153302Y245580D02*
X154968D01*
X155801Y244747D01*
Y243914D01*
X155802D01*
X155801D02*
X155802D01*
X155801D02*
X155802D01*
X155801D02*
X154968Y243081D01*
X154135D01*
X154968D01*
X155801Y242248D01*
Y241415D01*
X154968Y240582D01*
X153302D01*
X152469Y241415D01*
X157467Y240582D02*
X160799D01*
X157467D02*
X160799Y243914D01*
Y244747D01*
X159966Y245580D01*
X158300D01*
X157467Y244747D01*
X143302Y245580D02*
X142469Y244747D01*
X143302Y245580D02*
X144968D01*
X145801Y244747D01*
Y243914D01*
X145802D01*
X145801D02*
X145802D01*
X145801D02*
X145802D01*
X145801D02*
X144968Y243081D01*
X144135D01*
X144968D01*
X145801Y242248D01*
Y241415D01*
X144968Y240582D01*
X143302D01*
X142469Y241415D01*
X147467Y240582D02*
X150799D01*
X147467D02*
X150799Y243914D01*
Y244747D01*
X149966Y245580D01*
X148300D01*
X147467Y244747D01*
X127915Y204030D02*
X127082Y203197D01*
X127915Y204030D02*
X129581D01*
X130414Y203197D01*
Y202364D01*
X130415D01*
X130414D02*
X130415D01*
X130414D02*
X130415D01*
X130414D02*
X129581Y201530D01*
X128748D01*
X129581D01*
X130414Y200697D01*
Y199864D01*
X129581Y199031D01*
X127915D01*
X127082Y199864D01*
X132080Y199031D02*
X135412D01*
X132080D02*
X135412Y202364D01*
Y203197D01*
X134579Y204030D01*
X132913D01*
X132080Y203197D01*
X152469Y214747D02*
X153302Y215580D01*
X154968D01*
X155801Y214747D01*
Y213914D01*
X155802D01*
X155801D02*
X155802D01*
X155801D02*
X155802D01*
X155801D02*
X154968Y213081D01*
X154135D01*
X154968D01*
X155801Y212248D01*
Y211415D01*
X154968Y210582D01*
X153302D01*
X152469Y211415D01*
X157467Y210582D02*
X160799D01*
X157467D02*
X160799Y213914D01*
Y214747D01*
X159966Y215580D01*
X158300D01*
X157467Y214747D01*
X197731Y257384D02*
X198564Y258217D01*
X200230D01*
X201064Y257384D01*
Y256550D01*
X201064D01*
X201064D02*
X201064D01*
X201064D02*
X201064D01*
X201064D02*
X200230Y255717D01*
X199397D01*
X200230D01*
X201064Y254884D01*
Y254051D01*
X200230Y253218D01*
X198564D01*
X197731Y254051D01*
X202730Y253218D02*
X206062D01*
X202730D02*
X206062Y256550D01*
Y257384D01*
X205229Y258217D01*
X203563D01*
X202730Y257384D01*
X163302Y245580D02*
X162469Y244747D01*
X163302Y245580D02*
X164968D01*
X165801Y244747D01*
Y243914D01*
X165802D01*
X165801D02*
X165802D01*
X165801D02*
X165802D01*
X165801D02*
X164968Y243081D01*
X164135D01*
X164968D01*
X165801Y242248D01*
Y241415D01*
X164968Y240582D01*
X163302D01*
X162469Y241415D01*
X167467Y240582D02*
X170799D01*
X167467D02*
X170799Y243914D01*
Y244747D01*
X169966Y245580D01*
X168300D01*
X167467Y244747D01*
X135933Y191630D02*
X135100Y190797D01*
X135933Y191630D02*
X137599D01*
X138432Y190797D01*
Y189964D01*
X138433D01*
X138432D02*
X138433D01*
X138432D02*
X138433D01*
X138432D02*
X137599Y189131D01*
X136766D01*
X137599D01*
X138432Y188298D01*
Y187465D01*
X137599Y186632D01*
X135933D01*
X135100Y187465D01*
X140098Y186632D02*
X143431D01*
X140098D02*
X143431Y189964D01*
Y190797D01*
X142598Y191630D01*
X140931D01*
X140098Y190797D01*
X576600Y480865D02*
X577433Y481698D01*
X579099D01*
X579932Y480865D01*
Y480032D01*
X579933D01*
X579932D02*
X579933D01*
X579932D02*
X579933D01*
X579932D02*
X579099Y479199D01*
X578266D01*
X579099D01*
X579932Y478366D01*
Y477533D01*
X579099Y476700D01*
X577433D01*
X576600Y477533D01*
X581598Y476700D02*
X584931D01*
X581598D02*
X584931Y480032D01*
Y480865D01*
X584098Y481698D01*
X582431D01*
X581598Y480865D01*
X614333Y419298D02*
X613500Y418465D01*
X614333Y419298D02*
X615999D01*
X616832Y418465D01*
Y417632D01*
X616833D01*
X616832D02*
X616833D01*
X616832D02*
X616833D01*
X616832D02*
X615999Y416799D01*
X615166D01*
X615999D01*
X616832Y415966D01*
Y415133D01*
X615999Y414300D01*
X614333D01*
X613500Y415133D01*
X618498Y414300D02*
X621831D01*
X618498D02*
X621831Y417632D01*
Y418465D01*
X620998Y419298D01*
X619331D01*
X618498Y418465D01*
X170533Y353913D02*
X169700Y353080D01*
X170533Y353913D02*
X172199D01*
X173032Y353080D01*
Y352247D01*
X173033D01*
X173032D02*
X173033D01*
X173032D02*
X173033D01*
X173032D02*
X172199Y351414D01*
X171366D01*
X172199D01*
X173032Y350581D01*
Y349748D01*
X172199Y348915D01*
X170533D01*
X169700Y349748D01*
X174698Y348915D02*
X178031D01*
X174698D02*
X178031Y352247D01*
Y353080D01*
X177198Y353913D01*
X175531D01*
X174698Y353080D01*
X169902Y434543D02*
X170735Y435376D01*
X172401D01*
X173234Y434543D01*
Y433710D01*
X173235D01*
X173234D02*
X173235D01*
X173234D02*
X173235D01*
X173234D02*
X172401Y432877D01*
X171568D01*
X172401D01*
X173234Y432044D01*
Y431211D01*
X172401Y430378D01*
X170735D01*
X169902Y431211D01*
X174900Y430378D02*
X178232D01*
X174900D02*
X178232Y433710D01*
Y434543D01*
X177399Y435376D01*
X175733D01*
X174900Y434543D01*
X202792Y321602D02*
X201959Y320768D01*
X202792Y321602D02*
X204458D01*
X205292Y320768D01*
Y319935D01*
X205293D01*
X205292D02*
X205293D01*
X205292D02*
X205293D01*
X205292D02*
X204458Y319102D01*
X203625D01*
X204458D01*
X205292Y318269D01*
Y317436D01*
X204458Y316603D01*
X202792D01*
X201959Y317436D01*
X206958Y316603D02*
X210290D01*
X206958D02*
X210290Y319935D01*
Y320768D01*
X209457Y321602D01*
X207791D01*
X206958Y320768D01*
X209700Y353080D02*
X210533Y353913D01*
X212199D01*
X213032Y353080D01*
Y352247D01*
X213033D01*
X213032D02*
X213033D01*
X213032D02*
X213033D01*
X213032D02*
X212199Y351414D01*
X211366D01*
X212199D01*
X213032Y350581D01*
Y349748D01*
X212199Y348915D01*
X210533D01*
X209700Y349748D01*
X214698Y348915D02*
X218031D01*
X214698D02*
X218031Y352247D01*
Y353080D01*
X217198Y353913D01*
X215531D01*
X214698Y353080D01*
X210767Y344894D02*
X209934Y344061D01*
X210767Y344894D02*
X212433D01*
X213266Y344061D01*
Y343228D01*
X213267D01*
X213266D02*
X213267D01*
X213266D02*
X213267D01*
X213266D02*
X212433Y342394D01*
X211600D01*
X212433D01*
X213266Y341561D01*
Y340728D01*
X212433Y339895D01*
X210767D01*
X209934Y340728D01*
X214932Y339895D02*
X218264D01*
X214932D02*
X218264Y343228D01*
Y344061D01*
X217431Y344894D01*
X215765D01*
X214932Y344061D01*
X202792Y281602D02*
X201959Y280768D01*
X202792Y281602D02*
X204458D01*
X205292Y280768D01*
Y279935D01*
X205293D01*
X205292D02*
X205293D01*
X205292D02*
X205293D01*
X205292D02*
X204458Y279102D01*
X203625D01*
X204458D01*
X205292Y278269D01*
Y277436D01*
X204458Y276603D01*
X202792D01*
X201959Y277436D01*
X206958Y276603D02*
X210290D01*
X206958D02*
X210290Y279935D01*
Y280768D01*
X209457Y281602D01*
X207791D01*
X206958Y280768D01*
X166394Y327279D02*
X167227Y328112D01*
X168893D01*
X169726Y327279D01*
Y326446D01*
X169727D01*
X169726D02*
X169727D01*
X169726D02*
X169727D01*
X169726D02*
X168893Y325613D01*
X168060D01*
X168893D01*
X169726Y324780D01*
Y323947D01*
X168893Y323114D01*
X167227D01*
X166394Y323947D01*
X171392Y323114D02*
X174724D01*
X171392D02*
X174724Y326446D01*
Y327279D01*
X173891Y328112D01*
X172225D01*
X171392Y327279D01*
X212020Y312128D02*
X212854Y312961D01*
X214520D01*
X215353Y312128D01*
Y311295D01*
X215354D01*
X215353D02*
X215354D01*
X215353D02*
X215354D01*
X215353D02*
X214520Y310462D01*
X213687D01*
X214520D01*
X215353Y309629D01*
Y308796D01*
X214520Y307963D01*
X212854D01*
X212020Y308796D01*
X217019Y307963D02*
X220351D01*
X217019D02*
X220351Y311295D01*
Y312128D01*
X219518Y312961D01*
X217852D01*
X217019Y312128D01*
X200400Y408761D02*
X201233Y409594D01*
X202899D01*
X203732Y408761D01*
Y407928D01*
X203733D01*
X203732D02*
X203733D01*
X203732D02*
X203733D01*
X203732D02*
X202899Y407095D01*
X202066D01*
X202899D01*
X203732Y406262D01*
Y405429D01*
X202899Y404596D01*
X201233D01*
X200400Y405429D01*
X205398Y404596D02*
X208731D01*
X205398D02*
X208731Y407928D01*
Y408761D01*
X207898Y409594D01*
X206231D01*
X205398Y408761D01*
X209902Y434543D02*
X210735Y435376D01*
X212401D01*
X213234Y434543D01*
Y433710D01*
X213235D01*
X213234D02*
X213235D01*
X213234D02*
X213235D01*
X213234D02*
X212401Y432877D01*
X211568D01*
X212401D01*
X213234Y432044D01*
Y431211D01*
X212401Y430378D01*
X210735D01*
X209902Y431211D01*
X214900Y430378D02*
X218232D01*
X214900D02*
X218232Y433710D01*
Y434543D01*
X217399Y435376D01*
X215733D01*
X214900Y434543D01*
X210718Y426409D02*
X209885Y425576D01*
X210718Y426409D02*
X212384D01*
X213217Y425576D01*
Y424742D01*
X213218D01*
X213217D02*
X213218D01*
X213217D02*
X213218D01*
X213217D02*
X212384Y423909D01*
X211551D01*
X212384D01*
X213217Y423076D01*
Y422243D01*
X212384Y421410D01*
X210718D01*
X209885Y422243D01*
X214883Y421410D02*
X218216D01*
X214883D02*
X218216Y424742D01*
Y425576D01*
X217383Y426409D01*
X215716D01*
X214883Y425576D01*
X168009Y411498D02*
X167176Y410665D01*
X168009Y411498D02*
X169675D01*
X170508Y410665D01*
Y409832D01*
X170509D01*
X170508D02*
X170509D01*
X170508D02*
X170509D01*
X170508D02*
X169675Y408999D01*
X168842D01*
X169675D01*
X170508Y408166D01*
Y407333D01*
X169675Y406500D01*
X168009D01*
X167176Y407333D01*
X172174Y406500D02*
X175507D01*
X172174D02*
X175507Y409832D01*
Y410665D01*
X174674Y411498D01*
X173007D01*
X172174Y410665D01*
X201233Y369594D02*
X200400Y368761D01*
X201233Y369594D02*
X202899D01*
X203732Y368761D01*
Y367928D01*
X203733D01*
X203732D02*
X203733D01*
X203732D02*
X203733D01*
X203732D02*
X202899Y367095D01*
X202066D01*
X202899D01*
X203732Y366262D01*
Y365429D01*
X202899Y364596D01*
X201233D01*
X200400Y365429D01*
X205398Y364596D02*
X208731D01*
X205398D02*
X208731Y367928D01*
Y368761D01*
X207898Y369594D01*
X206231D01*
X205398Y368761D01*
X179033Y490173D02*
X179866Y491006D01*
X181532D01*
X182365Y490173D01*
Y489340D01*
X182366D01*
X182365D02*
X182366D01*
X182365D02*
X182366D01*
X182365D02*
X181532Y488507D01*
X180699D01*
X181532D01*
X182365Y487674D01*
Y486841D01*
X181532Y486008D01*
X179866D01*
X179033Y486841D01*
X184031Y486008D02*
X187363D01*
X184031D02*
X187363Y489340D01*
Y490173D01*
X186530Y491006D01*
X184864D01*
X184031Y490173D01*
X201033Y446765D02*
X200200Y445931D01*
X201033Y446765D02*
X202699D01*
X203532Y445931D01*
Y445098D01*
X203533D01*
X203532D02*
X203533D01*
X203532D02*
X203533D01*
X203532D02*
X202699Y444265D01*
X201866D01*
X202699D01*
X203532Y443432D01*
Y442599D01*
X202699Y441766D01*
X201033D01*
X200200Y442599D01*
X205198Y441766D02*
X208531D01*
X205198D02*
X208531Y445098D01*
Y445931D01*
X207698Y446765D01*
X206031D01*
X205198Y445931D01*
X200200Y485931D02*
X201033Y486765D01*
X202699D01*
X203532Y485931D01*
Y485098D01*
X203533D01*
X203532D02*
X203533D01*
X203532D02*
X203533D01*
X203532D02*
X202699Y484265D01*
X201866D01*
X202699D01*
X203532Y483432D01*
Y482599D01*
X202699Y481766D01*
X201033D01*
X200200Y482599D01*
X205198Y481766D02*
X208531D01*
X205198D02*
X208531Y485098D01*
Y485931D01*
X207698Y486765D01*
X206031D01*
X205198Y485931D01*
X183751Y258367D02*
X182918Y257534D01*
X183751Y258367D02*
X185417D01*
X186250Y257534D01*
Y256701D01*
X186252D01*
X186250D02*
X186252D01*
X186250D02*
X186252D01*
X186250D02*
X185417Y255868D01*
X184584D01*
X185417D01*
X186250Y255035D01*
Y254202D01*
X185417Y253369D01*
X183751D01*
X182918Y254202D01*
X187917Y253369D02*
X191249D01*
X187917D02*
X191249Y256701D01*
Y257534D01*
X190416Y258367D01*
X188750D01*
X187917Y257534D01*
X143751Y258367D02*
X142918Y257534D01*
X143751Y258367D02*
X145417D01*
X146250Y257534D01*
Y256701D01*
X146252D01*
X146250D02*
X146252D01*
X146250D02*
X146252D01*
X146250D02*
X145417Y255868D01*
X144584D01*
X145417D01*
X146250Y255035D01*
Y254202D01*
X145417Y253369D01*
X143751D01*
X142918Y254202D01*
X147917Y253369D02*
X151249D01*
X147917D02*
X151249Y256701D01*
Y257534D01*
X150416Y258367D01*
X148750D01*
X147917Y257534D01*
X499000Y386265D02*
X499833Y387098D01*
X501499D01*
X502332Y386265D01*
Y385432D01*
X502333D01*
X502332D02*
X502333D01*
X502332D02*
X502333D01*
X502332D02*
X501499Y384599D01*
X500666D01*
X501499D01*
X502332Y383766D01*
Y382933D01*
X501499Y382100D01*
X499833D01*
X499000Y382933D01*
X503998Y382100D02*
X507331D01*
X503998D02*
X507331Y385432D01*
Y386265D01*
X506498Y387098D01*
X504831D01*
X503998Y386265D01*
X179409Y418098D02*
X178576Y417265D01*
X179409Y418098D02*
X181075D01*
X181908Y417265D01*
Y416432D01*
X181909D01*
X181908D02*
X181909D01*
X181908D02*
X181909D01*
X181908D02*
X181075Y415599D01*
X180242D01*
X181075D01*
X181908Y414766D01*
Y413933D01*
X181075Y413100D01*
X179409D01*
X178576Y413933D01*
X183574Y413100D02*
X186907D01*
X183574D02*
X186907Y416432D01*
Y417265D01*
X186074Y418098D01*
X184407D01*
X183574Y417265D01*
X209961Y392155D02*
X210794Y392988D01*
X212460D01*
X213293Y392155D01*
Y391322D01*
X213294D01*
X213293D02*
X213294D01*
X213293D02*
X213294D01*
X213293D02*
X212460Y390489D01*
X211627D01*
X212460D01*
X213293Y389656D01*
Y388823D01*
X212460Y387990D01*
X210794D01*
X209961Y388823D01*
X214959Y387990D02*
X218291D01*
X214959D02*
X218291Y391322D01*
Y392155D01*
X217458Y392988D01*
X215792D01*
X214959Y392155D01*
X249961D02*
X250794Y392988D01*
X252460D01*
X253293Y392155D01*
Y391322D01*
X253294D01*
X253293D02*
X253294D01*
X253293D02*
X253294D01*
X253293D02*
X252460Y390489D01*
X251627D01*
X252460D01*
X253293Y389656D01*
Y388823D01*
X252460Y387990D01*
X250794D01*
X249961Y388823D01*
X254959Y387990D02*
X258291D01*
X254959D02*
X258291Y391322D01*
Y392155D01*
X257458Y392988D01*
X255792D01*
X254959Y392155D01*
X210738Y507935D02*
X211571Y508768D01*
X213237D01*
X214070Y507935D01*
Y507102D01*
X214072D01*
X214070D02*
X214072D01*
X214070D02*
X214072D01*
X214070D02*
X213237Y506269D01*
X212404D01*
X213237D01*
X214070Y505436D01*
Y504603D01*
X213237Y503770D01*
X211571D01*
X210738Y504603D01*
X215737Y503770D02*
X219069D01*
X215737D02*
X219069Y507102D01*
Y507935D01*
X218236Y508768D01*
X216570D01*
X215737Y507935D01*
X171571Y508768D02*
X170738Y507935D01*
X171571Y508768D02*
X173237D01*
X174070Y507935D01*
Y507102D01*
X174072D01*
X174070D02*
X174072D01*
X174070D02*
X174072D01*
X174070D02*
X173237Y506269D01*
X172404D01*
X173237D01*
X174070Y505436D01*
Y504603D01*
X173237Y503770D01*
X171571D01*
X170738Y504603D01*
X175737Y503770D02*
X179069D01*
X175737D02*
X179069Y507102D01*
Y507935D01*
X178236Y508768D01*
X176570D01*
X175737Y507935D01*
X167809Y490898D02*
X166976Y490065D01*
X167809Y490898D02*
X169475D01*
X170308Y490065D01*
Y489232D01*
X170309D01*
X170308D02*
X170309D01*
X170308D02*
X170309D01*
X170308D02*
X169475Y488399D01*
X168642D01*
X169475D01*
X170308Y487566D01*
Y486733D01*
X169475Y485900D01*
X167809D01*
X166976Y486733D01*
X171974Y485900D02*
X175307D01*
X171974D02*
X175307Y489232D01*
Y490065D01*
X174474Y490898D01*
X172807D01*
X171974Y490065D01*
X445152Y338043D02*
X445985Y338876D01*
X447651D01*
X448484Y338043D01*
Y337210D01*
X448485D01*
X448484D02*
X448485D01*
X448484D02*
X448485D01*
X448484D02*
X447651Y336377D01*
X446818D01*
X447651D01*
X448484Y335544D01*
Y334711D01*
X447651Y333878D01*
X445985D01*
X445152Y334711D01*
X450150Y333878D02*
X453483D01*
X450150D02*
X453483Y337210D01*
Y338043D01*
X452650Y338876D01*
X450983D01*
X450150Y338043D01*
X244490Y445333D02*
X243657Y444500D01*
X244490Y445333D02*
X246156D01*
X246989Y444500D01*
Y443667D01*
X246990D01*
X246989D02*
X246990D01*
X246989D02*
X246990D01*
X246989D02*
X246156Y442834D01*
X245323D01*
X246156D01*
X246989Y442001D01*
Y441168D01*
X246156Y440335D01*
X244490D01*
X243657Y441168D01*
X248655Y440335D02*
X251987D01*
X248655D02*
X251987Y443667D01*
Y444500D01*
X251154Y445333D01*
X249488D01*
X248655Y444500D01*
X243592Y480431D02*
X244425Y481264D01*
X246091D01*
X246924Y480431D01*
Y479598D01*
X246925D01*
X246924D02*
X246925D01*
X246924D02*
X246925D01*
X246924D02*
X246091Y478765D01*
X245258D01*
X246091D01*
X246924Y477931D01*
Y477098D01*
X246091Y476265D01*
X244425D01*
X243592Y477098D01*
X248591Y476265D02*
X251923D01*
X248591D02*
X251923Y479598D01*
Y480431D01*
X251090Y481264D01*
X249424D01*
X248591Y480431D01*
X264370Y464503D02*
X265203Y465336D01*
X266869D01*
X267702Y464503D01*
Y463670D01*
X267703D01*
X267702D02*
X267703D01*
X267702D02*
X267703D01*
X267702D02*
X266869Y462837D01*
X266036D01*
X266869D01*
X267702Y462004D01*
Y461171D01*
X266869Y460338D01*
X265203D01*
X264370Y461171D01*
X269368Y460338D02*
X272701D01*
X269368D02*
X272701Y463670D01*
Y464503D01*
X271868Y465336D01*
X270202D01*
X269368Y464503D01*
X264370Y484503D02*
X265203Y485336D01*
X266869D01*
X267702Y484503D01*
Y483670D01*
X267703D01*
X267702D02*
X267703D01*
X267702D02*
X267703D01*
X267702D02*
X266869Y482837D01*
X266036D01*
X266869D01*
X267702Y482004D01*
Y481171D01*
X266869Y480338D01*
X265203D01*
X264370Y481171D01*
X269368Y480338D02*
X272701D01*
X269368D02*
X272701Y483670D01*
Y484503D01*
X271868Y485336D01*
X270202D01*
X269368Y484503D01*
X210718Y463794D02*
X209885Y462961D01*
X210718Y463794D02*
X212384D01*
X213217Y462961D01*
Y462128D01*
X213218D01*
X213217D02*
X213218D01*
X213217D02*
X213218D01*
X213217D02*
X212384Y461295D01*
X211551D01*
X212384D01*
X213217Y460462D01*
Y459629D01*
X212384Y458796D01*
X210718D01*
X209885Y459629D01*
X214883Y458796D02*
X218216D01*
X214883D02*
X218216Y462128D01*
Y462961D01*
X217383Y463794D01*
X215716D01*
X214883Y462961D01*
X249885D02*
X250718Y463794D01*
X252384D01*
X253217Y462961D01*
Y462128D01*
X253218D01*
X253217D02*
X253218D01*
X253217D02*
X253218D01*
X253217D02*
X252384Y461295D01*
X251551D01*
X252384D01*
X253217Y460462D01*
Y459629D01*
X252384Y458796D01*
X250718D01*
X249885Y459629D01*
X254883Y458796D02*
X258216D01*
X254883D02*
X258216Y462128D01*
Y462961D01*
X257383Y463794D01*
X255716D01*
X254883Y462961D01*
X211636Y498042D02*
X210803Y497209D01*
X211636Y498042D02*
X213302D01*
X214135Y497209D01*
Y496376D01*
X214136D01*
X214135D02*
X214136D01*
X214135D02*
X214136D01*
X214135D02*
X213302Y495542D01*
X212469D01*
X213302D01*
X214135Y494710D01*
Y493876D01*
X213302Y493043D01*
X211636D01*
X210803Y493876D01*
X215802Y493043D02*
X219134D01*
X215802D02*
X219134Y496376D01*
Y497209D01*
X218301Y498042D01*
X216635D01*
X215802Y497209D01*
X250803Y497209D02*
X251636Y498042D01*
X253302D01*
X254136Y497209D01*
Y496376D01*
X254136D01*
X254136D02*
X254136D01*
X254136D02*
X254136D01*
X254136D02*
X253302Y495542D01*
X252469D01*
X253302D01*
X254136Y494709D01*
Y493876D01*
X253302Y493043D01*
X251636D01*
X250803Y493876D01*
X255802Y493043D02*
X259134D01*
X255802D02*
X259134Y496376D01*
Y497209D01*
X258301Y498042D01*
X256635D01*
X255802Y497209D01*
X352524Y555365D02*
X353357Y556198D01*
X355023D01*
X355856Y555365D01*
Y554532D01*
X355857D01*
X355856D02*
X355857D01*
X355856D02*
X355857D01*
X355856D02*
X355023Y553699D01*
X354190D01*
X355023D01*
X355856Y552866D01*
Y552033D01*
X355023Y551200D01*
X353357D01*
X352524Y552033D01*
X357522Y551200D02*
X360855D01*
X357522D02*
X360855Y554532D01*
Y555365D01*
X360022Y556198D01*
X358355D01*
X357522Y555365D01*
X263263Y363588D02*
X262430Y362755D01*
X263263Y363588D02*
X264929D01*
X265762Y362755D01*
Y361922D01*
X265763D01*
X265762D02*
X265763D01*
X265762D02*
X265763D01*
X265762D02*
X264929Y361089D01*
X264096D01*
X264929D01*
X265762Y360256D01*
Y359423D01*
X264929Y358590D01*
X263263D01*
X262430Y359423D01*
X267428Y358590D02*
X270760D01*
X267428D02*
X270760Y361922D01*
Y362755D01*
X269928Y363588D01*
X268261D01*
X267428Y362755D01*
X263263Y343588D02*
X262430Y342755D01*
X263263Y343588D02*
X264929D01*
X265762Y342755D01*
Y341922D01*
X265763D01*
X265762D02*
X265763D01*
X265762D02*
X265763D01*
X265762D02*
X264929Y341089D01*
X264096D01*
X264929D01*
X265762Y340256D01*
Y339423D01*
X264929Y338590D01*
X263263D01*
X262430Y339423D01*
X267428Y338590D02*
X270760D01*
X267428D02*
X270760Y341922D01*
Y342755D01*
X269928Y343588D01*
X268261D01*
X267428Y342755D01*
X320085Y129801D02*
X319252Y128968D01*
X320085Y129801D02*
X321751D01*
X322584Y128968D01*
Y128135D01*
X322585D01*
X322584D02*
X322585D01*
X322584D02*
X322585D01*
X322584D02*
X321751Y127302D01*
X320918D01*
X321751D01*
X322584Y126468D01*
Y125636D01*
X321751Y124802D01*
X320085D01*
X319252Y125636D01*
X324250Y124802D02*
X327583D01*
X324250D02*
X327583Y128135D01*
Y128968D01*
X326750Y129801D01*
X325083D01*
X324250Y128968D01*
X319252Y138968D02*
X320085Y139801D01*
X321751D01*
X322584Y138968D01*
Y138135D01*
X322585D01*
X322584D02*
X322585D01*
X322584D02*
X322585D01*
X322584D02*
X321751Y137302D01*
X320918D01*
X321751D01*
X322584Y136468D01*
Y135636D01*
X321751Y134802D01*
X320085D01*
X319252Y135636D01*
X324250Y134802D02*
X327583D01*
X324250D02*
X327583Y138135D01*
Y138968D01*
X326750Y139801D01*
X325083D01*
X324250Y138968D01*
X319252Y308968D02*
X320085Y309801D01*
X321751D01*
X322584Y308968D01*
Y308135D01*
X322585D01*
X322584D02*
X322585D01*
X322584D02*
X322585D01*
X322584D02*
X321751Y307302D01*
X320918D01*
X321751D01*
X322584Y306468D01*
Y305636D01*
X321751Y304802D01*
X320085D01*
X319252Y305636D01*
X324250Y304802D02*
X327583D01*
X324250D02*
X327583Y308135D01*
Y308968D01*
X326750Y309801D01*
X325083D01*
X324250Y308968D01*
X320085Y179801D02*
X319252Y178968D01*
X320085Y179801D02*
X321751D01*
X322584Y178968D01*
Y178135D01*
X322585D01*
X322584D02*
X322585D01*
X322584D02*
X322585D01*
X322584D02*
X321751Y177302D01*
X320918D01*
X321751D01*
X322584Y176468D01*
Y175636D01*
X321751Y174802D01*
X320085D01*
X319252Y175636D01*
X324250Y174802D02*
X327583D01*
X324250D02*
X327583Y178135D01*
Y178968D01*
X326750Y179801D01*
X325083D01*
X324250Y178968D01*
X319252Y188968D02*
X320085Y189801D01*
X321751D01*
X322584Y188968D01*
Y188135D01*
X322585D01*
X322584D02*
X322585D01*
X322584D02*
X322585D01*
X322584D02*
X321751Y187302D01*
X320918D01*
X321751D01*
X322584Y186468D01*
Y185636D01*
X321751Y184802D01*
X320085D01*
X319252Y185636D01*
X324250Y184802D02*
X327583D01*
X324250D02*
X327583Y188135D01*
Y188968D01*
X326750Y189801D01*
X325083D01*
X324250Y188968D01*
X379252Y138968D02*
X380085Y139801D01*
X381751D01*
X382584Y138968D01*
Y138135D01*
X382585D01*
X382584D02*
X382585D01*
X382584D02*
X382585D01*
X382584D02*
X381751Y137302D01*
X380918D01*
X381751D01*
X382584Y136468D01*
Y135636D01*
X381751Y134802D01*
X380085D01*
X379252Y135636D01*
X384250Y134802D02*
X387583D01*
X384250D02*
X387583Y138135D01*
Y138968D01*
X386750Y139801D01*
X385083D01*
X384250Y138968D01*
X320085Y169801D02*
X319252Y168968D01*
X320085Y169801D02*
X321751D01*
X322584Y168968D01*
Y168135D01*
X322585D01*
X322584D02*
X322585D01*
X322584D02*
X322585D01*
X322584D02*
X321751Y167302D01*
X320918D01*
X321751D01*
X322584Y166468D01*
Y165636D01*
X321751Y164802D01*
X320085D01*
X319252Y165636D01*
X324250Y164802D02*
X327583D01*
X324250D02*
X327583Y168135D01*
Y168968D01*
X326750Y169801D01*
X325083D01*
X324250Y168968D01*
X379252Y188968D02*
X380085Y189801D01*
X381751D01*
X382584Y188968D01*
Y188135D01*
X382585D01*
X382584D02*
X382585D01*
X382584D02*
X382585D01*
X382584D02*
X381751Y187302D01*
X380918D01*
X381751D01*
X382584Y186468D01*
Y185636D01*
X381751Y184802D01*
X380085D01*
X379252Y185636D01*
X384250Y184802D02*
X387583D01*
X384250D02*
X387583Y188135D01*
Y188968D01*
X386750Y189801D01*
X385083D01*
X384250Y188968D01*
X380085Y179801D02*
X379252Y178968D01*
X380085Y179801D02*
X381751D01*
X382584Y178968D01*
Y178135D01*
X382585D01*
X382584D02*
X382585D01*
X382584D02*
X382585D01*
X382584D02*
X381751Y177302D01*
X380918D01*
X381751D01*
X382584Y176468D01*
Y175636D01*
X381751Y174802D01*
X380085D01*
X379252Y175636D01*
X384250Y174802D02*
X387583D01*
X384250D02*
X387583Y178135D01*
Y178968D01*
X386750Y179801D01*
X385083D01*
X384250Y178968D01*
X380085Y159801D02*
X379252Y158968D01*
X380085Y159801D02*
X381751D01*
X382584Y158968D01*
Y158135D01*
X382585D01*
X382584D02*
X382585D01*
X382584D02*
X382585D01*
X382584D02*
X381751Y157302D01*
X380918D01*
X381751D01*
X382584Y156468D01*
Y155636D01*
X381751Y154802D01*
X380085D01*
X379252Y155636D01*
X384250Y154802D02*
X387583D01*
X384250D02*
X387583Y158135D01*
Y158968D01*
X386750Y159801D01*
X385083D01*
X384250Y158968D01*
X319252Y298968D02*
X320085Y299801D01*
X321751D01*
X322584Y298968D01*
Y298135D01*
X322585D01*
X322584D02*
X322585D01*
X322584D02*
X322585D01*
X322584D02*
X321751Y297302D01*
X320918D01*
X321751D01*
X322584Y296468D01*
Y295636D01*
X321751Y294802D01*
X320085D01*
X319252Y295636D01*
X324250Y294802D02*
X327583D01*
X324250D02*
X327583Y298135D01*
Y298968D01*
X326750Y299801D01*
X325083D01*
X324250Y298968D01*
X320085Y289801D02*
X319252Y288968D01*
X320085Y289801D02*
X321751D01*
X322584Y288968D01*
Y288135D01*
X322585D01*
X322584D02*
X322585D01*
X322584D02*
X322585D01*
X322584D02*
X321751Y287302D01*
X320918D01*
X321751D01*
X322584Y286468D01*
Y285636D01*
X321751Y284802D01*
X320085D01*
X319252Y285636D01*
X324250Y284802D02*
X327583D01*
X324250D02*
X327583Y288135D01*
Y288968D01*
X326750Y289801D01*
X325083D01*
X324250Y288968D01*
X320085Y279801D02*
X319252Y278968D01*
X320085Y279801D02*
X321751D01*
X322584Y278968D01*
Y278135D01*
X322585D01*
X322584D02*
X322585D01*
X322584D02*
X322585D01*
X322584D02*
X321751Y277302D01*
X320918D01*
X321751D01*
X322584Y276468D01*
Y275636D01*
X321751Y274802D01*
X320085D01*
X319252Y275636D01*
X324250Y274802D02*
X327583D01*
X324250D02*
X327583Y278135D01*
Y278968D01*
X326750Y279801D01*
X325083D01*
X324250Y278968D01*
X320085Y269801D02*
X319252Y268968D01*
X320085Y269801D02*
X321751D01*
X322584Y268968D01*
Y268135D01*
X322585D01*
X322584D02*
X322585D01*
X322584D02*
X322585D01*
X322584D02*
X321751Y267302D01*
X320918D01*
X321751D01*
X322584Y266468D01*
Y265636D01*
X321751Y264802D01*
X320085D01*
X319252Y265636D01*
X324250Y264802D02*
X327583D01*
X324250D02*
X327583Y268135D01*
Y268968D01*
X326750Y269801D01*
X325083D01*
X324250Y268968D01*
X320085Y259801D02*
X319252Y258968D01*
X320085Y259801D02*
X321751D01*
X322584Y258968D01*
Y258135D01*
X322585D01*
X322584D02*
X322585D01*
X322584D02*
X322585D01*
X322584D02*
X321751Y257302D01*
X320918D01*
X321751D01*
X322584Y256468D01*
Y255636D01*
X321751Y254802D01*
X320085D01*
X319252Y255636D01*
X324250Y254802D02*
X327583D01*
X324250D02*
X327583Y258135D01*
Y258968D01*
X326750Y259801D01*
X325083D01*
X324250Y258968D01*
X320085Y249801D02*
X319252Y248968D01*
X320085Y249801D02*
X321751D01*
X322584Y248968D01*
Y248135D01*
X322585D01*
X322584D02*
X322585D01*
X322584D02*
X322585D01*
X322584D02*
X321751Y247302D01*
X320918D01*
X321751D01*
X322584Y246468D01*
Y245636D01*
X321751Y244802D01*
X320085D01*
X319252Y245636D01*
X324250Y244802D02*
X327583D01*
X324250D02*
X327583Y248135D01*
Y248968D01*
X326750Y249801D01*
X325083D01*
X324250Y248968D01*
X320085Y149801D02*
X319252Y148968D01*
X320085Y149801D02*
X321751D01*
X322584Y148968D01*
Y148135D01*
X322585D01*
X322584D02*
X322585D01*
X322584D02*
X322585D01*
X322584D02*
X321751Y147302D01*
X320918D01*
X321751D01*
X322584Y146468D01*
Y145636D01*
X321751Y144802D01*
X320085D01*
X319252Y145636D01*
X324250Y144802D02*
X327583D01*
X324250D02*
X327583Y148135D01*
Y148968D01*
X326750Y149801D01*
X325083D01*
X324250Y148968D01*
X379252Y198968D02*
X380085Y199801D01*
X381751D01*
X382584Y198968D01*
Y198135D01*
X382585D01*
X382584D02*
X382585D01*
X382584D02*
X382585D01*
X382584D02*
X381751Y197302D01*
X380918D01*
X381751D01*
X382584Y196468D01*
Y195636D01*
X381751Y194802D01*
X380085D01*
X379252Y195636D01*
X384250Y194802D02*
X387583D01*
X384250D02*
X387583Y198135D01*
Y198968D01*
X386750Y199801D01*
X385083D01*
X384250Y198968D01*
X379252Y208968D02*
X380085Y209801D01*
X381751D01*
X382584Y208968D01*
Y208135D01*
X382585D01*
X382584D02*
X382585D01*
X382584D02*
X382585D01*
X382584D02*
X381751Y207302D01*
X380918D01*
X381751D01*
X382584Y206468D01*
Y205636D01*
X381751Y204802D01*
X380085D01*
X379252Y205636D01*
X384250Y204802D02*
X387583D01*
X384250D02*
X387583Y208135D01*
Y208968D01*
X386750Y209801D01*
X385083D01*
X384250Y208968D01*
X379252Y238968D02*
X380085Y239801D01*
X381751D01*
X382584Y238968D01*
Y238135D01*
X382585D01*
X382584D02*
X382585D01*
X382584D02*
X382585D01*
X382584D02*
X381751Y237302D01*
X380918D01*
X381751D01*
X382584Y236468D01*
Y235636D01*
X381751Y234802D01*
X380085D01*
X379252Y235636D01*
X384250Y234802D02*
X387583D01*
X384250D02*
X387583Y238135D01*
Y238968D01*
X386750Y239801D01*
X385083D01*
X384250Y238968D01*
X320085Y159801D02*
X319252Y158968D01*
X320085Y159801D02*
X321751D01*
X322584Y158968D01*
Y158135D01*
X322585D01*
X322584D02*
X322585D01*
X322584D02*
X322585D01*
X322584D02*
X321751Y157302D01*
X320918D01*
X321751D01*
X322584Y156468D01*
Y155636D01*
X321751Y154802D01*
X320085D01*
X319252Y155636D01*
X324250Y154802D02*
X327583D01*
X324250D02*
X327583Y158135D01*
Y158968D01*
X326750Y159801D01*
X325083D01*
X324250Y158968D01*
X379252Y288968D02*
X380085Y289801D01*
X381751D01*
X382584Y288968D01*
Y288135D01*
X382585D01*
X382584D02*
X382585D01*
X382584D02*
X382585D01*
X382584D02*
X381751Y287302D01*
X380918D01*
X381751D01*
X382584Y286468D01*
Y285636D01*
X381751Y284802D01*
X380085D01*
X379252Y285636D01*
X384250Y284802D02*
X387583D01*
X384250D02*
X387583Y288135D01*
Y288968D01*
X386750Y289801D01*
X385083D01*
X384250Y288968D01*
X380085Y279801D02*
X379252Y278968D01*
X380085Y279801D02*
X381751D01*
X382584Y278968D01*
Y278135D01*
X382585D01*
X382584D02*
X382585D01*
X382584D02*
X382585D01*
X382584D02*
X381751Y277302D01*
X380918D01*
X381751D01*
X382584Y276468D01*
Y275636D01*
X381751Y274802D01*
X380085D01*
X379252Y275636D01*
X384250Y274802D02*
X387583D01*
X384250D02*
X387583Y278135D01*
Y278968D01*
X386750Y279801D01*
X385083D01*
X384250Y278968D01*
X380085Y269801D02*
X379252Y268968D01*
X380085Y269801D02*
X381751D01*
X382584Y268968D01*
Y268135D01*
X382585D01*
X382584D02*
X382585D01*
X382584D02*
X382585D01*
X382584D02*
X381751Y267302D01*
X380918D01*
X381751D01*
X382584Y266468D01*
Y265636D01*
X381751Y264802D01*
X380085D01*
X379252Y265636D01*
X384250Y264802D02*
X387583D01*
X384250D02*
X387583Y268135D01*
Y268968D01*
X386750Y269801D01*
X385083D01*
X384250Y268968D01*
X380085Y169801D02*
X379252Y168968D01*
X380085Y169801D02*
X381751D01*
X382584Y168968D01*
Y168135D01*
X382585D01*
X382584D02*
X382585D01*
X382584D02*
X382585D01*
X382584D02*
X381751Y167302D01*
X380918D01*
X381751D01*
X382584Y166468D01*
Y165636D01*
X381751Y164802D01*
X380085D01*
X379252Y165636D01*
X384250Y164802D02*
X387583D01*
X384250D02*
X387583Y168135D01*
Y168968D01*
X386750Y169801D01*
X385083D01*
X384250Y168968D01*
X380085Y149801D02*
X379252Y148968D01*
X380085Y149801D02*
X381751D01*
X382584Y148968D01*
Y148135D01*
X382585D01*
X382584D02*
X382585D01*
X382584D02*
X382585D01*
X382584D02*
X381751Y147302D01*
X380918D01*
X381751D01*
X382584Y146468D01*
Y145636D01*
X381751Y144802D01*
X380085D01*
X379252Y145636D01*
X384250Y144802D02*
X387583D01*
X384250D02*
X387583Y148135D01*
Y148968D01*
X386750Y149801D01*
X385083D01*
X384250Y148968D01*
X380085Y129801D02*
X379252Y128968D01*
X380085Y129801D02*
X381751D01*
X382584Y128968D01*
Y128135D01*
X382585D01*
X382584D02*
X382585D01*
X382584D02*
X382585D01*
X382584D02*
X381751Y127302D01*
X380918D01*
X381751D01*
X382584Y126468D01*
Y125636D01*
X381751Y124802D01*
X380085D01*
X379252Y125636D01*
X384250Y124802D02*
X387583D01*
X384250D02*
X387583Y128135D01*
Y128968D01*
X386750Y129801D01*
X385083D01*
X384250Y128968D01*
X379252Y248968D02*
X380085Y249801D01*
X381751D01*
X382584Y248968D01*
Y248135D01*
X382585D01*
X382584D02*
X382585D01*
X382584D02*
X382585D01*
X382584D02*
X381751Y247302D01*
X380918D01*
X381751D01*
X382584Y246468D01*
Y245636D01*
X381751Y244802D01*
X380085D01*
X379252Y245636D01*
X384250Y244802D02*
X387583D01*
X384250D02*
X387583Y248135D01*
Y248968D01*
X386750Y249801D01*
X385083D01*
X384250Y248968D01*
X320085Y219801D02*
X319252Y218968D01*
X320085Y219801D02*
X321751D01*
X322584Y218968D01*
Y218135D01*
X322585D01*
X322584D02*
X322585D01*
X322584D02*
X322585D01*
X322584D02*
X321751Y217302D01*
X320918D01*
X321751D01*
X322584Y216468D01*
Y215636D01*
X321751Y214802D01*
X320085D01*
X319252Y215636D01*
X324250Y214802D02*
X327583D01*
X324250D02*
X327583Y218135D01*
Y218968D01*
X326750Y219801D01*
X325083D01*
X324250Y218968D01*
X319252Y238968D02*
X320085Y239801D01*
X321751D01*
X322584Y238968D01*
Y238135D01*
X322585D01*
X322584D02*
X322585D01*
X322584D02*
X322585D01*
X322584D02*
X321751Y237302D01*
X320918D01*
X321751D01*
X322584Y236468D01*
Y235636D01*
X321751Y234802D01*
X320085D01*
X319252Y235636D01*
X324250Y234802D02*
X327583D01*
X324250D02*
X327583Y238135D01*
Y238968D01*
X326750Y239801D01*
X325083D01*
X324250Y238968D01*
X320085Y229801D02*
X319252Y228968D01*
X320085Y229801D02*
X321751D01*
X322584Y228968D01*
Y228135D01*
X322585D01*
X322584D02*
X322585D01*
X322584D02*
X322585D01*
X322584D02*
X321751Y227302D01*
X320918D01*
X321751D01*
X322584Y226468D01*
Y225636D01*
X321751Y224802D01*
X320085D01*
X319252Y225636D01*
X324250Y224802D02*
X327583D01*
X324250D02*
X327583Y228135D01*
Y228968D01*
X326750Y229801D01*
X325083D01*
X324250Y228968D01*
X225332Y262698D02*
X222000D01*
Y260199D01*
X223666Y261032D01*
X224499D01*
X225332Y260199D01*
Y258533D01*
X224499Y257700D01*
X222833D01*
X222000Y258533D01*
X226998Y257700D02*
X230331D01*
X226998D02*
X230331Y261032D01*
Y261865D01*
X229498Y262698D01*
X227831D01*
X226998Y261865D01*
X352576Y566506D02*
X353409Y567338D01*
X355075D01*
X355908Y566506D01*
Y565672D01*
X355909D01*
X355908D02*
X355909D01*
X355908D02*
X355909D01*
X355908D02*
X355075Y564839D01*
X354242D01*
X355075D01*
X355908Y564006D01*
Y563173D01*
X355075Y562340D01*
X353409D01*
X352576Y563173D01*
X357574Y562340D02*
X360906D01*
X357574D02*
X360906Y565672D01*
Y566506D01*
X360073Y567338D01*
X358407D01*
X357574Y566506D01*
X402500Y347500D02*
X404166D01*
X403333D01*
Y352498D01*
X403334D01*
X403333D02*
X402500Y351665D01*
X406665Y347500D02*
X409998D01*
X406665D02*
X409998Y350832D01*
Y351665D01*
X409164Y352498D01*
X407498D01*
X406665Y351665D01*
X411664D02*
X412497Y352498D01*
X414163D01*
X414996Y351665D01*
Y348333D01*
X414163Y347500D01*
X412497D01*
X411664Y348333D01*
Y351665D01*
X144532Y119298D02*
X141200D01*
Y116799D01*
X142866Y117632D01*
X143699D01*
X144532Y116799D01*
Y115133D01*
X143699Y114300D01*
X142033D01*
X141200Y115133D01*
X146198Y114300D02*
X149531D01*
X146198D02*
X149531Y117632D01*
Y118465D01*
X148698Y119298D01*
X147031D01*
X146198Y118465D01*
X505100Y232341D02*
X505933Y233174D01*
X507599D01*
X508432Y232341D01*
Y231508D01*
X508433D01*
X508432D02*
X508433D01*
X508432D02*
X508433D01*
X508432D02*
X507599Y230675D01*
X506766D01*
X507599D01*
X508432Y229842D01*
Y229009D01*
X507599Y228176D01*
X505933D01*
X505100Y229009D01*
X510098Y228176D02*
X513430D01*
X510098D02*
X513430Y231508D01*
Y232341D01*
X512597Y233174D01*
X510931D01*
X510098Y232341D01*
X515100D02*
X515933Y233174D01*
X517599D01*
X518432Y232341D01*
Y231508D01*
X518433D01*
X518432D02*
X518433D01*
X518432D02*
X518433D01*
X518432D02*
X517599Y230675D01*
X516766D01*
X517599D01*
X518432Y229842D01*
Y229009D01*
X517599Y228176D01*
X515933D01*
X515100Y229009D01*
X520098Y228176D02*
X523430D01*
X520098D02*
X523430Y231508D01*
Y232341D01*
X522597Y233174D01*
X520931D01*
X520098Y232341D01*
X556400Y219165D02*
X557233Y219998D01*
X558899D01*
X559732Y219165D01*
Y218332D01*
X559733D01*
X559732D02*
X559733D01*
X559732D02*
X559733D01*
X559732D02*
X558899Y217499D01*
X558066D01*
X558899D01*
X559732Y216666D01*
Y215833D01*
X558899Y215000D01*
X557233D01*
X556400Y215833D01*
X561398Y215000D02*
X564731D01*
X561398D02*
X564731Y218332D01*
Y219165D01*
X563898Y219998D01*
X562231D01*
X561398Y219165D01*
X547233Y219998D02*
X546400Y219165D01*
X547233Y219998D02*
X548899D01*
X549732Y219165D01*
Y218332D01*
X549733D01*
X549732D02*
X549733D01*
X549732D02*
X549733D01*
X549732D02*
X548899Y217499D01*
X548066D01*
X548899D01*
X549732Y216666D01*
Y215833D01*
X548899Y215000D01*
X547233D01*
X546400Y215833D01*
X551398Y215000D02*
X554731D01*
X551398D02*
X554731Y218332D01*
Y219165D01*
X553898Y219998D01*
X552231D01*
X551398Y219165D01*
X250900Y539597D02*
X251733Y540430D01*
X253399D01*
X254232Y539597D01*
Y538764D01*
X254233D01*
X254232D02*
X254233D01*
X254232D02*
X254233D01*
X254232D02*
X253399Y537931D01*
X252566D01*
X253399D01*
X254232Y537098D01*
Y536265D01*
X253399Y535432D01*
X251733D01*
X250900Y536265D01*
X255898Y535432D02*
X259231D01*
X255898D02*
X259231Y538764D01*
Y539597D01*
X258398Y540430D01*
X256731D01*
X255898Y539597D01*
X211733Y540430D02*
X210900Y539597D01*
X211733Y540430D02*
X213399D01*
X214232Y539597D01*
Y538764D01*
X214233D01*
X214232D02*
X214233D01*
X214232D02*
X214233D01*
X214232D02*
X213399Y537931D01*
X212566D01*
X213399D01*
X214232Y537098D01*
Y536265D01*
X213399Y535432D01*
X211733D01*
X210900Y536265D01*
X215898Y535432D02*
X219231D01*
X215898D02*
X219231Y538764D01*
Y539597D01*
X218398Y540430D01*
X216731D01*
X215898Y539597D01*
X297888Y258944D02*
X297055Y258111D01*
X297888Y258944D02*
X299554D01*
X300387Y258111D01*
Y257278D01*
X300388D01*
X300387D02*
X300388D01*
X300387D02*
X300388D01*
X300387D02*
X299554Y256445D01*
X298721D01*
X299554D01*
X300387Y255612D01*
Y254779D01*
X299554Y253946D01*
X297888D01*
X297055Y254779D01*
X302054Y253946D02*
X305386D01*
X302054D02*
X305386Y257278D01*
Y258111D01*
X304553Y258944D01*
X302886D01*
X302054Y258111D01*
X297055Y268111D02*
X297888Y268944D01*
X299554D01*
X300387Y268111D01*
Y267278D01*
X300388D01*
X300387D02*
X300388D01*
X300387D02*
X300388D01*
X300387D02*
X299554Y266445D01*
X298721D01*
X299554D01*
X300387Y265612D01*
Y264779D01*
X299554Y263946D01*
X297888D01*
X297055Y264779D01*
X302054Y263946D02*
X305386D01*
X302054D02*
X305386Y267278D01*
Y268111D01*
X304553Y268944D01*
X302886D01*
X302054Y268111D01*
X297055Y278111D02*
X297888Y278944D01*
X299554D01*
X300387Y278111D01*
Y277278D01*
X300388D01*
X300387D02*
X300388D01*
X300387D02*
X300388D01*
X300387D02*
X299554Y276445D01*
X298721D01*
X299554D01*
X300387Y275612D01*
Y274779D01*
X299554Y273946D01*
X297888D01*
X297055Y274779D01*
X302054Y273946D02*
X305386D01*
X302054D02*
X305386Y277278D01*
Y278111D01*
X304553Y278944D01*
X302886D01*
X302054Y278111D01*
X297055Y288111D02*
X297888Y288944D01*
X299554D01*
X300387Y288111D01*
Y287278D01*
X300388D01*
X300387D02*
X300388D01*
X300387D02*
X300388D01*
X300387D02*
X299554Y286445D01*
X298721D01*
X299554D01*
X300387Y285612D01*
Y284779D01*
X299554Y283946D01*
X297888D01*
X297055Y284779D01*
X302054Y283946D02*
X305386D01*
X302054D02*
X305386Y287278D01*
Y288111D01*
X304553Y288944D01*
X302886D01*
X302054Y288111D01*
X297055Y298111D02*
X297888Y298944D01*
X299554D01*
X300387Y298111D01*
Y297278D01*
X300388D01*
X300387D02*
X300388D01*
X300387D02*
X300388D01*
X300387D02*
X299554Y296445D01*
X298721D01*
X299554D01*
X300387Y295612D01*
Y294779D01*
X299554Y293946D01*
X297888D01*
X297055Y294779D01*
X302054Y293946D02*
X305386D01*
X302054D02*
X305386Y297278D01*
Y298111D01*
X304553Y298944D01*
X302886D01*
X302054Y298111D01*
X297055Y308111D02*
X297888Y308944D01*
X299554D01*
X300387Y308111D01*
Y307278D01*
X300388D01*
X300387D02*
X300388D01*
X300387D02*
X300388D01*
X300387D02*
X299554Y306445D01*
X298721D01*
X299554D01*
X300387Y305612D01*
Y304779D01*
X299554Y303946D01*
X297888D01*
X297055Y304779D01*
X302054Y303946D02*
X305386D01*
X302054D02*
X305386Y307278D01*
Y308111D01*
X304553Y308944D01*
X302886D01*
X302054Y308111D01*
X602100Y514800D02*
X603766D01*
X602933D01*
Y519798D01*
X602934D01*
X602933D02*
X602100Y518965D01*
X606265D02*
X607098Y519798D01*
X608764D01*
X609598Y518965D01*
Y515633D01*
X608764Y514800D01*
X607098D01*
X606265Y515633D01*
Y518965D01*
X611264D02*
X612097Y519798D01*
X613763D01*
X614596Y518965D01*
Y515633D01*
X613763Y514800D01*
X612097D01*
X611264Y515633D01*
Y518965D01*
X603766Y562600D02*
X602100D01*
X602933D02*
X603766D01*
X602933D02*
Y567598D01*
X602934D01*
X602933D02*
X602100Y566765D01*
X606265D02*
X607098Y567598D01*
X608764D01*
X609598Y566765D01*
Y563433D01*
X608764Y562600D01*
X607098D01*
X606265Y563433D01*
Y566765D01*
X611264D02*
X612097Y567598D01*
X613763D01*
X614596Y566765D01*
Y563433D01*
X613763Y562600D01*
X612097D01*
X611264Y563433D01*
Y566765D01*
X593333Y548398D02*
X592500Y547565D01*
X593333Y548398D02*
X594999D01*
X595832Y547565D01*
Y546732D01*
X595833D01*
X595832D02*
X595833D01*
X595832D02*
X595833D01*
X595832D02*
X594999Y545899D01*
X594166D01*
X594999D01*
X595832Y545066D01*
Y544233D01*
X594999Y543400D01*
X593333D01*
X592500Y544233D01*
X597498Y543400D02*
X600831D01*
X597498D02*
X600831Y546732D01*
Y547565D01*
X599998Y548398D01*
X598331D01*
X597498Y547565D01*
X584833Y548398D02*
X584000Y547565D01*
X584833Y548398D02*
X586499D01*
X587332Y547565D01*
Y546732D01*
X587333D01*
X587332D02*
X587333D01*
X587332D02*
X587333D01*
X587332D02*
X586499Y545899D01*
X585666D01*
X586499D01*
X587332Y545066D01*
Y544233D01*
X586499Y543400D01*
X584833D01*
X584000Y544233D01*
X588998Y543400D02*
X592331D01*
X588998D02*
X592331Y546732D01*
Y547565D01*
X591498Y548398D01*
X589831D01*
X588998Y547565D01*
X584833Y538998D02*
X584000Y538165D01*
X584833Y538998D02*
X586499D01*
X587332Y538165D01*
Y537332D01*
X587333D01*
X587332D02*
X587333D01*
X587332D02*
X587333D01*
X587332D02*
X586499Y536499D01*
X585666D01*
X586499D01*
X587332Y535666D01*
Y534833D01*
X586499Y534000D01*
X584833D01*
X584000Y534833D01*
X588998Y534000D02*
X592331D01*
X588998D02*
X592331Y537332D01*
Y538165D01*
X591498Y538998D01*
X589831D01*
X588998Y538165D01*
X592500D02*
X593333Y538998D01*
X594999D01*
X595832Y538165D01*
Y537332D01*
X595833D01*
X595832D02*
X595833D01*
X595832D02*
X595833D01*
X595832D02*
X594999Y536499D01*
X594166D01*
X594999D01*
X595832Y535666D01*
Y534833D01*
X594999Y534000D01*
X593333D01*
X592500Y534833D01*
X597498Y534000D02*
X600831D01*
X597498D02*
X600831Y537332D01*
Y538165D01*
X599998Y538998D01*
X598331D01*
X597498Y538165D01*
X121332Y457298D02*
X118000D01*
X121332D02*
Y456465D01*
X118000Y453133D01*
Y452300D01*
X122998Y457298D02*
X126331D01*
X122998D02*
Y454799D01*
X124664Y455632D01*
X125498D01*
X126331Y454799D01*
Y453133D01*
X125498Y452300D01*
X123831D01*
X122998Y453133D01*
X121332Y472898D02*
X118000D01*
X121332D02*
Y472065D01*
X118000Y468733D01*
Y467900D01*
X122998Y472898D02*
X126331D01*
X122998D02*
Y470399D01*
X124664Y471232D01*
X125498D01*
X126331Y470399D01*
Y468733D01*
X125498Y467900D01*
X123831D01*
X122998Y468733D01*
X121332Y398698D02*
X118000D01*
X121332D02*
Y397865D01*
X118000Y394533D01*
Y393700D01*
X122998Y398698D02*
X126331D01*
X122998D02*
Y396199D01*
X124664Y397032D01*
X125498D01*
X126331Y396199D01*
Y394533D01*
X125498Y393700D01*
X123831D01*
X122998Y394533D01*
X121332Y309298D02*
X118000D01*
X121332D02*
Y308465D01*
X118000Y305133D01*
Y304300D01*
X122998Y309298D02*
X126331D01*
X122998D02*
Y306799D01*
X124664Y307632D01*
X125498D01*
X126331Y306799D01*
Y305133D01*
X125498Y304300D01*
X123831D01*
X122998Y305133D01*
X121332Y324898D02*
X118000D01*
X121332D02*
Y324065D01*
X118000Y320733D01*
Y319900D01*
X122998Y324898D02*
X126331D01*
X122998D02*
Y322399D01*
X124664Y323232D01*
X125498D01*
X126331Y322399D01*
Y320733D01*
X125498Y319900D01*
X123831D01*
X122998Y320733D01*
X121332Y546798D02*
X118000D01*
X121332D02*
Y545965D01*
X118000Y542633D01*
Y541800D01*
X122998Y546798D02*
X126331D01*
X122998D02*
Y544299D01*
X124664Y545132D01*
X125498D01*
X126331Y544299D01*
Y542633D01*
X125498Y541800D01*
X123831D01*
X122998Y542633D01*
X121332Y531298D02*
X118000D01*
X121332D02*
Y530465D01*
X118000Y527133D01*
Y526300D01*
X122998Y531298D02*
X126331D01*
X122998D02*
Y528799D01*
X124664Y529632D01*
X125498D01*
X126331Y528799D01*
Y527133D01*
X125498Y526300D01*
X123831D01*
X122998Y527133D01*
X179409Y297698D02*
X178576Y296865D01*
X179409Y297698D02*
X181075D01*
X181908Y296865D01*
Y296032D01*
X181909D01*
X181908D02*
X181909D01*
X181908D02*
X181909D01*
X181908D02*
X181075Y295199D01*
X180242D01*
X181075D01*
X181908Y294366D01*
Y293533D01*
X181075Y292700D01*
X179409D01*
X178576Y293533D01*
X183574Y292700D02*
X186907D01*
X183574D02*
X186907Y296032D01*
Y296865D01*
X186074Y297698D01*
X184407D01*
X183574Y296865D01*
X167227Y288112D02*
X166394Y287279D01*
X167227Y288112D02*
X168893D01*
X169726Y287279D01*
Y286446D01*
X169727D01*
X169726D02*
X169727D01*
X169726D02*
X169727D01*
X169726D02*
X168893Y285613D01*
X168060D01*
X168893D01*
X169726Y284780D01*
Y283947D01*
X168893Y283114D01*
X167227D01*
X166394Y283947D01*
X171392Y283114D02*
X174724D01*
X171392D02*
X174724Y286446D01*
Y287279D01*
X173891Y288112D01*
X172225D01*
X171392Y287279D01*
X178576Y377265D02*
X179409Y378098D01*
X181075D01*
X181908Y377265D01*
Y376432D01*
X181909D01*
X181908D02*
X181909D01*
X181908D02*
X181909D01*
X181908D02*
X181075Y375599D01*
X180242D01*
X181075D01*
X181908Y374766D01*
Y373933D01*
X181075Y373100D01*
X179409D01*
X178576Y373933D01*
X183574Y373100D02*
X186907D01*
X183574D02*
X186907Y376432D01*
Y377265D01*
X186074Y378098D01*
X184407D01*
X183574Y377265D01*
X133632Y402998D02*
X131966Y402165D01*
X130300Y400499D01*
Y398833D01*
X131133Y398000D01*
X132799D01*
X133632Y398833D01*
Y399666D01*
X132799Y400499D01*
X130300D01*
X135298Y398000D02*
X138631D01*
X135298D02*
X138631Y401332D01*
Y402165D01*
X137798Y402998D01*
X136131D01*
X135298Y402165D01*
X167176Y370665D02*
X168009Y371498D01*
X169675D01*
X170508Y370665D01*
Y369832D01*
X170509D01*
X170508D02*
X170509D01*
X170508D02*
X170509D01*
X170508D02*
X169675Y368999D01*
X168842D01*
X169675D01*
X170508Y368166D01*
Y367333D01*
X169675Y366500D01*
X168009D01*
X167176Y367333D01*
X172174Y366500D02*
X175507D01*
X172174D02*
X175507Y369832D01*
Y370665D01*
X174674Y371498D01*
X173007D01*
X172174Y370665D01*
X133632Y383298D02*
X131966Y382465D01*
X130300Y380799D01*
Y379133D01*
X131133Y378300D01*
X132799D01*
X133632Y379133D01*
Y379966D01*
X132799Y380799D01*
X130300D01*
X135298Y378300D02*
X138631D01*
X135298D02*
X138631Y381632D01*
Y382465D01*
X137798Y383298D01*
X136131D01*
X135298Y382465D01*
X179033Y450173D02*
X179866Y451006D01*
X181532D01*
X182365Y450173D01*
Y449340D01*
X182366D01*
X182365D02*
X182366D01*
X182365D02*
X182366D01*
X182365D02*
X181532Y448507D01*
X180699D01*
X181532D01*
X182365Y447674D01*
Y446841D01*
X181532Y446008D01*
X179866D01*
X179033Y446841D01*
X184031Y446008D02*
X187363D01*
X184031D02*
X187363Y449340D01*
Y450173D01*
X186530Y451006D01*
X184864D01*
X184031Y450173D01*
X133632Y476998D02*
X131966Y476165D01*
X130300Y474499D01*
Y472833D01*
X131133Y472000D01*
X132799D01*
X133632Y472833D01*
Y473666D01*
X132799Y474499D01*
X130300D01*
X135298Y472000D02*
X138631D01*
X135298D02*
X138631Y475332D01*
Y476165D01*
X137798Y476998D01*
X136131D01*
X135298Y476165D01*
X166976Y450065D02*
X167809Y450898D01*
X169475D01*
X170308Y450065D01*
Y449232D01*
X170309D01*
X170308D02*
X170309D01*
X170308D02*
X170309D01*
X170308D02*
X169475Y448399D01*
X168642D01*
X169475D01*
X170308Y447566D01*
Y446733D01*
X169475Y445900D01*
X167809D01*
X166976Y446733D01*
X171974Y445900D02*
X175307D01*
X171974D02*
X175307Y449232D01*
Y450065D01*
X174474Y450898D01*
X172807D01*
X171974Y450065D01*
X133632Y457298D02*
X131966Y456465D01*
X130300Y454799D01*
Y453133D01*
X131133Y452300D01*
X132799D01*
X133632Y453133D01*
Y453966D01*
X132799Y454799D01*
X130300D01*
X135298Y452300D02*
X138631D01*
X135298D02*
X138631Y455632D01*
Y456465D01*
X137798Y457298D01*
X136131D01*
X135298Y456465D01*
X177837Y534712D02*
X178670Y535545D01*
X180336D01*
X181170Y534712D01*
Y533879D01*
X181171D01*
X181170D02*
X181171D01*
X181170D02*
X181171D01*
X181170D02*
X180336Y533046D01*
X179503D01*
X180336D01*
X181170Y532213D01*
Y531380D01*
X180336Y530546D01*
X178670D01*
X177837Y531380D01*
X182836Y530546D02*
X186168D01*
X182836D02*
X186168Y533879D01*
Y534712D01*
X185335Y535545D01*
X183669D01*
X182836Y534712D01*
X133632Y550998D02*
X131966Y550165D01*
X130300Y548499D01*
Y546833D01*
X131133Y546000D01*
X132799D01*
X133632Y546833D01*
Y547666D01*
X132799Y548499D01*
X130300D01*
X135298Y546000D02*
X138631D01*
X135298D02*
X138631Y549332D01*
Y550165D01*
X137798Y550998D01*
X136131D01*
X135298Y550165D01*
X166628Y527765D02*
X167461Y528598D01*
X169127D01*
X169960Y527765D01*
Y526932D01*
X169961D01*
X169960D02*
X169961D01*
X169960D02*
X169961D01*
X169960D02*
X169127Y526099D01*
X168294D01*
X169127D01*
X169960Y525266D01*
Y524433D01*
X169127Y523600D01*
X167461D01*
X166628Y524433D01*
X171627Y523600D02*
X174959D01*
X171627D02*
X174959Y526932D01*
Y527765D01*
X174126Y528598D01*
X172460D01*
X171627Y527765D01*
X133632Y531298D02*
X131966Y530465D01*
X130300Y528799D01*
Y527133D01*
X131133Y526300D01*
X132799D01*
X133632Y527133D01*
Y527966D01*
X132799Y528799D01*
X130300D01*
X135298Y526300D02*
X138631D01*
X135298D02*
X138631Y529632D01*
Y530465D01*
X137798Y531298D01*
X136131D01*
X135298Y530465D01*
X513300Y532300D02*
X516632D01*
X513300D02*
X516632Y535632D01*
Y536465D01*
X515799Y537298D01*
X514133D01*
X513300Y536465D01*
X518298D02*
X519131Y537298D01*
X520798D01*
X521631Y536465D01*
Y533133D01*
X520798Y532300D01*
X519131D01*
X518298Y533133D01*
Y536465D01*
X573800Y320103D02*
X577132D01*
X573800D02*
X577132Y323436D01*
Y324268D01*
X576299Y325102D01*
X574633D01*
X573800Y324268D01*
X578798D02*
X579631Y325102D01*
X581298D01*
X582131Y324268D01*
Y320936D01*
X581298Y320103D01*
X579631D01*
X578798Y320936D01*
Y324268D01*
X550353Y256234D02*
X547020D01*
X550353Y259566D01*
Y260399D01*
X549520Y261232D01*
X547854D01*
X547020Y260399D01*
X552019D02*
X552852Y261232D01*
X554518D01*
X555351Y260399D01*
Y257067D01*
X554518Y256234D01*
X552852D01*
X552019Y257067D01*
Y260399D01*
X579816Y363929D02*
X583148D01*
X579816D02*
X583148Y367261D01*
Y368094D01*
X582315Y368928D01*
X580649D01*
X579816Y368094D01*
X584814D02*
X585647Y368928D01*
X587313D01*
X588146Y368094D01*
Y364762D01*
X587313Y363929D01*
X585647D01*
X584814Y364762D01*
Y368094D01*
X396732Y174100D02*
X393400D01*
X396732Y177432D01*
Y178265D01*
X395899Y179098D01*
X394233D01*
X393400Y178265D01*
X398398D02*
X399231Y179098D01*
X400898D01*
X401731Y178265D01*
Y174933D01*
X400898Y174100D01*
X399231D01*
X398398Y174933D01*
Y178265D01*
X397600Y184100D02*
X400932D01*
X397600D02*
X400932Y187432D01*
Y188265D01*
X400099Y189098D01*
X398433D01*
X397600Y188265D01*
X402598D02*
X403431Y189098D01*
X405098D01*
X405931Y188265D01*
Y184933D01*
X405098Y184100D01*
X403431D01*
X402598Y184933D01*
Y188265D01*
X507876Y525300D02*
X511208D01*
X507876D02*
X511208Y528632D01*
Y529465D01*
X510375Y530298D01*
X508709D01*
X507876Y529465D01*
X512874D02*
X513707Y530298D01*
X515373D01*
X516206Y529465D01*
Y526133D01*
X515373Y525300D01*
X513707D01*
X512874Y526133D01*
Y529465D01*
X500041Y557456D02*
X496709D01*
X500041Y560788D01*
Y561621D01*
X499208Y562454D01*
X497542D01*
X496709Y561621D01*
X501707D02*
X502540Y562454D01*
X504206D01*
X505039Y561621D01*
Y558289D01*
X504206Y557456D01*
X502540D01*
X501707Y558289D01*
Y561621D01*
X502300Y530200D02*
X505632D01*
X502300D02*
X505632Y533532D01*
Y534365D01*
X504799Y535198D01*
X503133D01*
X502300Y534365D01*
X507298D02*
X508131Y535198D01*
X509798D01*
X510631Y534365D01*
Y531033D01*
X509798Y530200D01*
X508131D01*
X507298Y531033D01*
Y534365D01*
X563200Y528100D02*
X566532D01*
X563200D02*
X566532Y531432D01*
Y532265D01*
X565699Y533098D01*
X564033D01*
X563200Y532265D01*
X568198D02*
X569031Y533098D01*
X570698D01*
X571531Y532265D01*
Y528933D01*
X570698Y528100D01*
X569031D01*
X568198Y528933D01*
Y532265D01*
X279932Y539500D02*
X276600D01*
X279932Y542832D01*
Y543665D01*
X279099Y544498D01*
X277433D01*
X276600Y543665D01*
X281598D02*
X282431Y544498D01*
X284098D01*
X284931Y543665D01*
Y540333D01*
X284098Y539500D01*
X282431D01*
X281598Y540333D01*
Y543665D01*
X281400Y527700D02*
X284732D01*
X281400D02*
X284732Y531032D01*
Y531865D01*
X283899Y532698D01*
X282233D01*
X281400Y531865D01*
X286398D02*
X287231Y532698D01*
X288898D01*
X289731Y531865D01*
Y528533D01*
X288898Y527700D01*
X287231D01*
X286398Y528533D01*
Y531865D01*
X280132Y471300D02*
X276800D01*
X280132Y474632D01*
Y475465D01*
X279299Y476298D01*
X277633D01*
X276800Y475465D01*
X281798D02*
X282631Y476298D01*
X284298D01*
X285131Y475465D01*
Y472133D01*
X284298Y471300D01*
X282631D01*
X281798Y472133D01*
Y475465D01*
X280132Y459100D02*
X276800D01*
X280132Y462432D01*
Y463265D01*
X279299Y464098D01*
X277633D01*
X276800Y463265D01*
X281798D02*
X282631Y464098D01*
X284298D01*
X285131Y463265D01*
Y459933D01*
X284298Y459100D01*
X282631D01*
X281798Y459933D01*
Y463265D01*
X275132Y471900D02*
X271800D01*
X275132Y475232D01*
Y476065D01*
X274299Y476898D01*
X272633D01*
X271800Y476065D01*
X276798D02*
X277631Y476898D01*
X279298D01*
X280131Y476065D01*
Y472733D01*
X279298Y471900D01*
X277631D01*
X276798Y472733D01*
Y476065D01*
X276400Y406700D02*
X279732D01*
X276400D02*
X279732Y410032D01*
Y410865D01*
X278899Y411698D01*
X277233D01*
X276400Y410865D01*
X281398D02*
X282231Y411698D01*
X283898D01*
X284731Y410865D01*
Y407533D01*
X283898Y406700D01*
X282231D01*
X281398Y407533D01*
Y410865D01*
X275132Y403300D02*
X271800D01*
X275132Y406632D01*
Y407465D01*
X274299Y408298D01*
X272633D01*
X271800Y407465D01*
X276798D02*
X277631Y408298D01*
X279298D01*
X280131Y407465D01*
Y404133D01*
X279298Y403300D01*
X277631D01*
X276798Y404133D01*
Y407465D01*
X276200Y350900D02*
X279532D01*
X276200D02*
X279532Y354232D01*
Y355065D01*
X278699Y355898D01*
X277033D01*
X276200Y355065D01*
X281198D02*
X282031Y355898D01*
X283698D01*
X284531Y355065D01*
Y351733D01*
X283698Y350900D01*
X282031D01*
X281198Y351733D01*
Y355065D01*
X322800Y553100D02*
X326132D01*
X322800D02*
X326132Y556432D01*
Y557265D01*
X325299Y558098D01*
X323633D01*
X322800Y557265D01*
X327798D02*
X328631Y558098D01*
X330298D01*
X331131Y557265D01*
Y553933D01*
X330298Y553100D01*
X328631D01*
X327798Y553933D01*
Y557265D01*
X327932Y482700D02*
X324600D01*
X327932Y486032D01*
Y486865D01*
X327099Y487698D01*
X325433D01*
X324600Y486865D01*
X329598D02*
X330431Y487698D01*
X332098D01*
X332931Y486865D01*
Y483533D01*
X332098Y482700D01*
X330431D01*
X329598Y483533D01*
Y486865D01*
X279332Y340100D02*
X276000D01*
X279332Y343432D01*
Y344265D01*
X278499Y345098D01*
X276833D01*
X276000Y344265D01*
X280998D02*
X281831Y345098D01*
X283498D01*
X284331Y344265D01*
Y340933D01*
X283498Y340100D01*
X281831D01*
X280998Y340933D01*
Y344265D01*
X330400Y462700D02*
X333732D01*
X330400D02*
X333732Y466032D01*
Y466865D01*
X332899Y467698D01*
X331233D01*
X330400Y466865D01*
X335398D02*
X336231Y467698D01*
X337898D01*
X338731Y466865D01*
Y463533D01*
X337898Y462700D01*
X336231D01*
X335398Y463533D01*
Y466865D01*
X355200Y462700D02*
X358532D01*
X355200D02*
X358532Y466032D01*
Y466865D01*
X357699Y467698D01*
X356033D01*
X355200Y466865D01*
X360198D02*
X361031Y467698D01*
X362698D01*
X363531Y466865D01*
Y463533D01*
X362698Y462700D01*
X361031D01*
X360198Y463533D01*
Y466865D01*
X332532Y452900D02*
X329200D01*
X332532Y456232D01*
Y457065D01*
X331699Y457898D01*
X330033D01*
X329200Y457065D01*
X334198D02*
X335031Y457898D01*
X336698D01*
X337531Y457065D01*
Y453733D01*
X336698Y452900D01*
X335031D01*
X334198Y453733D01*
Y457065D01*
X344200Y455300D02*
X347532D01*
X344200D02*
X347532Y458632D01*
Y459465D01*
X346699Y460298D01*
X345033D01*
X344200Y459465D01*
X349198D02*
X350031Y460298D01*
X351698D01*
X352531Y459465D01*
Y456133D01*
X351698Y455300D01*
X350031D01*
X349198Y456133D01*
Y459465D01*
X327732Y421700D02*
X324400D01*
X327732Y425032D01*
Y425865D01*
X326899Y426698D01*
X325233D01*
X324400Y425865D01*
X329398D02*
X330231Y426698D01*
X331898D01*
X332731Y425865D01*
Y422533D01*
X331898Y421700D01*
X330231D01*
X329398Y422533D01*
Y425865D01*
X284332Y395500D02*
X281000D01*
X284332Y398832D01*
Y399665D01*
X283499Y400498D01*
X281833D01*
X281000Y399665D01*
X285998D02*
X286831Y400498D01*
X288498D01*
X289331Y399665D01*
Y396333D01*
X288498Y395500D01*
X286831D01*
X285998Y396333D01*
Y399665D01*
X338400Y402300D02*
X341732D01*
X338400D02*
X341732Y405632D01*
Y406465D01*
X340899Y407298D01*
X339233D01*
X338400Y406465D01*
X343398D02*
X344231Y407298D01*
X345898D01*
X346731Y406465D01*
Y403133D01*
X345898Y402300D01*
X344231D01*
X343398Y403133D01*
Y406465D01*
X376000Y402500D02*
X379332D01*
X376000D02*
X379332Y405832D01*
Y406665D01*
X378499Y407498D01*
X376833D01*
X376000Y406665D01*
X380998D02*
X381831Y407498D01*
X383498D01*
X384331Y406665D01*
Y403333D01*
X383498Y402500D01*
X381831D01*
X380998Y403333D01*
Y406665D01*
X333732Y395700D02*
X330400D01*
X333732Y399032D01*
Y399865D01*
X332899Y400698D01*
X331233D01*
X330400Y399865D01*
X335398D02*
X336231Y400698D01*
X337898D01*
X338731Y399865D01*
Y396533D01*
X337898Y395700D01*
X336231D01*
X335398Y396533D01*
Y399865D01*
X362200Y395700D02*
X365532D01*
X362200D02*
X365532Y399032D01*
Y399865D01*
X364699Y400698D01*
X363033D01*
X362200Y399865D01*
X367198D02*
X368031Y400698D01*
X369698D01*
X370531Y399865D01*
Y396533D01*
X369698Y395700D01*
X368031D01*
X367198Y396533D01*
Y399865D01*
X327732Y365700D02*
X324400D01*
X327732Y369032D01*
Y369865D01*
X326899Y370698D01*
X325233D01*
X324400Y369865D01*
X329398D02*
X330231Y370698D01*
X331898D01*
X332731Y369865D01*
Y366533D01*
X331898Y365700D01*
X330231D01*
X329398Y366533D01*
Y369865D01*
X396252Y196202D02*
X399584D01*
X396252D02*
X399584Y199535D01*
Y200368D01*
X398751Y201201D01*
X397085D01*
X396252Y200368D01*
X401250D02*
X402083Y201201D01*
X403750D01*
X404583Y200368D01*
Y197036D01*
X403750Y196202D01*
X402083D01*
X401250Y197036D01*
Y200368D01*
X462200Y278500D02*
X465532D01*
X462200D02*
X465532Y281832D01*
Y282665D01*
X464699Y283498D01*
X463033D01*
X462200Y282665D01*
X467198D02*
X468031Y283498D01*
X469698D01*
X470531Y282665D01*
Y279333D01*
X469698Y278500D01*
X468031D01*
X467198Y279333D01*
Y282665D01*
X333532Y346100D02*
X330200D01*
X333532Y349432D01*
Y350265D01*
X332699Y351098D01*
X331033D01*
X330200Y350265D01*
X335198D02*
X336031Y351098D01*
X337698D01*
X338531Y350265D01*
Y346933D01*
X337698Y346100D01*
X336031D01*
X335198Y346933D01*
Y350265D01*
X376000Y346300D02*
X379332D01*
X376000D02*
X379332Y349632D01*
Y350465D01*
X378499Y351298D01*
X376833D01*
X376000Y350465D01*
X380998D02*
X381831Y351298D01*
X383498D01*
X384331Y350465D01*
Y347133D01*
X383498Y346300D01*
X381831D01*
X380998Y347133D01*
Y350465D01*
X329732Y334700D02*
X326400D01*
X329732Y338032D01*
Y338865D01*
X328899Y339698D01*
X327233D01*
X326400Y338865D01*
X331398D02*
X332231Y339698D01*
X333898D01*
X334731Y338865D01*
Y335533D01*
X333898Y334700D01*
X332231D01*
X331398Y335533D01*
Y338865D01*
X362400Y341100D02*
X365732D01*
X362400D02*
X365732Y344432D01*
Y345265D01*
X364899Y346098D01*
X363233D01*
X362400Y345265D01*
X367398D02*
X368231Y346098D01*
X369898D01*
X370731Y345265D01*
Y341933D01*
X369898Y341100D01*
X368231D01*
X367398Y341933D01*
Y345265D01*
X362332Y294300D02*
X359000D01*
X362332Y297632D01*
Y298465D01*
X361499Y299298D01*
X359833D01*
X359000Y298465D01*
X363998D02*
X364831Y299298D01*
X366498D01*
X367331Y298465D01*
Y295133D01*
X366498Y294300D01*
X364831D01*
X363998Y295133D01*
Y298465D01*
X274932Y353300D02*
X271600D01*
X274932Y356632D01*
Y357465D01*
X274099Y358298D01*
X272433D01*
X271600Y357465D01*
X276598D02*
X277431Y358298D01*
X279098D01*
X279931Y357465D01*
Y354133D01*
X279098Y353300D01*
X277431D01*
X276598Y354133D01*
Y357465D01*
X275132Y536700D02*
X271800D01*
X275132Y540032D01*
Y540865D01*
X274299Y541698D01*
X272633D01*
X271800Y540865D01*
X276798D02*
X277631Y541698D01*
X279298D01*
X280131Y540865D01*
Y537533D01*
X279298Y536700D01*
X277631D01*
X276798Y537533D01*
Y540865D01*
X323800Y328100D02*
X327132D01*
X323800D02*
X327132Y331432D01*
Y332265D01*
X326299Y333098D01*
X324633D01*
X323800Y332265D01*
X328798D02*
X329631Y333098D01*
X331298D01*
X332131Y332265D01*
Y328933D01*
X331298Y328100D01*
X329631D01*
X328798Y328933D01*
Y332265D01*
X346000Y284500D02*
X349332D01*
X346000D02*
X349332Y287832D01*
Y288665D01*
X348499Y289498D01*
X346833D01*
X346000Y288665D01*
X350998D02*
X351831Y289498D01*
X353498D01*
X354331Y288665D01*
Y285333D01*
X353498Y284500D01*
X351831D01*
X350998Y285333D01*
Y288665D01*
X359600Y254100D02*
X362932D01*
X359600D02*
X362932Y257432D01*
Y258265D01*
X362099Y259098D01*
X360433D01*
X359600Y258265D01*
X364598D02*
X365431Y259098D01*
X367098D01*
X367931Y258265D01*
Y254933D01*
X367098Y254100D01*
X365431D01*
X364598Y254933D01*
Y258265D01*
D12*
X87801Y322709D02*
Y326707D01*
Y322709D02*
X90800D01*
X89800Y324708D01*
Y325708D01*
X90800Y326707D01*
X92799D01*
X93799Y325708D01*
Y323708D01*
X92799Y322709D01*
X88801Y328707D02*
X87801Y329706D01*
Y331706D01*
X88801Y332705D01*
X92799D01*
X93799Y331706D01*
Y329706D01*
X92799Y328707D01*
X88801D01*
Y334705D02*
X87801Y335704D01*
Y337704D01*
X88801Y338703D01*
X92799D01*
X93799Y337704D01*
Y335704D01*
X92799Y334705D01*
X88801D01*
Y340703D02*
X87801Y341702D01*
Y343702D01*
X88801Y344702D01*
X92799D01*
X93799Y343702D01*
Y341702D01*
X92799Y340703D01*
X88801D01*
X91800Y352699D02*
X93799Y354698D01*
X91800Y352699D02*
X89800D01*
X87801Y354698D01*
X89800Y357697D02*
X93799D01*
X89800D02*
Y358697D01*
X90800Y359697D01*
X93799D01*
X90800D01*
X89800Y360696D01*
X90800Y361696D01*
X93799D01*
Y363695D02*
Y365695D01*
Y364695D01*
X89800D01*
Y363695D01*
X87801Y364695D02*
X87802D01*
X93799Y368694D02*
Y370693D01*
Y369693D01*
X87801D01*
Y368694D01*
X93799Y373692D02*
X91800Y375691D01*
X89800D01*
X87801Y373692D01*
X347909Y92199D02*
X351907D01*
X347909D02*
Y89200D01*
X349908Y90200D01*
X350908D01*
X351907Y89200D01*
Y87201D01*
X350908Y86201D01*
X348908D01*
X347909Y87201D01*
X353907Y92199D02*
X357905D01*
X353907D02*
Y89200D01*
X355906Y90200D01*
X356906D01*
X357905Y89200D01*
Y87201D01*
X356906Y86201D01*
X354906D01*
X353907Y87201D01*
X359905Y91199D02*
X360904Y92199D01*
X362904D01*
X363903Y91199D01*
Y87201D01*
X362904Y86201D01*
X360904D01*
X359905Y87201D01*
Y91199D01*
X365903D02*
X366902Y92199D01*
X368902D01*
X369902Y91199D01*
Y87201D01*
X368902Y86201D01*
X366902D01*
X365903Y87201D01*
Y91199D01*
X377899Y88200D02*
X379898Y86201D01*
X377899Y88200D02*
Y90200D01*
X379898Y92199D01*
X382897Y90200D02*
Y86201D01*
Y90200D02*
X383897D01*
X384897Y89200D01*
Y86201D01*
Y89200D01*
X385896Y90200D01*
X386896Y89200D01*
Y86201D01*
X388895D02*
X390895D01*
X389895D01*
Y90200D01*
X388895D01*
X389895Y92199D02*
X389896D01*
X393894Y86201D02*
X395893D01*
X394893D01*
Y92199D01*
X393894D01*
X398892Y86201D02*
X400891Y88200D01*
Y90200D01*
X398892Y92199D01*
D16*
X650000Y92000D02*
Y98400D01*
Y599800D02*
X100200D01*
X100000D02*
Y99800D01*
Y100000D02*
X650000D01*
X98900Y99900D02*
X92500D01*
X100200Y98600D02*
Y91900D01*
X650000Y100000D02*
Y599800D01*
X90200Y321709D02*
Y99800D01*
Y377891D02*
Y599800D01*
X88200Y105800D02*
X90200Y99800D01*
X92200Y105800D01*
X88200Y593800D02*
X90200Y599800D01*
X92200Y593800D01*
X91200Y99800D02*
X89200D01*
Y599800D02*
X91200D01*
X100000Y89800D02*
X346909D01*
X403091D02*
X650000D01*
X106000Y91800D02*
X100000Y89800D01*
X106000Y87800D01*
X644000Y91800D02*
X650000Y89800D01*
X644000Y87800D01*
X100000Y88800D02*
Y90800D01*
X650000D02*
Y88800D01*
D02*
M02*
