*%FSLAX25Y25*%
*%MOIN*%
G01*
%ADD11C,0.00500*%
%ADD12C,0.00600*%
%ADD13C,0.00733*%
%ADD14C,0.00800*%
%ADD15C,0.00900*%
%ADD16C,0.01000*%
%ADD17C,0.01200*%
%ADD18C,0.01500*%
%ADD19C,0.01600*%
%ADD20C,0.01969*%
%ADD21C,0.02000*%
%ADD22C,0.02500*%
%ADD23C,0.03000*%
%ADD24C,0.03200*%
%ADD25C,0.03800*%
%ADD26C,0.04000*%
%ADD27C,0.04600*%
%ADD28C,0.05000*%
%ADD29C,0.05200*%
%ADD30C,0.06000*%
%ADD31C,0.06000*%
%ADD32C,0.06200*%
%ADD33C,0.06800*%
%ADD34C,0.07000*%
%ADD35C,0.07200*%
%ADD36C,0.07500*%
%ADD37C,0.07800*%
%ADD38C,0.08000*%
%ADD39C,0.08000*%
%ADD40C,0.08300*%
%ADD41C,0.08800*%
%ADD42C,0.09200*%
%ADD43C,0.10000*%
%ADD44C,0.10000*%
%ADD45C,0.10200*%
%ADD46C,0.10800*%
%ADD47C,0.11500*%
%ADD48C,0.12000*%
%ADD49C,0.12800*%
%ADD50C,0.13000*%
%ADD51C,0.13800*%
%ADD52C,0.14000*%
%ADD53C,0.15000*%
%ADD54C,0.15000*%
%ADD55C,0.15600*%
%ADD56C,0.15800*%
%ADD57C,0.16000*%
%ADD58C,0.18000*%
%ADD59C,0.18800*%
%ADD60C,0.19600*%
%ADD61C,0.25000*%
%ADD62C,0.25000*%
%ADD63R,0.06000X0.06000*%
%ADD64R,0.06800X0.06800*%
%ADD65R,0.07000X0.07000*%
%ADD66R,0.07500X0.07500*%
%ADD67R,0.07800X0.07800*%
%ADD68R,0.08000X0.08000*%
%ADD69R,0.08300X0.08300*%
%ADD70R,0.08800X0.08800*%
%ADD71O,0.07274X0.00975*%
%ADD72O,0.07274X0.00975*%
%ADD73O,0.07874X0.01575*%
%ADD74O,0.07874X0.01575*%
%ADD75O,0.08674X0.02375*%
%ADD76O,0.08674X0.02375*%
D12*
X87801Y322709D02*
Y326707D01*
Y322709D02*
X90800D01*
X89800Y324708D01*
Y325708D01*
X90800Y326707D01*
X92799D01*
X93799Y325708D01*
Y323708D01*
X92799Y322709D01*
X88801Y328707D02*
X87801Y329706D01*
Y331706D01*
X88801Y332705D01*
X92799D01*
X93799Y331706D01*
Y329706D01*
X92799Y328707D01*
X88801D01*
Y334705D02*
X87801Y335704D01*
Y337704D01*
X88801Y338703D01*
X92799D01*
X93799Y337704D01*
Y335704D01*
X92799Y334705D01*
X88801D01*
Y340703D02*
X87801Y341702D01*
Y343702D01*
X88801Y344702D01*
X92799D01*
X93799Y343702D01*
Y341702D01*
X92799Y340703D01*
X88801D01*
X91800Y352699D02*
X93799Y354698D01*
X91800Y352699D02*
X89800D01*
X87801Y354698D01*
X89800Y357697D02*
X93799D01*
X89800D02*
Y358697D01*
X90800Y359697D01*
X93799D01*
X90800D01*
X89800Y360696D01*
X90800Y361696D01*
X93799D01*
Y363695D02*
Y365695D01*
Y364695D01*
X89800D01*
Y363695D01*
X87801Y364695D02*
X87802D01*
X93799Y368694D02*
Y370693D01*
Y369693D01*
X87801D01*
Y368694D01*
X93799Y373692D02*
X91800Y375691D01*
X89800D01*
X87801Y373692D01*
X347909Y92199D02*
X351907D01*
X347909D02*
Y89200D01*
X349908Y90200D01*
X350908D01*
X351907Y89200D01*
Y87201D01*
X350908Y86201D01*
X348908D01*
X347909Y87201D01*
X353907Y92199D02*
X357905D01*
X353907D02*
Y89200D01*
X355906Y90200D01*
X356906D01*
X357905Y89200D01*
Y87201D01*
X356906Y86201D01*
X354906D01*
X353907Y87201D01*
X359905Y91199D02*
X360904Y92199D01*
X362904D01*
X363903Y91199D01*
Y87201D01*
X362904Y86201D01*
X360904D01*
X359905Y87201D01*
Y91199D01*
X365903D02*
X366902Y92199D01*
X368902D01*
X369902Y91199D01*
Y87201D01*
X368902Y86201D01*
X366902D01*
X365903Y87201D01*
Y91199D01*
X377899Y88200D02*
X379898Y86201D01*
X377899Y88200D02*
Y90200D01*
X379898Y92199D01*
X382897Y90200D02*
Y86201D01*
Y90200D02*
X383897D01*
X384897Y89200D01*
Y86201D01*
Y89200D01*
X385896Y90200D01*
X386896Y89200D01*
Y86201D01*
X388895D02*
X390895D01*
X389895D01*
Y90200D01*
X388895D01*
X389895Y92199D02*
X389896D01*
X393894Y86201D02*
X395893D01*
X394893D01*
Y92199D01*
X393894D01*
X398892Y86201D02*
X400891Y88200D01*
Y90200D01*
X398892Y92199D01*
D16*
X650000Y92000D02*
Y98400D01*
Y599800D02*
X100200D01*
X100000D02*
Y99800D01*
Y100000D02*
X650000D01*
X98900Y99900D02*
X92500D01*
X100200Y98600D02*
Y91900D01*
X650000Y100000D02*
Y599800D01*
X90200Y321709D02*
Y99800D01*
Y377891D02*
Y599800D01*
X88200Y105800D02*
X90200Y99800D01*
X92200Y105800D01*
X88200Y593800D02*
X90200Y599800D01*
X92200Y593800D01*
X91200Y99800D02*
X89200D01*
Y599800D02*
X91200D01*
X100000Y89800D02*
X346909D01*
X403091D02*
X650000D01*
X106000Y91800D02*
X100000Y89800D01*
X106000Y87800D01*
X644000Y91800D02*
X650000Y89800D01*
X644000Y87800D01*
X100000Y88800D02*
Y90800D01*
X650000D02*
Y88800D01*
D27*
X518300Y534800D02*
D03*
X578800Y322603D02*
D03*
X552020Y258734D02*
D03*
X584816Y366429D02*
D03*
X398400Y176600D02*
D03*
X402600Y186600D02*
D03*
X512876Y527800D02*
D03*
X501709Y559956D02*
D03*
X507300Y532700D02*
D03*
X568200Y530600D02*
D03*
X281600Y542000D02*
D03*
X286400Y530200D02*
D03*
X281800Y473800D02*
D03*
Y461600D02*
D03*
X276800Y474400D02*
D03*
X281400Y409200D02*
D03*
X276800Y405800D02*
D03*
X281200Y353400D02*
D03*
X327800Y555600D02*
D03*
X329600Y485200D02*
D03*
X281000Y342600D02*
D03*
X335400Y465200D02*
D03*
X360200D02*
D03*
X334200Y455400D02*
D03*
X349200Y457800D02*
D03*
X329400Y424200D02*
D03*
X286000Y398000D02*
D03*
X343400Y404800D02*
D03*
X381000Y405000D02*
D03*
X335400Y398200D02*
D03*
X367200D02*
D03*
X329400Y368200D02*
D03*
X401252Y198702D02*
D03*
X467200Y281000D02*
D03*
X335200Y348600D02*
D03*
X381000Y348800D02*
D03*
X331400Y337200D02*
D03*
X367400Y343600D02*
D03*
X364000Y296800D02*
D03*
X276600Y355800D02*
D03*
X276800Y539200D02*
D03*
X328800Y330600D02*
D03*
X351000Y287000D02*
D03*
X364600Y256600D02*
D03*
D33*
X597500Y545900D02*
D03*
X589000Y536500D02*
D03*
X597500D02*
D03*
D34*
X274158Y115574D02*
D03*
X268260Y110689D02*
D03*
X314158Y115574D02*
D03*
X228260Y110689D02*
D03*
D37*
X274574Y213443D02*
D03*
Y253443D02*
D03*
X198200Y279200D02*
D03*
X198000Y319000D02*
D03*
X183576Y335200D02*
D03*
X197000Y366800D02*
D03*
X197200Y443800D02*
D03*
X198200Y520700D02*
D03*
X197000Y407000D02*
D03*
X197200Y484000D02*
D03*
X198200Y561000D02*
D03*
X384252Y257302D02*
D03*
X566500Y543800D02*
D03*
X512300Y544700D02*
D03*
X581600Y489200D02*
D03*
X557400Y337100D02*
D03*
X607500Y278400D02*
D03*
X553000Y454000D02*
D03*
X543000Y467600D02*
D03*
X547900Y350400D02*
D03*
X519900Y215800D02*
D03*
X336200Y548800D02*
D03*
X337869Y477082D02*
D03*
X503800Y467800D02*
D03*
X338145Y416929D02*
D03*
X337800Y360000D02*
D03*
X384252Y307302D02*
D03*
Y227302D02*
D03*
X397652Y116502D02*
D03*
X384252Y117302D02*
D03*
X324252Y207302D02*
D03*
X245498Y226690D02*
D03*
X245383Y213504D02*
D03*
Y203504D02*
D03*
X215383Y193504D02*
D03*
X245383Y183504D02*
D03*
X215383Y173504D02*
D03*
X573600Y574500D02*
D03*
X578600Y561300D02*
D03*
X566500Y553800D02*
D03*
X533000Y467600D02*
D03*
X451572Y556079D02*
D03*
X336200Y558800D02*
D03*
X502300Y544700D02*
D03*
X337869Y487082D02*
D03*
X607500Y411400D02*
D03*
X557400Y327100D02*
D03*
X607500Y289300D02*
D03*
X557400Y297100D02*
D03*
X553000Y444000D02*
D03*
X537900Y350400D02*
D03*
X460152Y336378D02*
D03*
X527400Y277100D02*
D03*
X458378Y292524D02*
D03*
X618500Y262100D02*
D03*
X489900Y215800D02*
D03*
Y205800D02*
D03*
X338145Y426929D02*
D03*
X337800Y370000D02*
D03*
X458378Y282524D02*
D03*
Y272524D02*
D03*
X416852Y216502D02*
D03*
X407652Y116502D02*
D03*
X397952Y216502D02*
D03*
X384252Y297302D02*
D03*
Y217302D02*
D03*
X342496Y516324D02*
D03*
X324252Y197302D02*
D03*
Y117302D02*
D03*
X310062Y320700D02*
D03*
X235498Y226690D02*
D03*
X209045Y228098D02*
D03*
X215383Y153504D02*
D03*
X177469Y213082D02*
D03*
X142082Y201531D02*
D03*
X184800Y155400D02*
D03*
X142300Y169132D02*
D03*
X171628Y566100D02*
D03*
X182837Y573046D02*
D03*
X618500Y251200D02*
D03*
Y273000D02*
D03*
Y283900D02*
D03*
X607500Y267500D02*
D03*
Y256600D02*
D03*
X243000Y142600D02*
D03*
X519900Y205800D02*
D03*
Y195800D02*
D03*
X310062Y330700D02*
D03*
X607500Y433200D02*
D03*
Y422300D02*
D03*
X618500Y449500D02*
D03*
Y438600D02*
D03*
Y427700D02*
D03*
X607500Y444100D02*
D03*
X440494Y311734D02*
D03*
X450494D02*
D03*
X410494D02*
D03*
X420494D02*
D03*
X430494D02*
D03*
X244936Y371409D02*
D03*
X267487Y398332D02*
D03*
Y418332D02*
D03*
X215383Y183504D02*
D03*
Y163504D02*
D03*
X245383Y153504D02*
D03*
Y173504D02*
D03*
Y193504D02*
D03*
Y163504D02*
D03*
X215383Y203504D02*
D03*
X254885Y423910D02*
D03*
X257020Y310463D02*
D03*
X254934Y342395D02*
D03*
X244939Y407313D02*
D03*
X247220Y294502D02*
D03*
X247740Y327768D02*
D03*
X504000Y405300D02*
D03*
X503800Y430500D02*
D03*
X578600Y551300D02*
D03*
X447239Y129521D02*
D03*
X407239D02*
D03*
X286952Y187502D02*
D03*
Y147502D02*
D03*
X573384Y585158D02*
D03*
X533384D02*
D03*
X533600Y574500D02*
D03*
X458378Y262524D02*
D03*
X428378D02*
D03*
X458378Y252524D02*
D03*
Y242524D02*
D03*
X428378Y252524D02*
D03*
Y242524D02*
D03*
Y282524D02*
D03*
Y272524D02*
D03*
X310200Y142600D02*
D03*
X523000Y384000D02*
D03*
X553000Y424000D02*
D03*
X523000Y394000D02*
D03*
X553000Y434000D02*
D03*
X523000Y404000D02*
D03*
Y444000D02*
D03*
Y434000D02*
D03*
Y414000D02*
D03*
Y424000D02*
D03*
X553000Y414000D02*
D03*
Y404000D02*
D03*
Y384000D02*
D03*
Y394000D02*
D03*
X527400Y327100D02*
D03*
Y297100D02*
D03*
X557400Y277100D02*
D03*
Y287100D02*
D03*
Y307100D02*
D03*
Y317100D02*
D03*
X527400Y287100D02*
D03*
Y317100D02*
D03*
Y307100D02*
D03*
X305752Y166502D02*
D03*
Y186502D02*
D03*
X489900Y195800D02*
D03*
Y185800D02*
D03*
X257500Y238674D02*
D03*
X267466Y131727D02*
D03*
X217500Y238674D02*
D03*
X307466Y131727D02*
D03*
X175300Y587068D02*
D03*
X215300D02*
D03*
X215700Y574332D02*
D03*
X248600Y520800D02*
D03*
X248700Y556868D02*
D03*
X255700Y574332D02*
D03*
X269932Y549700D02*
D03*
Y529700D02*
D03*
X219045Y228098D02*
D03*
X206400Y520900D02*
D03*
Y560900D02*
D03*
X167469Y213082D02*
D03*
X177469Y243082D02*
D03*
X157469D02*
D03*
X147469D02*
D03*
X132082Y201531D02*
D03*
X157469Y213082D02*
D03*
X167469Y243082D02*
D03*
X140100Y189132D02*
D03*
X618500Y416800D02*
D03*
X174700Y351415D02*
D03*
X174902Y432878D02*
D03*
X206959Y319103D02*
D03*
X214700Y351415D02*
D03*
X214934Y342395D02*
D03*
X206959Y279103D02*
D03*
X171394Y325614D02*
D03*
X217020Y310463D02*
D03*
X205400Y407096D02*
D03*
X214902Y432878D02*
D03*
X214885Y423910D02*
D03*
X172176Y409000D02*
D03*
X205400Y367096D02*
D03*
X184033Y488508D02*
D03*
X205200Y444266D02*
D03*
Y484266D02*
D03*
X187918Y255869D02*
D03*
X147918D02*
D03*
X504000Y384600D02*
D03*
X183576Y415600D02*
D03*
X214961Y390490D02*
D03*
X254961D02*
D03*
X215738Y506270D02*
D03*
X175738D02*
D03*
X171976Y488400D02*
D03*
X248657Y442835D02*
D03*
X248592Y478765D02*
D03*
X269370Y462838D02*
D03*
Y482838D02*
D03*
X214885Y461296D02*
D03*
X254885D02*
D03*
X215803Y495543D02*
D03*
X255803Y495543D02*
D03*
X357524Y553700D02*
D03*
X267430Y361090D02*
D03*
Y341090D02*
D03*
X324252Y127302D02*
D03*
Y137302D02*
D03*
Y177302D02*
D03*
Y187302D02*
D03*
X384252Y137302D02*
D03*
X324252Y167302D02*
D03*
X384252Y187302D02*
D03*
Y177302D02*
D03*
Y157302D02*
D03*
X324252Y297302D02*
D03*
Y287302D02*
D03*
Y277302D02*
D03*
Y267302D02*
D03*
Y257302D02*
D03*
Y247302D02*
D03*
Y147302D02*
D03*
X384252Y197302D02*
D03*
Y207302D02*
D03*
Y237302D02*
D03*
X324252Y157302D02*
D03*
X384252Y287302D02*
D03*
Y277302D02*
D03*
Y267302D02*
D03*
Y167302D02*
D03*
Y147302D02*
D03*
Y127302D02*
D03*
Y247302D02*
D03*
X324252Y217302D02*
D03*
Y237302D02*
D03*
Y227302D02*
D03*
X357576Y564840D02*
D03*
X510100Y230676D02*
D03*
X520100D02*
D03*
X561400Y217500D02*
D03*
X255900Y537932D02*
D03*
X215900D02*
D03*
X302055Y266446D02*
D03*
Y276446D02*
D03*
Y286446D02*
D03*
Y296446D02*
D03*
X183576Y295200D02*
D03*
X171394Y285614D02*
D03*
X183576Y375600D02*
D03*
X172176Y369000D02*
D03*
X184033Y448508D02*
D03*
X171976Y448400D02*
D03*
X182837Y533046D02*
D03*
X171628Y526100D02*
D03*
D38*
X302055Y256446D02*
D03*
D39*
X617100Y117500D02*
X617101D01*
X617100D02*
X617199Y116173D01*
X617495Y114877D01*
X617981Y113638D01*
X618646Y112486D01*
X619476Y111446D01*
X620451Y110542D01*
X621550Y109792D01*
X622748Y109215D01*
X624020Y108823D01*
X625335Y108625D01*
X626665D01*
X627980Y108823D01*
X629252Y109215D01*
X630450Y109792D01*
X631549Y110542D01*
X632524Y111446D01*
X633354Y112486D01*
X634019Y113638D01*
X634505Y114877D01*
X634801Y116173D01*
X634900Y117500D01*
X634901D01*
X634900D02*
X634801Y118827D01*
X634505Y120123D01*
X634019Y121362D01*
X633354Y122514D01*
X632524Y123554D01*
X631549Y124458D01*
X630450Y125208D01*
X629252Y125785D01*
X627980Y126177D01*
X626665Y126375D01*
X625335D01*
X624020Y126177D01*
X622748Y125785D01*
X621550Y125208D01*
X620451Y124458D01*
X619476Y123554D01*
X618646Y122514D01*
X617981Y121362D01*
X617495Y120123D01*
X617199Y118827D01*
X617100Y117500D01*
X624900D02*
X624901D01*
X624900D02*
X624966Y117124D01*
X625157Y116793D01*
X625450Y116547D01*
X625809Y116417D01*
X626191D01*
X626550Y116547D01*
X626843Y116793D01*
X627034Y117124D01*
X627100Y117500D01*
X627101D01*
X627100D02*
X627034Y117876D01*
X626843Y118207D01*
X626550Y118453D01*
X626191Y118583D01*
X625809D01*
X625450Y118453D01*
X625157Y118207D01*
X624966Y117876D01*
X624900Y117500D01*
X604100Y482500D02*
X604101D01*
X604100D02*
X604199Y481173D01*
X604495Y479877D01*
X604981Y478638D01*
X605646Y477486D01*
X606476Y476446D01*
X607451Y475542D01*
X608550Y474792D01*
X609748Y474215D01*
X611020Y473823D01*
X612335Y473625D01*
X613665D01*
X614980Y473823D01*
X616252Y474215D01*
X617450Y474792D01*
X618549Y475542D01*
X619524Y476446D01*
X620354Y477486D01*
X621019Y478638D01*
X621505Y479877D01*
X621801Y481173D01*
X621900Y482500D01*
X621901D01*
X621900D02*
X621801Y483827D01*
X621505Y485123D01*
X621019Y486362D01*
X620354Y487514D01*
X619524Y488554D01*
X618549Y489458D01*
X617450Y490208D01*
X616252Y490785D01*
X614980Y491177D01*
X613665Y491375D01*
X612335D01*
X611020Y491177D01*
X609748Y490785D01*
X608550Y490208D01*
X607451Y489458D01*
X606476Y488554D01*
X605646Y487514D01*
X604981Y486362D01*
X604495Y485123D01*
X604199Y483827D01*
X604100Y482500D01*
X611900D02*
X611901D01*
X611900D02*
X611966Y482124D01*
X612157Y481793D01*
X612450Y481547D01*
X612809Y481417D01*
X613191D01*
X613550Y481547D01*
X613843Y481793D01*
X614034Y482124D01*
X614100Y482500D01*
X614101D01*
X614100D02*
X614034Y482876D01*
X613843Y483207D01*
X613550Y483453D01*
X613191Y483583D01*
X612809D01*
X612450Y483453D01*
X612157Y483207D01*
X611966Y482876D01*
X611900Y482500D01*
X603600Y383900D02*
X603601D01*
X603600D02*
X603699Y382574D01*
X603995Y381277D01*
X604481Y380038D01*
X605146Y378886D01*
X605976Y377846D01*
X606951Y376942D01*
X608050Y376192D01*
X609248Y375615D01*
X610520Y375223D01*
X611835Y375025D01*
X613165D01*
X614480Y375223D01*
X615752Y375615D01*
X616950Y376192D01*
X618049Y376942D01*
X619024Y377846D01*
X619854Y378886D01*
X620519Y380038D01*
X621005Y381277D01*
X621301Y382574D01*
X621400Y383900D01*
X621401D01*
X621400D02*
X621301Y385226D01*
X621005Y386523D01*
X620519Y387762D01*
X619854Y388914D01*
X619024Y389954D01*
X618049Y390858D01*
X616950Y391608D01*
X615752Y392185D01*
X614480Y392577D01*
X613165Y392775D01*
X611835D01*
X610520Y392577D01*
X609248Y392185D01*
X608050Y391608D01*
X606951Y390858D01*
X605976Y389954D01*
X605146Y388914D01*
X604481Y387762D01*
X603995Y386523D01*
X603699Y385226D01*
X603600Y383900D01*
X611400D02*
X611401D01*
X611400D02*
X611466Y383524D01*
X611657Y383193D01*
X611950Y382947D01*
X612309Y382817D01*
X612691D01*
X613050Y382947D01*
X613343Y383193D01*
X613534Y383524D01*
X613600Y383900D01*
X613601D01*
X613600D02*
X613534Y384276D01*
X613343Y384607D01*
X613050Y384853D01*
X612691Y384983D01*
X612309D01*
X611950Y384853D01*
X611657Y384607D01*
X611466Y384276D01*
X611400Y383900D01*
X603600Y316800D02*
X603601D01*
X603600D02*
X603699Y315474D01*
X603995Y314177D01*
X604481Y312938D01*
X605146Y311786D01*
X605976Y310746D01*
X606951Y309842D01*
X608050Y309092D01*
X609248Y308515D01*
X610520Y308123D01*
X611835Y307925D01*
X613165D01*
X614480Y308123D01*
X615752Y308515D01*
X616950Y309092D01*
X618049Y309842D01*
X619024Y310746D01*
X619854Y311786D01*
X620519Y312938D01*
X621005Y314177D01*
X621301Y315474D01*
X621400Y316800D01*
X621401D01*
X621400D02*
X621301Y318126D01*
X621005Y319423D01*
X620519Y320662D01*
X619854Y321814D01*
X619024Y322854D01*
X618049Y323758D01*
X616950Y324508D01*
X615752Y325085D01*
X614480Y325477D01*
X613165Y325675D01*
X611835D01*
X610520Y325477D01*
X609248Y325085D01*
X608050Y324508D01*
X606951Y323758D01*
X605976Y322854D01*
X605146Y321814D01*
X604481Y320662D01*
X603995Y319423D01*
X603699Y318126D01*
X603600Y316800D01*
X611400D02*
X611401D01*
X611400D02*
X611466Y316424D01*
X611657Y316093D01*
X611950Y315847D01*
X612309Y315717D01*
X612691D01*
X613050Y315847D01*
X613343Y316093D01*
X613534Y316424D01*
X613600Y316800D01*
X613601D01*
X613600D02*
X613534Y317176D01*
X613343Y317507D01*
X613050Y317753D01*
X612691Y317883D01*
X612309D01*
X611950Y317753D01*
X611657Y317507D01*
X611466Y317176D01*
X611400Y316800D01*
X604100Y218200D02*
X604101D01*
X604100D02*
X604199Y216874D01*
X604495Y215577D01*
X604981Y214338D01*
X605646Y213186D01*
X606476Y212146D01*
X607451Y211242D01*
X608550Y210492D01*
X609748Y209915D01*
X611020Y209523D01*
X612335Y209325D01*
X613665D01*
X614980Y209523D01*
X616252Y209915D01*
X617450Y210492D01*
X618549Y211242D01*
X619524Y212146D01*
X620354Y213186D01*
X621019Y214338D01*
X621505Y215577D01*
X621801Y216874D01*
X621900Y218200D01*
X621901D01*
X621900D02*
X621801Y219526D01*
X621505Y220823D01*
X621019Y222062D01*
X620354Y223214D01*
X619524Y224254D01*
X618549Y225158D01*
X617450Y225908D01*
X616252Y226485D01*
X614980Y226877D01*
X613665Y227075D01*
X612335D01*
X611020Y226877D01*
X609748Y226485D01*
X608550Y225908D01*
X607451Y225158D01*
X606476Y224254D01*
X605646Y223214D01*
X604981Y222062D01*
X604495Y220823D01*
X604199Y219526D01*
X604100Y218200D01*
X611900D02*
X611901D01*
X611900D02*
X611966Y217824D01*
X612157Y217493D01*
X612450Y217247D01*
X612809Y217117D01*
X613191D01*
X613550Y217247D01*
X613843Y217493D01*
X614034Y217824D01*
X614100Y218200D01*
X614101D01*
X614100D02*
X614034Y218576D01*
X613843Y218907D01*
X613550Y219153D01*
X613191Y219283D01*
X612809D01*
X612450Y219153D01*
X612157Y218907D01*
X611966Y218576D01*
X611900Y218200D01*
X108600Y117500D02*
X108601D01*
X108600D02*
X108699Y116173D01*
X108995Y114877D01*
X109481Y113638D01*
X110146Y112486D01*
X110976Y111446D01*
X111951Y110542D01*
X113050Y109792D01*
X114248Y109215D01*
X115520Y108823D01*
X116835Y108625D01*
X118165D01*
X119480Y108823D01*
X120752Y109215D01*
X121950Y109792D01*
X123049Y110542D01*
X124024Y111446D01*
X124854Y112486D01*
X125519Y113638D01*
X126005Y114877D01*
X126301Y116173D01*
X126400Y117500D01*
X126401D01*
X126400D02*
X126301Y118827D01*
X126005Y120123D01*
X125519Y121362D01*
X124854Y122514D01*
X124024Y123554D01*
X123049Y124458D01*
X121950Y125208D01*
X120752Y125785D01*
X119480Y126177D01*
X118165Y126375D01*
X116835D01*
X115520Y126177D01*
X114248Y125785D01*
X113050Y125208D01*
X111951Y124458D01*
X110976Y123554D01*
X110146Y122514D01*
X109481Y121362D01*
X108995Y120123D01*
X108699Y118827D01*
X108600Y117500D01*
X116400D02*
X116401D01*
X116400D02*
X116466Y117124D01*
X116657Y116793D01*
X116950Y116547D01*
X117309Y116417D01*
X117691D01*
X118050Y116547D01*
X118343Y116793D01*
X118534Y117124D01*
X118600Y117500D01*
X118601D01*
X118600D02*
X118534Y117876D01*
X118343Y118207D01*
X118050Y118453D01*
X117691Y118583D01*
X117309D01*
X116950Y118453D01*
X116657Y118207D01*
X116466Y117876D01*
X116400Y117500D01*
X617100Y582500D02*
X617101D01*
X617100D02*
X617199Y581174D01*
X617495Y579877D01*
X617981Y578638D01*
X618646Y577486D01*
X619476Y576446D01*
X620451Y575542D01*
X621550Y574792D01*
X622748Y574215D01*
X624020Y573823D01*
X625335Y573625D01*
X626665D01*
X627980Y573823D01*
X629252Y574215D01*
X630450Y574792D01*
X631549Y575542D01*
X632524Y576446D01*
X633354Y577486D01*
X634019Y578638D01*
X634505Y579877D01*
X634801Y581174D01*
X634900Y582500D01*
X634901D01*
X634900D02*
X634801Y583826D01*
X634505Y585123D01*
X634019Y586362D01*
X633354Y587514D01*
X632524Y588554D01*
X631549Y589458D01*
X630450Y590208D01*
X629252Y590785D01*
X627980Y591177D01*
X626665Y591375D01*
X625335D01*
X624020Y591177D01*
X622748Y590785D01*
X621550Y590208D01*
X620451Y589458D01*
X619476Y588554D01*
X618646Y587514D01*
X617981Y586362D01*
X617495Y585123D01*
X617199Y583826D01*
X617100Y582500D01*
X624900D02*
X624901D01*
X624900D02*
X624966Y582124D01*
X625157Y581793D01*
X625450Y581547D01*
X625809Y581417D01*
X626191D01*
X626550Y581547D01*
X626843Y581793D01*
X627034Y582124D01*
X627100Y582500D01*
X627101D01*
X627100D02*
X627034Y582876D01*
X626843Y583207D01*
X626550Y583453D01*
X626191Y583583D01*
X625809D01*
X625450Y583453D01*
X625157Y583207D01*
X624966Y582876D01*
X624900Y582500D01*
X108600D02*
X108601D01*
X108600D02*
X108699Y581174D01*
X108995Y579877D01*
X109481Y578638D01*
X110146Y577486D01*
X110976Y576446D01*
X111951Y575542D01*
X113050Y574792D01*
X114248Y574215D01*
X115520Y573823D01*
X116835Y573625D01*
X118165D01*
X119480Y573823D01*
X120752Y574215D01*
X121950Y574792D01*
X123049Y575542D01*
X124024Y576446D01*
X124854Y577486D01*
X125519Y578638D01*
X126005Y579877D01*
X126301Y581174D01*
X126400Y582500D01*
X126401D01*
X126400D02*
X126301Y583826D01*
X126005Y585123D01*
X125519Y586362D01*
X124854Y587514D01*
X124024Y588554D01*
X123049Y589458D01*
X121950Y590208D01*
X120752Y590785D01*
X119480Y591177D01*
X118165Y591375D01*
X116835D01*
X115520Y591177D01*
X114248Y590785D01*
X113050Y590208D01*
X111951Y589458D01*
X110976Y588554D01*
X110146Y587514D01*
X109481Y586362D01*
X108995Y585123D01*
X108699Y583826D01*
X108600Y582500D01*
X116400D02*
X116401D01*
X116400D02*
X116466Y582124D01*
X116657Y581793D01*
X116950Y581547D01*
X117309Y581417D01*
X117691D01*
X118050Y581547D01*
X118343Y581793D01*
X118534Y582124D01*
X118600Y582500D01*
X118601D01*
X118600D02*
X118534Y582876D01*
X118343Y583207D01*
X118050Y583453D01*
X117691Y583583D01*
X117309D01*
X116950Y583453D01*
X116657Y583207D01*
X116466Y582876D01*
X116400Y582500D01*
X401100Y350000D02*
X401101D01*
X401100D02*
X401199Y348674D01*
X401495Y347377D01*
X401981Y346138D01*
X402646Y344986D01*
X403476Y343946D01*
X404451Y343042D01*
X405550Y342292D01*
X406748Y341715D01*
X408020Y341323D01*
X409335Y341125D01*
X410665D01*
X411980Y341323D01*
X413252Y341715D01*
X414450Y342292D01*
X415549Y343042D01*
X416524Y343946D01*
X417354Y344986D01*
X418019Y346138D01*
X418505Y347377D01*
X418801Y348674D01*
X418900Y350000D01*
X418901D01*
X418900D02*
X418801Y351326D01*
X418505Y352623D01*
X418019Y353862D01*
X417354Y355014D01*
X416524Y356054D01*
X415549Y356958D01*
X414450Y357708D01*
X413252Y358285D01*
X411980Y358677D01*
X410665Y358875D01*
X409335D01*
X408020Y358677D01*
X406748Y358285D01*
X405550Y357708D01*
X404451Y356958D01*
X403476Y356054D01*
X402646Y355014D01*
X401981Y353862D01*
X401495Y352623D01*
X401199Y351326D01*
X401100Y350000D01*
X408900D02*
X408901D01*
X408900D02*
X408966Y349624D01*
X409157Y349293D01*
X409450Y349047D01*
X409809Y348917D01*
X410191D01*
X410550Y349047D01*
X410843Y349293D01*
X411034Y349624D01*
X411100Y350000D01*
X411101D01*
X411100D02*
X411034Y350376D01*
X410843Y350707D01*
X410550Y350953D01*
X410191Y351083D01*
X409809D01*
X409450Y350953D01*
X409157Y350707D01*
X408966Y350376D01*
X408900Y350000D01*
D40*
X526636Y167982D02*
D03*
X620000Y194500D02*
D03*
X489136Y130482D02*
D03*
D41*
X168259Y125300D02*
D03*
X183859D02*
D03*
X199459D02*
D03*
X215059D02*
D03*
X473958Y260574D02*
D03*
X476626Y512558D02*
D03*
Y552558D02*
D03*
X513958Y260574D02*
D03*
X585842Y124026D02*
D03*
X473174Y171642D02*
D03*
X545842Y124026D02*
D03*
X473174Y211643D02*
D03*
X407576Y564840D02*
D03*
X397952Y226502D02*
D03*
X447000Y170800D02*
D03*
X309152Y214902D02*
D03*
X190100Y189132D02*
D03*
X393932Y538654D02*
D03*
X357524Y543700D02*
D03*
X393921Y513509D02*
D03*
X597800Y110400D02*
D03*
X581200D02*
D03*
X447400Y153800D02*
D03*
X228700Y556868D02*
D03*
X228600Y520800D02*
D03*
X228592Y478765D02*
D03*
X228657Y442835D02*
D03*
X309152Y204902D02*
D03*
X224936Y371409D02*
D03*
X224939Y407313D02*
D03*
X227740Y327768D02*
D03*
X227220Y294502D02*
D03*
X268452Y176102D02*
D03*
X202731Y245718D02*
D03*
X606400Y117400D02*
D03*
X287152Y201702D02*
D03*
X268452Y154102D02*
D03*
X265152Y201702D02*
D03*
X544600Y251000D02*
D03*
X407200Y142000D02*
D03*
D46*
X558900Y179800D02*
D03*
X147000Y137000D02*
D03*
X227000Y260200D02*
D03*
X146200Y116800D02*
D03*
D49*
X123000Y380600D02*
D03*
X135300Y306800D02*
D03*
Y326500D02*
D03*
Y287100D02*
D03*
X123000Y513100D02*
D03*
Y439200D02*
D03*
Y365000D02*
D03*
Y291200D02*
D03*
X135300Y509100D02*
D03*
Y435100D02*
D03*
Y361100D02*
D03*
X123000Y454800D02*
D03*
Y470400D02*
D03*
Y396200D02*
D03*
Y306800D02*
D03*
Y322400D02*
D03*
Y544300D02*
D03*
Y528800D02*
D03*
X135300Y400500D02*
D03*
Y380800D02*
D03*
Y474500D02*
D03*
Y454800D02*
D03*
Y548500D02*
D03*
Y528800D02*
D03*
D51*
X609600Y517300D02*
D03*
Y565100D02*
D03*
D56*
X620800Y153600D02*
D03*
D59*
X598800Y152600D02*
D03*
D64*
X589000Y545900D02*
D03*
D67*
X441572Y556079D02*
D03*
X332496Y516324D02*
D03*
X460494Y311734D02*
D03*
X215383Y213504D02*
D03*
X504000Y374600D02*
D03*
X607500Y245700D02*
D03*
X519900Y185800D02*
D03*
X607500Y455000D02*
D03*
X504000Y415300D02*
D03*
X503800Y440500D02*
D03*
Y457800D02*
D03*
X428378Y292524D02*
D03*
X523000Y454000D02*
D03*
X527400Y337100D02*
D03*
X184800Y165400D02*
D03*
X132300Y169132D02*
D03*
X147469Y213082D02*
D03*
X202731Y255718D02*
D03*
X581600Y479200D02*
D03*
X450152Y336378D02*
D03*
X324252Y307302D02*
D03*
X551400Y217500D02*
D03*
X302055Y306446D02*
D03*
D69*
X620000Y184500D02*
D03*
D70*
X416852Y226502D02*
D03*
X383932Y538654D02*
D03*
X383921Y513509D02*
D03*
X558900Y161800D02*
D03*
D75*
X526637Y545135D02*
D03*
Y540017D02*
D03*
X554984Y532340D02*
D03*
X526637D02*
D03*
Y529781D02*
D03*
Y527222D02*
D03*
X316946Y545573D02*
D03*
X316946Y477031D02*
D03*
X316946Y413457D02*
D03*
Y357356D02*
D03*
X554984Y547694D02*
D03*
Y545135D02*
D03*
X526637Y537458D02*
D03*
X554984Y534899D02*
D03*
Y527222D02*
D03*
X316946Y558368D02*
D03*
Y555809D02*
D03*
Y550691D02*
D03*
Y548132D02*
D03*
X288600Y545573D02*
D03*
X316946Y489827D02*
D03*
Y487268D02*
D03*
Y482150D02*
D03*
Y479591D02*
D03*
X288600Y477031D02*
D03*
X316946Y426252D02*
D03*
Y423693D02*
D03*
Y418575D02*
D03*
Y416016D02*
D03*
X288600Y413457D02*
D03*
X316946Y370151D02*
D03*
Y367592D02*
D03*
Y362474D02*
D03*
Y359915D02*
D03*
X288600Y357356D02*
D03*
Y416016D02*
D03*
Y359915D02*
D03*
X288600Y367592D02*
D03*
Y370151D02*
D03*
X288600Y365033D02*
D03*
Y362474D02*
D03*
Y354797D02*
D03*
Y352238D02*
D03*
Y349679D02*
D03*
Y347120D02*
D03*
X316946Y354797D02*
D03*
Y349679D02*
D03*
Y347120D02*
D03*
Y352238D02*
D03*
X288600Y418575D02*
D03*
Y421134D02*
D03*
Y423693D02*
D03*
Y426252D02*
D03*
Y405780D02*
D03*
X316946Y403220D02*
D03*
Y408338D02*
D03*
Y405780D02*
D03*
Y410898D02*
D03*
X288600D02*
D03*
Y408338D02*
D03*
Y403220D02*
D03*
X554984Y519545D02*
D03*
Y522104D02*
D03*
Y524663D02*
D03*
Y529781D02*
D03*
Y537458D02*
D03*
Y540017D02*
D03*
Y542576D02*
D03*
Y550254D02*
D03*
Y552813D02*
D03*
X526637Y519545D02*
D03*
Y522104D02*
D03*
Y524663D02*
D03*
Y534899D02*
D03*
Y542576D02*
D03*
Y547694D02*
D03*
Y550254D02*
D03*
X316946Y365033D02*
D03*
Y421134D02*
D03*
Y484709D02*
D03*
Y474473D02*
D03*
Y469354D02*
D03*
X288600Y466795D02*
D03*
Y471913D02*
D03*
Y474473D02*
D03*
X316946Y471913D02*
D03*
Y466795D02*
D03*
X288600Y469354D02*
D03*
Y489827D02*
D03*
Y487268D02*
D03*
Y484709D02*
D03*
Y482150D02*
D03*
Y479591D02*
D03*
Y555809D02*
D03*
Y553250D02*
D03*
Y550691D02*
D03*
Y548132D02*
D03*
Y543014D02*
D03*
Y540455D02*
D03*
Y537896D02*
D03*
Y535337D02*
D03*
X316946Y553250D02*
D03*
Y535337D02*
D03*
Y540455D02*
D03*
X288600Y558368D02*
D03*
X316946Y537896D02*
D03*
Y543014D02*
D03*
D76*
X526637Y552813D02*
D03*
M02*
