*%FSLAX25Y25*%
*%MOIN*%
G01*
%ADD11C,0.00500*%
%ADD12C,0.00600*%
%ADD13C,0.00733*%
%ADD14C,0.00800*%
%ADD15C,0.00900*%
%ADD16C,0.01000*%
%ADD17C,0.01200*%
%ADD18C,0.01500*%
%ADD19C,0.01600*%
%ADD20C,0.01969*%
%ADD21C,0.02000*%
%ADD22C,0.02500*%
%ADD23C,0.03000*%
%ADD24C,0.03200*%
%ADD25C,0.03800*%
%ADD26C,0.04000*%
%ADD27C,0.04600*%
%ADD28C,0.05000*%
%ADD29C,0.05200*%
%ADD30C,0.06000*%
%ADD31C,0.06000*%
%ADD32C,0.06200*%
%ADD33C,0.06800*%
%ADD34C,0.07000*%
%ADD35C,0.07200*%
%ADD36C,0.07500*%
%ADD37C,0.07800*%
%ADD38C,0.08000*%
%ADD39C,0.08000*%
%ADD40C,0.08300*%
%ADD41C,0.08800*%
%ADD42C,0.09200*%
%ADD43C,0.10000*%
%ADD44C,0.10000*%
%ADD45C,0.10200*%
%ADD46C,0.10800*%
%ADD47C,0.11500*%
%ADD48C,0.12000*%
%ADD49C,0.12800*%
%ADD50C,0.13000*%
%ADD51C,0.13800*%
%ADD52C,0.14000*%
%ADD53C,0.15000*%
%ADD54C,0.15000*%
%ADD55C,0.15600*%
%ADD56C,0.15800*%
%ADD57C,0.16000*%
%ADD58C,0.18000*%
%ADD59C,0.18800*%
%ADD60C,0.19600*%
%ADD61C,0.25000*%
%ADD62C,0.25000*%
%ADD63R,0.06000X0.06000*%
%ADD64R,0.06800X0.06800*%
%ADD65R,0.07000X0.07000*%
%ADD66R,0.07500X0.07500*%
%ADD67R,0.07800X0.07800*%
%ADD68R,0.08000X0.08000*%
%ADD69R,0.08300X0.08300*%
%ADD70R,0.08800X0.08800*%
%ADD71O,0.07274X0.00975*%
%ADD72O,0.07274X0.00975*%
%ADD73O,0.07874X0.01575*%
%ADD74O,0.07874X0.01575*%
%ADD75O,0.08674X0.02375*%
%ADD76O,0.08674X0.02375*%
D12*
X87801Y322709D02*
Y326707D01*
Y322709D02*
X90800D01*
X89800Y324708D01*
Y325708D01*
X90800Y326707D01*
X92799D01*
X93799Y325708D01*
Y323708D01*
X92799Y322709D01*
X88801Y328707D02*
X87801Y329706D01*
Y331706D01*
X88801Y332705D01*
X92799D01*
X93799Y331706D01*
Y329706D01*
X92799Y328707D01*
X88801D01*
Y334705D02*
X87801Y335704D01*
Y337704D01*
X88801Y338703D01*
X92799D01*
X93799Y337704D01*
Y335704D01*
X92799Y334705D01*
X88801D01*
Y340703D02*
X87801Y341702D01*
Y343702D01*
X88801Y344702D01*
X92799D01*
X93799Y343702D01*
Y341702D01*
X92799Y340703D01*
X88801D01*
X91800Y352699D02*
X93799Y354698D01*
X91800Y352699D02*
X89800D01*
X87801Y354698D01*
X89800Y357697D02*
X93799D01*
X89800D02*
Y358697D01*
X90800Y359697D01*
X93799D01*
X90800D01*
X89800Y360696D01*
X90800Y361696D01*
X93799D01*
Y363695D02*
Y365695D01*
Y364695D01*
X89800D01*
Y363695D01*
X87801Y364695D02*
X87802D01*
X93799Y368694D02*
Y370693D01*
Y369693D01*
X87801D01*
Y368694D01*
X93799Y373692D02*
X91800Y375691D01*
X89800D01*
X87801Y373692D01*
X347909Y92199D02*
X351907D01*
X347909D02*
Y89200D01*
X349908Y90200D01*
X350908D01*
X351907Y89200D01*
Y87201D01*
X350908Y86201D01*
X348908D01*
X347909Y87201D01*
X353907Y92199D02*
X357905D01*
X353907D02*
Y89200D01*
X355906Y90200D01*
X356906D01*
X357905Y89200D01*
Y87201D01*
X356906Y86201D01*
X354906D01*
X353907Y87201D01*
X359905Y91199D02*
X360904Y92199D01*
X362904D01*
X363903Y91199D01*
Y87201D01*
X362904Y86201D01*
X360904D01*
X359905Y87201D01*
Y91199D01*
X365903D02*
X366902Y92199D01*
X368902D01*
X369902Y91199D01*
Y87201D01*
X368902Y86201D01*
X366902D01*
X365903Y87201D01*
Y91199D01*
X377899Y88200D02*
X379898Y86201D01*
X377899Y88200D02*
Y90200D01*
X379898Y92199D01*
X382897Y90200D02*
Y86201D01*
Y90200D02*
X383897D01*
X384897Y89200D01*
Y86201D01*
Y89200D01*
X385896Y90200D01*
X386896Y89200D01*
Y86201D01*
X388895D02*
X390895D01*
X389895D01*
Y90200D01*
X388895D01*
X389895Y92199D02*
X389896D01*
X393894Y86201D02*
X395893D01*
X394893D01*
Y92199D01*
X393894D01*
X398892Y86201D02*
X400891Y88200D01*
Y90200D01*
X398892Y92199D01*
D16*
X650000Y92000D02*
Y98400D01*
Y599800D02*
X100200D01*
X100000D02*
Y99800D01*
Y100000D02*
X650000D01*
X98900Y99900D02*
X92500D01*
X100200Y98600D02*
Y91900D01*
X650000Y100000D02*
Y599800D01*
X90200Y321709D02*
Y99800D01*
Y377891D02*
Y599800D01*
X88200Y105800D02*
X90200Y99800D01*
X92200Y105800D01*
X88200Y593800D02*
X90200Y599800D01*
X92200Y593800D01*
X91200Y99800D02*
X89200D01*
Y599800D02*
X91200D01*
X100000Y89800D02*
X346909D01*
X403091D02*
X650000D01*
X106000Y91800D02*
X100000Y89800D01*
X106000Y87800D01*
X644000Y91800D02*
X650000Y89800D01*
X644000Y87800D01*
X100000Y88800D02*
Y90800D01*
X650000D02*
Y88800D01*
D02*
M02*
